<?xml version="1.0" encoding="UTF-8" standalone="no"?>
<!-- Created with Inkscape (http://www.inkscape.org/) -->

<svg
   width="187.64371mm"
   height="22.781013mm"
   viewBox="0 0 187.64371 22.781013"
   version="1.1"
   id="svg5"
   xmlns:inkscape="http://www.inkscape.org/namespaces/inkscape"
   xmlns:sodipodi="http://sodipodi.sourceforge.net/DTD/sodipodi-0.dtd"
   xmlns="http://www.w3.org/2000/svg"
   xmlns:svg="http://www.w3.org/2000/svg">
  <sodipodi:namedview
     id="namedview7"
     pagecolor="#ffffff"
     bordercolor="#666666"
     borderopacity="1.0"
     inkscape:showpageshadow="2"
     inkscape:pageopacity="0.0"
     inkscape:pagecheckerboard="0"
     inkscape:deskcolor="#d1d1d1"
     inkscape:document-units="mm"
     showgrid="false" />
  <defs
     id="defs2" />
  <g
     inkscape:groupmode="layer"
     id="layer2"
     inkscape:label="Layer 2"
     transform="translate(-15.009568,-49.068747)">
    <g
       id="g8398"
       transform="translate(0.71839469,5.9094073)">
      <g
         aria-label="Rho Technologies"
         id="text3612"
         style="font-size:22.5778px;line-height:1.25;font-family:'Fonarto XT';-inkscape-font-specification:'Fonarto XT, Normal';stroke-width:0.264583"
         inkscape:export-filename="brand-outline.svg"
         inkscape:export-xdpi="92"
         inkscape:export-ydpi="92"
         transform="translate(2.039947,17.861095)">
        <path
           d="m 16.992563,33.76492 q 0.451556,0.248356 0.948268,0.338667 0.496711,0.06773 0.812801,0.02258 h -0.02258 q 0.699912,-0.158045 1.12889,-0.812801 0.428978,-0.677334 0.428978,-1.467557 0,-0.519289 -0.248356,-1.016001 -0.2032,-0.06773 -0.428978,-0.112889 -0.2032,-0.04516 -0.451556,-0.04516 h -2.167469 z m 1.670758,-7.766763 q 1.625601,0 2.731913,0.587023 1.12889,0.587022 1.783647,1.53529 l 0.338667,0.316089 q 0.790223,0.790223 1.174045,1.873958 0.383823,1.083734 0.383823,2.25778 0,0.857956 -0.225778,1.715913 -0.2032,0.857956 -0.609601,1.625601 -0.4064,0.767645 -1.016001,1.399824 -0.6096,0.609601 -1.377246,0.993423 0.474134,0.587023 1.016001,1.286935 0.541868,0.677334 1.083735,1.377246 0.541867,0.677334 1.061157,1.33209 0.541867,0.677334 0.970845,1.241779 H 21.350079 L 20.5147,42.705729 h -0.09031 l -3.431826,-4.334937 v 5.170316 H 13.222071 L 12.386692,42.705729 H 12.251225 V 29.226782 q 0,-1.444979 0.677334,-2.325513 0.677334,-0.903112 2.280358,-0.903112 z m -3.454404,0.451556 q -1.377246,0 -1.941691,0.767645 -0.564445,0.767645 -0.564445,2.009424 v 13.027391 h 3.002848 V 29.384827 h 2.551291 q 0.857957,0 1.399824,0.361245 0.564445,0.338667 0.812801,0.880534 0.270933,0.541867 0.270933,1.196623 0,0.632179 -0.225778,1.219202 -0.2032,0.564445 -0.654756,0.993423 -0.428978,0.428978 -1.038579,0.541867 -0.270934,0.04516 -0.654756,0.04516 -0.383823,0 -0.790223,-0.06773 -0.383823,-0.06773 -0.699912,-0.2032 -0.316089,-0.135467 -0.428978,-0.383823 -0.383823,0.564445 -0.451556,1.332091 -0.04516,0.767645 0.451556,1.399823 l 4.380093,5.554139 h 3.680182 L 20.356656,37.24191 q 1.174045,-0.451557 1.964268,-1.422402 0.812801,-0.970845 1.174046,-2.167469 0.361245,-1.196623 0.270933,-2.46098 -0.06773,-1.286935 -0.654756,-2.325514 -0.587023,-1.061156 -1.693335,-1.73849 -1.106312,-0.677334 -2.754491,-0.677334 z"
           id="path5155" />
        <path
           d="m 30.313441,26.133624 0.835378,0.835378 v 3.58987 q 0.451556,-0.180622 0.92569,-0.293511 0.474134,-0.112889 0.880534,-0.158045 0.903112,-0.04516 1.828802,0.270934 0.92569,0.316089 1.64818,1.061157 0.112889,0.112889 0.180622,0.225778 0.09031,0.112889 0.180622,0.248356 l 0.451556,0.428978 -0.158044,-0.135467 0.2032,0.180622 q 1.106312,1.151468 1.106312,3.251204 v 7.90223 h -3.58987 l -0.835379,-0.835379 h -0.135467 v -2.641602 q 0,-0.338667 0,-0.677334 0.02258,-0.361245 0.02258,-0.745068 0,-0.6096 -0.02258,-1.196623 0,-0.609601 -0.02258,-1.12889 -0.02258,-0.541868 -0.06773,-0.948268 -0.02258,-0.428978 -0.06773,-0.654756 l -0.09031,-0.2032 q -0.180623,-0.04516 -0.293512,-0.04516 -0.587023,0 -0.903112,0.451556 -0.316089,0.428978 -0.316089,1.151468 -0.270934,-0.09031 -0.541867,-0.180623 -0.270934,-0.112889 -0.383823,-0.2032 v 7.857075 H 27.536371 L 26.700992,42.705729 H 26.565526 V 28.752648 q 0,-1.286934 0.993423,-2.032002 1.016001,-0.745067 2.754492,-0.722489 z m -0.451556,0.316089 q -1.309513,-0.02258 -2.077158,0.6096 -0.767645,0.609601 -0.767645,1.693335 v 13.501525 h 2.844803 v -8.534408 q 0.112889,0.316089 0.383822,0.587022 0.293512,0.270934 0.541867,0.338667 0,-0.654756 0.406401,-1.061156 0.428978,-0.406401 1.196623,-0.406401 0.587023,0 1.061157,0.361245 0.474134,0.361245 0.654756,1.038579 0.06773,0.270934 0.112889,0.835379 0.04516,0.564445 0.06773,1.309512 0.02258,0.72249 0.02258,1.557868 0,0.812801 0,1.580446 0,0.745068 -0.02258,1.399824 0,0.632178 0,0.993423 h 2.822226 v -7.518407 q 0,-1.941691 -0.993424,-2.98027 -0.677334,-0.699912 -1.490135,-0.970846 -0.8128,-0.270933 -1.648179,-0.225778 -0.4064,0.02258 -0.880534,0.135467 -0.451556,0.112889 -0.903112,0.31609 -0.428978,0.180622 -0.790223,0.474133 -0.361245,0.293512 -0.541867,0.677334 z"
           id="path5157" />
        <path
           d="m 43.611754,37.354791 q 0,0.903112 0.361244,1.557868 0.699912,0.451556 1.535291,0.451556 0.519289,0 1.016001,-0.180623 0.496711,-0.180622 0.880534,-0.541867 0.383823,-0.383822 0.609601,-0.92569 0.248356,-0.564445 0.248356,-1.309512 0,-1.016001 -0.496712,-1.761069 -0.587023,-0.316089 -1.286935,-0.316089 -0.135467,0 -0.338667,0.04516 -0.180622,0.02258 -0.474134,0.06773 0.31609,0.383823 0.51929,0.903112 0.225778,0.496712 0.293511,1.151468 -0.993423,-0.72249 -1.354668,-0.72249 -0.270933,0 -0.541867,0.112889 -0.248356,0.09031 -0.474134,0.293512 -0.2032,0.2032 -0.361245,0.496711 -0.135466,0.293512 -0.135466,0.677334 z m 1.873957,-7.518408 q 1.693335,0 3.070581,0.745067 1.377246,0.72249 2.25778,1.919113 l 0.248356,0.225778 q 0.92569,0.92569 1.422401,2.122314 0.496712,1.174045 0.496712,2.483558 0,1.648179 -0.880534,3.228625 -0.451556,0.790223 -1.083735,1.399824 -0.6096,0.6096 -1.354668,1.016001 -0.745067,0.428978 -1.580446,0.632178 -0.835379,0.225778 -1.670757,0.225778 -1.241779,0 -2.438403,-0.474133 -1.174045,-0.451556 -2.144891,-1.422402 l -0.248355,-0.248356 q -0.338668,-0.248356 -0.699912,-0.6096 -0.970846,-0.970846 -1.467557,-2.190047 -0.474134,-1.219201 -0.474134,-2.506136 0,-0.474134 0.04515,-0.92569 0.06773,-0.474134 0.225778,-0.948267 0.203201,-0.564445 0.564445,-0.993424 0.383823,-0.428978 0.857957,-0.699911 l -0.338667,-0.406401 q 1.016001,-1.219201 2.325513,-1.896535 1.332091,-0.677334 2.867381,-0.677334 z m 0,0.451556 q -1.422401,0 -2.619025,0.609601 -1.196623,0.587022 -2.099735,1.670757 0.496711,-0.293512 1.061156,-0.383823 0.564445,-0.112889 1.12889,-0.02258 0.564445,0.06773 1.038579,0.31609 0.496712,0.225778 0.835379,0.632178 0.790223,-0.158045 1.490135,0.02258 0.699911,0.158044 1.219201,0.6096 0.541867,0.428979 0.857956,1.106313 0.31609,0.677334 0.31609,1.557868 0,1.12889 -0.474134,1.896535 -0.474134,0.745068 -1.196624,1.12889 -0.699912,0.383823 -1.53529,0.383823 -0.812801,0 -1.535291,-0.361245 -0.699911,-0.383823 -1.174045,-1.12889 -0.474134,-0.745067 -0.474134,-1.873958 0,-0.654756 0.293511,-1.083734 0.31609,-0.451556 0.745068,-0.654756 0.451556,-0.225778 0.92569,-0.2032 0.474133,0 0.8128,0.248355 -0.06773,-0.632178 -0.451556,-1.061156 -0.361244,-0.451556 -0.903112,-0.677334 -0.541867,-0.248356 -1.174045,-0.270934 -0.632179,-0.02258 -1.219201,0.180623 -0.587023,0.2032 -1.061157,0.632178 -0.451556,0.428978 -0.654756,1.083734 -0.474134,1.625602 -0.06773,3.251204 0.406401,1.625601 1.625602,2.86738 1.083734,1.083735 2.438402,1.490135 1.377246,0.428978 2.731914,0.225778 1.354668,-0.180622 2.551292,-0.948267 1.196623,-0.767646 1.941691,-2.05458 0.880534,-1.557868 0.8128,-3.18347 -0.04515,-1.625602 -0.835378,-2.957692 -0.790223,-1.33209 -2.190047,-2.190047 -1.377246,-0.857956 -3.160892,-0.857956 z"
           id="path5159" />
        <path
           d="m 70.863101,25.998157 v 0.135467 l 0.835378,0.835378 q 0,0.880534 -0.248355,1.580446 -0.225778,0.677334 -0.609601,1.174046 -0.383823,0.474134 -0.903112,0.745067 -0.519289,0.248356 -1.083734,0.248356 H 67.431275 V 43.541108 H 63.615627 L 62.780248,42.705729 H 62.644781 V 30.716917 h -2.528713 l -0.835379,-0.835379 h -0.135467 v -3.883381 z m -11.266323,0.451556 v 2.980269 h 3.499559 v 12.824191 h 3.048004 V 29.429982 h 1.806224 q 0.496711,0 0.925689,-0.2032 0.451556,-0.2032 0.790223,-0.587023 0.338667,-0.383822 0.541868,-0.925689 0.2032,-0.564445 0.2032,-1.264357 z"
           id="path5161" />
        <path
           d="m 74.588372,37.851502 q 0.09031,0.654756 0.4064,1.241779 0.406401,0.270934 0.880535,0.338667 0.383822,0.06773 0.8128,0.04516 0.428979,-0.04516 0.857957,-0.225778 -0.790223,-0.04516 -1.444979,-0.270934 -0.632179,-0.225778 -1.016001,-0.654756 z m 2.889958,-3.905959 q -1.264356,0.06773 -2.122313,1.061156 0.270934,0.09031 0.541867,0.112889 0.270934,0.02258 0.51929,0.02258 0.541867,0 1.083734,-0.06773 0.632179,-0.04516 0.903112,-0.225778 0.270934,-0.203201 0.270934,-0.451556 0,-0.06773 -0.02258,-0.112889 0,-0.06773 -0.02258,-0.135467 -0.248356,-0.112889 -0.541867,-0.158045 -0.293511,-0.06773 -0.609601,-0.04516 z m -4.944538,7.811919 q -1.286935,-0.948268 -1.919113,-2.370669 -0.632178,-1.422402 -0.632178,-2.98027 0,-1.264357 0.474133,-2.506136 0.496712,-1.241779 1.354668,-2.190047 0.970846,-1.016001 2.25778,-1.467557 1.309513,-0.451556 2.641603,-0.451556 1.64818,0 2.822225,0.609601 1.174046,0.609601 1.828802,1.53529 l 0.361245,0.361245 q 0.632178,0.632179 0.948268,1.399824 0.316089,0.767645 0.316089,1.557868 0,1.12889 -0.654756,2.122313 -0.632179,0.970846 -1.986847,1.490135 l 1.85138,0.880534 -0.06773,0.09031 0.857957,0.835378 q -1.106312,1.670757 -2.506136,2.393247 -1.399824,0.72249 -3.115737,0.72249 -1.490134,0 -2.641602,-0.496712 -1.12889,-0.474134 -1.919113,-1.264357 z m 6.208895,-4.018849 q 1.196624,-0.293511 1.896536,-0.948268 0.699911,-0.677334 0.925689,-1.512712 0.248356,-0.835379 0.04516,-1.715913 -0.2032,-0.903112 -0.835379,-1.625602 -0.632178,-0.745067 -1.648179,-1.219201 -1.016001,-0.474134 -2.415825,-0.474134 -1.264357,0 -2.483558,0.406401 -1.196623,0.4064 -2.099735,1.377246 -0.835379,0.857956 -1.264357,1.986846 -0.406401,1.106312 -0.428978,2.280358 -0.02258,1.151468 0.338667,2.280358 0.383822,1.106312 1.12889,1.986846 0.767645,0.880534 1.896535,1.422402 1.151468,0.519289 2.66418,0.519289 1.625602,0 2.889959,-0.587023 1.264357,-0.6096 2.190047,-1.986846 l -2.37067,-1.151468 q -0.699911,0.72249 -1.603023,0.993423 -0.903112,0.270934 -1.761069,0.112889 -0.6096,-0.09031 -1.083734,-0.428978 -0.474134,-0.361245 -0.812801,-0.857956 -0.338667,-0.51929 -0.51929,-1.12889 -0.158044,-0.609601 -0.135466,-1.24178 0.02258,-0.767645 0.293511,-1.399823 0.270934,-0.632179 0.72249,-1.106312 0.451556,-0.474134 1.038579,-0.745068 0.587022,-0.270933 1.241779,-0.316089 0.6096,-0.02258 1.106312,0.158045 0.519289,0.180622 0.857956,0.474133 0.361245,0.293512 0.51929,0.654757 0.158044,0.361244 0.06773,0.699911 -0.09031,0.31609 -0.474134,0.564445 -0.361245,0.248356 -1.083734,0.31609 -0.857957,0.09031 -1.783646,0.04515 -0.92569,-0.06773 -1.625602,-0.654756 -0.338667,0.835379 -0.135467,1.512713 0.225778,0.654756 0.857957,1.061156 0.654756,0.383823 1.648179,0.474134 1.016001,0.09031 2.235202,-0.225778 z"
           id="path5163" />
        <path
           d="m 85.719191,41.66715 q -1.264357,-0.925689 -1.896535,-2.325513 -0.632179,-1.399824 -0.632179,-2.935114 0,-1.693335 0.812801,-3.228626 0.812801,-1.53529 2.438402,-2.483558 1.512713,-0.857956 3.341515,-0.857956 0.248356,0 0.496712,0.02258 0.270933,0 0.496711,0.04515 1.151468,0.180623 1.919113,0.654756 0.767646,0.451557 1.219202,1.038579 l 0.519289,0.51929 q 0.474134,0.474134 0.699912,1.038579 0.225778,0.564445 0.225778,1.083734 0,0.632178 -0.293512,1.151468 -0.293511,0.496711 -0.8128,0.745067 l -0.51929,-0.225778 -0.790223,-0.767645 -0.180622,-0.09031 q -0.06773,-0.225778 -0.203201,-0.428978 -0.361244,-0.180623 -0.790223,-0.270934 -0.4064,-0.09031 -0.835378,-0.09031 -0.51929,0 -1.038579,0.135467 -0.496712,0.135466 -0.948268,0.428978 -0.428978,0.293511 -0.745067,0.745067 -0.316089,0.428978 -0.451556,1.038579 -0.06773,0.316089 -0.06773,0.745068 0,0.4064 0.06773,0.790223 0.09031,0.361244 0.270934,0.722489 0.316089,0.225778 0.745067,0.361245 0.428978,0.112889 0.948268,0.112889 1.603023,0 2.754491,-1.490135 l 2.867381,2.05458 q -0.04516,0.04516 -0.04516,0.06773 l 0.857957,0.857957 q -2.05458,2.889958 -5.486406,2.889958 -1.512712,0 -2.686758,-0.496711 -1.151468,-0.474134 -1.964269,-1.286935 z m 7.473252,-6.77334 q 0.564445,-0.270933 0.767645,-0.92569 0.225778,-0.677334 -0.02258,-1.399823 -0.248355,-0.745068 -1.038578,-1.377246 -0.767646,-0.632179 -2.167469,-0.835379 -1.061157,-0.158044 -2.122314,0.04516 -1.038578,0.180622 -1.964268,0.699912 -1.241779,0.699912 -1.964269,1.828802 -0.72249,1.106312 -0.948268,2.370669 -0.2032,1.241779 0.06773,2.528713 0.270933,1.264357 1.038579,2.302936 0.767645,1.016001 1.986846,1.670757 1.241779,0.632179 2.935114,0.632179 3.228626,0 4.944539,-2.415825 l -2.144892,-1.557868 q -1.016001,1.33209 -2.844802,1.33209 -0.970846,0 -1.670758,-0.383823 -0.677334,-0.383822 -1.083734,-0.970845 -0.406401,-0.609601 -0.51929,-1.354668 -0.112889,-0.745068 0.04516,-1.467557 0.2032,-0.880534 0.72249,-1.444979 0.519289,-0.587023 1.196623,-0.880535 0.699912,-0.293511 1.467557,-0.293511 0.767645,-0.02258 1.444979,0.2032 0.677334,0.2032 1.174046,0.632179 0.51929,0.428978 0.699912,1.061156 z"
           id="path5165" />
        <path
           d="m 100.25929,26.133624 0.83538,0.835378 v 3.58987 q 0.45155,-0.180622 0.92569,-0.293511 0.47413,-0.112889 0.88053,-0.158045 0.90311,-0.04516 1.8288,0.270934 0.92569,0.316089 1.64818,1.061157 0.11289,0.112889 0.18062,0.225778 0.0903,0.112889 0.18063,0.248356 l 0.45155,0.428978 -0.15804,-0.135467 0.2032,0.180622 q 1.10631,1.151468 1.10631,3.251204 v 7.90223 h -3.58987 l -0.83538,-0.835379 h -0.13547 v -2.641602 q 0,-0.338667 0,-0.677334 0.0226,-0.361245 0.0226,-0.745068 0,-0.6096 -0.0226,-1.196623 0,-0.609601 -0.0226,-1.12889 -0.0226,-0.541868 -0.0677,-0.948268 -0.0226,-0.428978 -0.0677,-0.654756 l -0.0903,-0.2032 q -0.18062,-0.04516 -0.29351,-0.04516 -0.58703,0 -0.90312,0.451556 -0.31608,0.428978 -0.31608,1.151468 -0.27094,-0.09031 -0.54187,-0.180623 -0.27094,-0.112889 -0.38382,-0.2032 v 7.857075 H 97.482218 L 96.646839,42.705729 H 96.511372 V 28.752648 q 0,-1.286934 0.993423,-2.032002 1.016001,-0.745067 2.754495,-0.722489 z m -0.451559,0.316089 q -1.309512,-0.02258 -2.077158,0.6096 -0.767645,0.609601 -0.767645,1.693335 v 13.501525 h 2.844803 v -8.534408 q 0.112889,0.316089 0.383819,0.587022 0.29352,0.270934 0.54187,0.338667 0,-0.654756 0.4064,-1.061156 0.42898,-0.406401 1.19662,-0.406401 0.58703,0 1.06116,0.361245 0.47414,0.361245 0.65476,1.038579 0.0677,0.270934 0.11289,0.835379 0.0452,0.564445 0.0677,1.309512 0.0226,0.72249 0.0226,1.557868 0,0.812801 0,1.580446 0,0.745068 -0.0226,1.399824 0,0.632178 0,0.993423 h 2.82223 v -7.518407 q 0,-1.941691 -0.99343,-2.98027 -0.67733,-0.699912 -1.49013,-0.970846 -0.8128,-0.270933 -1.64818,-0.225778 -0.4064,0.02258 -0.88054,0.135467 -0.45155,0.112889 -0.90311,0.31609 -0.42898,0.180622 -0.79022,0.474133 -0.361246,0.293512 -0.541869,0.677334 z"
           id="path5167" />
        <path
           d="m 113.12862,30.242783 0.27093,0.316089 q 0.58702,-0.361244 1.24178,-0.519289 0.65476,-0.180622 1.19662,-0.225778 0.97085,-0.04516 1.87396,0.270934 0.92569,0.316089 1.69334,1.083734 0.11289,0.112889 0.2032,0.248356 0.0903,0.112889 0.18062,0.225778 l 0.47413,0.474134 q 1.12889,1.174045 1.12889,3.318936 v 8.105431 h -3.6576 l -0.83538,-0.835379 h -0.13547 v -2.709336 q 0,-0.361245 0,-0.722489 0.0226,-0.361245 0.0226,-0.745068 0,-0.632178 -0.0226,-1.241779 0,-0.632178 -0.0226,-1.174046 -0.0226,-0.541867 -0.0677,-0.948267 -0.0226,-0.428978 -0.0677,-0.654756 -0.0452,-0.135467 -0.0903,-0.203201 -0.18062,-0.06773 -0.36125,-0.06773 -0.58702,0 -0.92569,0.451556 -0.31609,0.451556 -0.31609,1.196623 -0.51929,-0.135466 -0.94826,-0.496711 v 8.150586 h -3.68018 l -0.83538,-0.835379 h -0.13547 V 30.107316 h 3.81565 z m -0.45156,1.670758 v -1.354669 h -2.91253 v 11.695301 h 2.91253 v -8.150586 -0.6096 q 0.13547,0.316089 0.4064,0.6096 0.27094,0.270934 0.54187,0.361245 0,-0.677334 0.42898,-1.083734 0.42898,-0.428979 1.19662,-0.428979 0.58702,0 1.08374,0.361245 0.51929,0.361245 0.69991,1.083735 0.0677,0.270933 0.11289,0.857956 0.0452,0.587023 0.0677,1.33209 0.0226,0.745068 0.0226,1.580446 0,0.835379 0,1.625602 0,0.767645 -0.0226,1.422401 0,0.654757 0,1.038579 h 2.88996 v -7.721608 q 0,-1.986846 -1.016,-3.048003 -0.69991,-0.699912 -1.53529,-0.970845 -0.83538,-0.293512 -1.69334,-0.248356 -0.4064,0.02258 -0.88053,0.135467 -0.47414,0.112889 -0.92569,0.316089 -0.45156,0.2032 -0.83538,0.496712 -0.36125,0.293511 -0.54187,0.699912 z"
           id="path5169" />
        <path
           d="m 126.60755,37.354791 q 0,0.903112 0.36124,1.557868 0.69991,0.451556 1.53529,0.451556 0.51929,0 1.016,-0.180623 0.49671,-0.180622 0.88054,-0.541867 0.38382,-0.383822 0.6096,-0.92569 0.24835,-0.564445 0.24835,-1.309512 0,-1.016001 -0.49671,-1.761069 -0.58702,-0.316089 -1.28693,-0.316089 -0.13547,0 -0.33867,0.04516 -0.18062,0.02258 -0.47413,0.06773 0.31609,0.383823 0.51929,0.903112 0.22577,0.496712 0.29351,1.151468 -0.99343,-0.72249 -1.35467,-0.72249 -0.27093,0 -0.54187,0.112889 -0.24835,0.09031 -0.47413,0.293512 -0.2032,0.2032 -0.36125,0.496711 -0.13546,0.293512 -0.13546,0.677334 z m 1.87395,-7.518408 q 1.69334,0 3.07058,0.745067 1.37725,0.72249 2.25778,1.919113 l 0.24836,0.225778 q 0.92569,0.92569 1.4224,2.122314 0.49671,1.174045 0.49671,2.483558 0,1.648179 -0.88053,3.228625 -0.45156,0.790223 -1.08374,1.399824 -0.6096,0.6096 -1.35466,1.016001 -0.74507,0.428978 -1.58045,0.632178 -0.83538,0.225778 -1.67076,0.225778 -1.24178,0 -2.4384,-0.474133 -1.17404,-0.451556 -2.14489,-1.422402 l -0.24836,-0.248356 q -0.33866,-0.248356 -0.69991,-0.6096 -0.97084,-0.970846 -1.46755,-2.190047 -0.47414,-1.219201 -0.47414,-2.506136 0,-0.474134 0.0452,-0.92569 0.0677,-0.474134 0.22577,-0.948267 0.20321,-0.564445 0.56445,-0.993424 0.38382,-0.428978 0.85796,-0.699911 l -0.33867,-0.406401 q 1.016,-1.219201 2.32551,-1.896535 1.33209,-0.677334 2.86738,-0.677334 z m 0,0.451556 q -1.4224,0 -2.61902,0.609601 -1.19662,0.587022 -2.09974,1.670757 0.49671,-0.293512 1.06116,-0.383823 0.56444,-0.112889 1.12889,-0.02258 0.56444,0.06773 1.03858,0.31609 0.49671,0.225778 0.83538,0.632178 0.79022,-0.158045 1.49013,0.02258 0.69991,0.158044 1.2192,0.6096 0.54187,0.428979 0.85796,1.106313 0.31609,0.677334 0.31609,1.557868 0,1.12889 -0.47413,1.896535 -0.47414,0.745068 -1.19663,1.12889 -0.69991,0.383823 -1.53529,0.383823 -0.8128,0 -1.53529,-0.361245 -0.69991,-0.383823 -1.17404,-1.12889 -0.47414,-0.745067 -0.47414,-1.873958 0,-0.654756 0.29351,-1.083734 0.31609,-0.451556 0.74507,-0.654756 0.45156,-0.225778 0.92569,-0.2032 0.47413,0 0.8128,0.248355 -0.0677,-0.632178 -0.45156,-1.061156 -0.36124,-0.451556 -0.90311,-0.677334 -0.54186,-0.248356 -1.17404,-0.270934 -0.63218,-0.02258 -1.2192,0.180623 -0.58703,0.2032 -1.06116,0.632178 -0.45156,0.428978 -0.65476,1.083734 -0.47413,1.625602 -0.0677,3.251204 0.4064,1.625601 1.6256,2.86738 1.08374,1.083735 2.4384,1.490135 1.37725,0.428978 2.73192,0.225778 1.35467,-0.180622 2.55129,-0.948267 1.19662,-0.767646 1.94169,-2.05458 0.88053,-1.557868 0.8128,-3.18347 -0.0452,-1.625602 -0.83538,-2.957692 -0.79022,-1.33209 -2.19004,-2.190047 -1.37725,-0.857956 -3.1609,-0.857956 z"
           id="path5171" />
        <path
           d="m 140.24452,26.133624 0.83538,0.835378 v 16.572106 h -3.61245 l -0.83537,-0.835379 h -0.13547 V 28.752648 q 0,-1.286934 0.99342,-2.032002 1.016,-0.745067 2.75449,-0.722489 z m -0.45155,0.316089 q -1.30951,-0.02258 -2.07716,0.6096 -0.76764,0.609601 -0.76764,1.693335 v 13.501525 h 2.8448 z"
           id="path5173" />
        <path
           d="m 146.29534,37.354791 q 0,0.903112 0.36124,1.557868 0.69991,0.451556 1.53529,0.451556 0.51929,0 1.016,-0.180623 0.49671,-0.180622 0.88054,-0.541867 0.38382,-0.383822 0.6096,-0.92569 0.24835,-0.564445 0.24835,-1.309512 0,-1.016001 -0.49671,-1.761069 -0.58702,-0.316089 -1.28693,-0.316089 -0.13547,0 -0.33867,0.04516 -0.18062,0.02258 -0.47413,0.06773 0.31608,0.383823 0.51929,0.903112 0.22577,0.496712 0.29351,1.151468 -0.99343,-0.72249 -1.35467,-0.72249 -0.27094,0 -0.54187,0.112889 -0.24835,0.09031 -0.47413,0.293512 -0.2032,0.2032 -0.36125,0.496711 -0.13546,0.293512 -0.13546,0.677334 z m 1.87395,-7.518408 q 1.69334,0 3.07058,0.745067 1.37725,0.72249 2.25778,1.919113 l 0.24836,0.225778 q 0.92569,0.92569 1.4224,2.122314 0.49671,1.174045 0.49671,2.483558 0,1.648179 -0.88053,3.228625 -0.45156,0.790223 -1.08374,1.399824 -0.6096,0.6096 -1.35466,1.016001 -0.74507,0.428978 -1.58045,0.632178 -0.83538,0.225778 -1.67076,0.225778 -1.24178,0 -2.4384,-0.474133 -1.17404,-0.451556 -2.14489,-1.422402 l -0.24836,-0.248356 q -0.33866,-0.248356 -0.69991,-0.6096 -0.97084,-0.970846 -1.46756,-2.190047 -0.47413,-1.219201 -0.47413,-2.506136 0,-0.474134 0.0452,-0.92569 0.0677,-0.474134 0.22577,-0.948267 0.2032,-0.564445 0.56445,-0.993424 0.38382,-0.428978 0.85796,-0.699911 l -0.33867,-0.406401 q 1.016,-1.219201 2.32551,-1.896535 1.33209,-0.677334 2.86738,-0.677334 z m 0,0.451556 q -1.4224,0 -2.61902,0.609601 -1.19662,0.587022 -2.09974,1.670757 0.49671,-0.293512 1.06116,-0.383823 0.56444,-0.112889 1.12889,-0.02258 0.56444,0.06773 1.03858,0.31609 0.49671,0.225778 0.83538,0.632178 0.79022,-0.158045 1.49013,0.02258 0.69991,0.158044 1.2192,0.6096 0.54187,0.428979 0.85796,1.106313 0.31609,0.677334 0.31609,1.557868 0,1.12889 -0.47413,1.896535 -0.47414,0.745068 -1.19663,1.12889 -0.69991,0.383823 -1.53529,0.383823 -0.8128,0 -1.53529,-0.361245 -0.69991,-0.383823 -1.17404,-1.12889 -0.47414,-0.745067 -0.47414,-1.873958 0,-0.654756 0.29351,-1.083734 0.31609,-0.451556 0.74507,-0.654756 0.45156,-0.225778 0.92569,-0.2032 0.47413,0 0.8128,0.248355 -0.0677,-0.632178 -0.45156,-1.061156 -0.36124,-0.451556 -0.90311,-0.677334 -0.54186,-0.248356 -1.17404,-0.270934 -0.63218,-0.02258 -1.2192,0.180623 -0.58703,0.2032 -1.06116,0.632178 -0.45156,0.428978 -0.65476,1.083734 -0.47413,1.625602 -0.0677,3.251204 0.4064,1.625601 1.6256,2.86738 1.08374,1.083735 2.4384,1.490135 1.37725,0.428978 2.73192,0.225778 1.35467,-0.180622 2.55129,-0.948267 1.19662,-0.767646 1.94169,-2.05458 0.88053,-1.557868 0.8128,-3.18347 -0.0452,-1.625602 -0.83538,-2.957692 -0.79022,-1.33209 -2.19004,-2.190047 -1.37725,-0.857956 -3.1609,-0.857956 z"
           id="path5175" />
        <path
           d="m 162.28041,39.138437 q 0.76765,0 1.26436,-0.316089 0.51929,-0.338667 0.8128,-0.857957 0.29351,-0.519289 0.4064,-1.196623 0.13547,-0.677334 0.13547,-1.399824 v -0.541867 l -0.0452,-0.04516 q -0.0226,0 -0.0677,-0.04516 l -0.0226,0.04516 -0.0903,-0.112889 q -0.38382,-0.225778 -0.79022,-0.316089 -0.38383,-0.112889 -0.69991,-0.112889 -0.69992,0 -1.21921,0.270934 -0.51929,0.248355 -0.88053,0.677334 -0.33867,0.4064 -0.51929,0.948267 -0.15804,0.51929 -0.15804,1.061157 0,0.835379 0.33866,1.512713 0.63218,0.428978 1.53529,0.428978 z m -3.92853,2.551291 q -1.15147,-0.812801 -1.89654,-2.212624 -0.72249,-1.422402 -0.72249,-3.341515 0,-1.467557 0.51929,-2.641602 0.51929,-1.196624 1.37725,-2.009425 0.85795,-0.835378 1.96426,-1.264357 1.12889,-0.451556 2.32552,-0.4064 1.12889,0.04516 1.8288,0.496712 0.69991,0.428978 1.10631,1.016001 l 0.0452,0.04516 v -1.264357 h 3.83822 v 0.135467 l 0.83538,0.835379 v 10.769611 q 0,1.422401 -0.4064,2.573869 -0.4064,1.151468 -1.2192,1.964269 -0.79022,0.812801 -1.98685,1.241779 -1.19662,0.451556 -2.75449,0.451556 -1.35467,0 -2.59644,-0.383823 -1.21921,-0.361245 -2.00943,-1.151468 l -0.36124,-0.361244 q -0.72249,-0.474134 -1.15147,-1.174046 -0.4064,-0.699912 -0.4064,-1.648179 0,-0.31609 0.0903,-0.812801 0.0903,-0.474134 0.29351,-1.174046 0.45156,0.519289 1.06116,0.92569 0.63218,0.428978 1.30951,0.72249 0.67733,0.316089 1.33209,0.474133 0.67733,0.158045 1.19662,0.135467 l 0.54187,-0.04516 q -1.08373,-0.02258 -2.12231,-0.451556 -1.016,-0.428979 -1.80623,-1.219202 z m 3.95111,5.102583 q 1.46756,0 2.57387,-0.4064 1.12889,-0.406401 1.87396,-1.174046 0.76764,-0.767645 1.15147,-1.851379 0.38382,-1.083735 0.38382,-2.415825 V 30.558872 h -2.93512 v 1.24178 3.567292 q 0,0.790223 -0.15804,1.557868 -0.13547,0.745068 -0.49671,1.354668 -0.33867,0.587023 -0.92569,0.948268 -0.58702,0.361245 -1.49014,0.361245 -1.06115,0 -1.78364,-0.496712 -0.69992,-0.496711 -1.06116,-1.219201 -0.33867,-0.745067 -0.33867,-1.603024 0.0226,-0.857956 0.38383,-1.580446 0.36124,-0.745067 1.06115,-1.241779 0.69991,-0.496712 1.73849,-0.496712 0.31609,0 0.65476,0.04516 0.36124,0.04516 0.67733,0.158045 0.33867,0.112889 0.6096,0.316089 0.29352,0.180622 0.49672,0.451556 0.2032,-0.361245 0.18062,-0.970846 0,-0.6096 -0.31609,-1.174045 -0.29351,-0.587023 -0.94827,-1.016001 -0.65476,-0.451556 -1.73849,-0.496712 -1.10631,-0.04516 -2.14489,0.361245 -1.016,0.4064 -1.8288,1.174046 -0.79023,0.767645 -1.26436,1.873957 -0.47413,1.106312 -0.47413,2.46098 0,1.422402 0.42898,2.551292 0.45155,1.106312 1.17404,1.896535 0.74507,0.790223 1.69334,1.241779 0.97084,0.428978 1.98684,0.451556 1.016,0.04516 2.00943,-0.338667 1.016,-0.383823 1.87395,-1.219201 0,0.632178 -0.13546,1.219201 -0.13547,0.587023 -0.51929,1.038579 -0.36125,0.474134 -1.016,0.767645 -0.65476,0.293512 -1.69334,0.338667 -0.56444,0.02258 -1.24178,-0.112889 -0.65475,-0.135467 -1.30951,-0.383822 -0.63218,-0.225778 -1.2192,-0.564445 -0.56445,-0.338668 -0.92569,-0.745068 -0.33867,1.174046 -0.0226,2.009424 0.31609,0.857957 1.06116,1.399824 0.74507,0.564445 1.78364,0.835379 1.06116,0.270933 2.19005,0.270933 z"
           id="path5177" />
        <path
           d="m 170.99543,32.906964 q 0.0226,-0.361245 0.0903,-0.654756 0.0903,-0.293512 0.2032,-0.541868 -0.11289,-0.4064 -0.24835,-0.903112 -0.13547,-0.496711 -0.24836,-0.993423 -0.0903,-0.496712 -0.15805,-0.948268 -0.0677,-0.451556 -0.0677,-0.790223 0,-0.6096 0.13547,-1.151467 0.15804,-0.541868 0.56444,-0.948268 0.67734,-0.677334 1.64818,-0.677334 0.97085,0 1.6256,0.699912 0.24836,0.248356 0.4064,0.496711 l 0.51929,0.51929 q 0.6096,0.654756 0.6096,1.53529 0,0.948268 -0.65475,1.625602 -0.2032,0.2032 -0.38382,0.293511 l 0.6096,0.609601 v 12.462946 h -3.68019 l -0.83537,-0.835379 h -0.13547 z m 1.91911,-7.157163 q -0.79022,0 -1.33209,0.541867 -0.38382,0.383823 -0.49671,0.970846 -0.0903,0.564445 -0.0677,1.174045 0.0452,0.609601 0.15804,1.174046 0.13547,0.564445 0.24836,0.92569 0.13546,-0.383823 0.47413,-0.541868 0.36125,-0.180622 0.76765,-0.293511 0.42897,-0.135467 0.83538,-0.248356 0.42897,-0.135467 0.74506,-0.451556 0.54187,-0.564445 0.54187,-1.354668 0,-0.790223 -0.56445,-1.33209 -0.54186,-0.564445 -1.30951,-0.564445 z m -1.46755,7.179741 v 9.324631 h 2.91253 V 30.558872 q -0.6096,0 -1.12889,0.135467 -0.49671,0.112889 -0.88053,0.383823 -0.38383,0.270934 -0.63218,0.72249 -0.22578,0.451556 -0.27093,1.12889 z"
           id="path5179" />
        <path
           d="m 181.31344,37.851502 q 0.0903,0.654756 0.4064,1.241779 0.4064,0.270934 0.88054,0.338667 0.38382,0.06773 0.8128,0.04516 0.42898,-0.04516 0.85795,-0.225778 -0.79022,-0.04516 -1.44497,-0.270934 -0.63218,-0.225778 -1.01601,-0.654756 z m 2.88996,-3.905959 q -1.26436,0.06773 -2.12231,1.061156 0.27093,0.09031 0.54187,0.112889 0.27093,0.02258 0.51928,0.02258 0.54187,0 1.08374,-0.06773 0.63218,-0.04516 0.90311,-0.225778 0.27093,-0.203201 0.27093,-0.451556 0,-0.06773 -0.0226,-0.112889 0,-0.06773 -0.0226,-0.135467 -0.24836,-0.112889 -0.54187,-0.158045 -0.29351,-0.06773 -0.6096,-0.04516 z m -4.94454,7.811919 q -1.28693,-0.948268 -1.91911,-2.370669 -0.63218,-1.422402 -0.63218,-2.98027 0,-1.264357 0.47414,-2.506136 0.49671,-1.241779 1.35466,-2.190047 0.97085,-1.016001 2.25778,-1.467557 1.30952,-0.451556 2.64161,-0.451556 1.64818,0 2.82222,0.609601 1.17405,0.609601 1.8288,1.53529 l 0.36125,0.361245 q 0.63218,0.632179 0.94827,1.399824 0.31608,0.767645 0.31608,1.557868 0,1.12889 -0.65475,2.122313 -0.63218,0.970846 -1.98685,1.490135 l 1.85138,0.880534 -0.0677,0.09031 0.85795,0.835378 q -1.10631,1.670757 -2.50613,2.393247 -1.39982,0.72249 -3.11574,0.72249 -1.49013,0 -2.6416,-0.496712 -1.12889,-0.474134 -1.91911,-1.264357 z m 6.2089,-4.018849 q 1.19662,-0.293511 1.89653,-0.948268 0.69992,-0.677334 0.92569,-1.512712 0.24836,-0.835379 0.0452,-1.715913 -0.2032,-0.903112 -0.83538,-1.625602 -0.63218,-0.745067 -1.64818,-1.219201 -1.016,-0.474134 -2.41582,-0.474134 -1.26436,0 -2.48356,0.406401 -1.19663,0.4064 -2.09974,1.377246 -0.83538,0.857956 -1.26435,1.986846 -0.4064,1.106312 -0.42898,2.280358 -0.0226,1.151468 0.33866,2.280358 0.38383,1.106312 1.12889,1.986846 0.76765,0.880534 1.89654,1.422402 1.15147,0.519289 2.66418,0.519289 1.6256,0 2.88996,-0.587023 1.26436,-0.6096 2.19005,-1.986846 l -2.37067,-1.151468 q -0.69992,0.72249 -1.60303,0.993423 -0.90311,0.270934 -1.76107,0.112889 -0.6096,-0.09031 -1.08373,-0.428978 -0.47413,-0.361245 -0.8128,-0.857956 -0.33867,-0.51929 -0.51929,-1.12889 -0.15805,-0.609601 -0.13547,-1.24178 0.0226,-0.767645 0.29351,-1.399823 0.27094,-0.632179 0.72249,-1.106312 0.45156,-0.474134 1.03858,-0.745068 0.58703,-0.270933 1.24178,-0.316089 0.6096,-0.02258 1.10631,0.158045 0.51929,0.180622 0.85796,0.474133 0.36125,0.293512 0.51929,0.654757 0.15804,0.361244 0.0677,0.699911 -0.0903,0.31609 -0.47413,0.564445 -0.36125,0.248356 -1.08374,0.31609 -0.85795,0.09031 -1.78364,0.04515 -0.92569,-0.06773 -1.6256,-0.654756 -0.33867,0.835379 -0.13547,1.512713 0.22578,0.654756 0.85796,1.061156 0.65475,0.383823 1.64818,0.474134 1.016,0.09031 2.2352,-0.225778 z"
           id="path5181" />
        <path
           d="m 192.08301,36.74519 q -0.79022,-0.587023 -1.26435,-1.309513 -0.47414,-0.745067 -0.47414,-1.828801 0,-0.903112 0.36125,-1.625602 0.38382,-0.72249 1.016,-1.219201 0.63218,-0.496712 1.44498,-0.72249 0.8128,-0.248356 1.67075,-0.2032 1.17405,0.06773 1.89654,0.474134 0.72249,0.4064 1.08373,0.993423 l 0.49672,0.474134 q 0.36124,0.361245 0.51929,0.790223 0.18062,0.4064 0.18062,0.835378 0,0.654757 -0.36125,1.196624 -0.33866,0.541867 -0.97084,0.812801 l -0.51929,-0.225778 -0.8128,-0.790223 q -0.31609,-0.158045 -0.65476,-0.180623 -0.33867,-0.02258 -0.54187,0.04516 l -0.18062,0.09031 0.27094,0.112889 q 0.4064,0.180622 0.83537,0.4064 0.45156,0.225778 0.85796,0.496712 0.42898,0.270934 0.8128,0.609601 0.38382,0.338667 0.67734,0.767645 l 0.33866,0.316089 q 0.49671,0.496712 0.8128,1.151468 0.31609,0.654756 0.31609,1.557868 0,0.948268 -0.38382,1.693335 -0.36125,0.745068 -0.99342,1.241779 -0.63218,0.51929 -1.44498,0.790223 -0.8128,0.270934 -1.69334,0.270934 -1.016,0 -2.07716,-0.428978 -1.06115,-0.428978 -1.94169,-1.309513 l -0.27093,-0.248356 q -0.36124,-0.270933 -0.69991,-0.587022 -0.31609,-0.338667 -0.6096,-0.745068 l 2.41582,-2.596447 q 0.72249,0.835379 1.35467,1.196624 0.63218,0.338667 1.08373,0.338667 0.33867,0 0.56445,-0.112889 0.22578,-0.112889 0.22578,-0.293512 v -0.02258 q -0.0677,0 -0.0903,-0.06773 -0.83538,-0.4064 -1.60303,-0.835379 -0.76764,-0.451556 -1.35467,-1.038578 z m 4.53814,-2.596447 q 0.65476,-0.270934 0.92569,-0.880534 0.29351,-0.609601 0.11289,-1.241779 -0.15804,-0.654757 -0.85796,-1.151468 -0.67733,-0.51929 -1.98684,-0.587023 -0.76765,-0.02258 -1.49014,0.180622 -0.72249,0.2032 -1.28693,0.632179 -0.56445,0.428978 -0.90311,1.061156 -0.33867,0.632179 -0.33867,1.44498 0,0.790223 0.31609,1.377245 0.33866,0.587023 0.85795,1.061157 0.54187,0.474134 1.21921,0.857957 0.69991,0.383822 1.4224,0.745067 0.76764,0.383823 1.03858,0.790223 0.27093,0.383823 0.18062,0.72249 -0.0677,0.316089 -0.42898,0.519289 -0.36124,0.180622 -0.90311,0.158045 -0.51929,-0.04516 -1.15147,-0.338667 -0.6096,-0.293512 -1.17405,-0.970846 l -1.80622,1.941691 q 0.63218,0.835379 1.49014,1.33209 0.85795,0.474134 1.76106,0.609601 0.92569,0.135467 1.80623,-0.04516 0.90311,-0.158044 1.60302,-0.6096 0.72249,-0.451556 1.15147,-1.174046 0.42898,-0.745067 0.42898,-1.715913 0,-0.835378 -0.31609,-1.444979 -0.29351,-0.609601 -0.76765,-1.061157 -0.47413,-0.451556 -1.06115,-0.767645 -0.56445,-0.338667 -1.10632,-0.587023 -0.54186,-0.270933 -0.99342,-0.474134 -0.42898,-0.225778 -0.63218,-0.451556 -0.24835,-0.293511 -0.13546,-0.6096 0.13546,-0.338667 0.54186,-0.474134 0.22578,-0.09031 0.56445,-0.06773 0.36124,0 0.72249,0.135466 0.38382,0.135467 0.69991,0.406401 0.31609,0.248356 0.49671,0.677335 z"
           id="path5183" />
      </g>
      <path
         style="fill:#7e36f4;fill-opacity:1;fillRule:nonzero;stroke:#000000;stroke-width:0.0565665;stroke-opacity:1"
         d="m 178.21279,228.23503 c -2.26895,-0.1503 -5.0379,-0.77556 -7.21223,-1.62862 -6.27444,-2.46167 -11.52676,-8.31458 -13.45757,-14.99642 -0.65605,-2.27033 -0.93259,-4.20715 -0.9321,-6.5281 4.7e-4,-2.21385 0.21585,-3.86591 0.78802,-6.04456 0.73233,-2.78848 2.13548,-4.65215 4.59033,-6.0969 1.80736,-1.06369 3.86708,-1.61077 6.09815,-1.61974 1.98823,-0.008 3.49061,0.32725 5.2714,1.17623 1.31026,0.62466 2.26915,1.38403 3.18423,2.52167 0.51297,0.63772 0.83609,1.1686 1.07608,1.76796 0.18579,0.46397 0.4239,1.32423 0.48369,1.74748 l 0.0379,0.2684 -0.32461,-0.19547 c -0.40495,-0.24384 -0.95384,-0.45567 -1.50146,-0.57943 -0.6124,-0.13841 -2.22937,-0.13508 -2.88171,0.006 -2.62368,0.56714 -4.77609,2.46408 -5.45527,4.80781 -0.53479,1.84546 -0.37913,4.90487 0.36483,7.17048 0.82389,2.50904 2.70917,4.87972 5.04411,6.34283 1.19411,0.74824 2.96691,1.33645 4.74135,1.57316 0.79611,0.1062 2.54528,0.0902 3.36571,-0.0307 3.0854,-0.45488 5.7995,-2.00772 7.72075,-4.41732 1.61946,-2.0311 2.40539,-4.2352 2.60735,-7.31218 0.17266,-2.63058 -0.28855,-5.1858 -1.30681,-7.24005 -0.82593,-1.66625 -1.83288,-2.90771 -3.33635,-4.11341 -1.61813,-1.29763 -3.55815,-2.08821 -5.83568,-2.37809 -0.92958,-0.11832 -2.58289,-0.0885 -3.54429,0.0639 l -0.64043,0.10155 -0.31044,-0.34851 c -0.40152,-0.45076 -1.30194,-1.17355 -1.89856,-1.52403 -2.08044,-1.22216 -4.33308,-1.82691 -6.79399,-1.82394 -1.91571,0.002 -3.84703,0.41772 -5.40783,1.16317 -0.35475,0.16943 -0.65496,0.2981 -0.66713,0.28593 -0.0373,-0.0373 1.00349,-1.1598 1.69487,-1.82779 1.74518,-1.68612 3.54725,-2.96592 5.75472,-4.08691 2.13698,-1.08519 3.80437,-1.65874 5.99605,-2.06255 2.72552,-0.50217 5.92738,-0.48089 8.73953,0.0581 2.9936,0.57374 5.5761,1.64837 8.2132,3.41767 1.48417,0.99577 2.70878,2.01599 3.9774,3.31358 3.59547,3.67756 5.77371,8.243 6.36152,13.33329 0.53873,4.66519 -0.18487,8.79535 -2.271,12.9624 -1.81521,3.62589 -4.3705,6.56661 -7.56988,8.71167 -3.54722,2.37828 -7.38496,3.70417 -11.70334,4.04335 -0.67072,0.0527 -2.38576,0.0629 -3.06052,0.0182 z"
         id="path8328"
         transform="scale(0.26458333)" />
      <path
         style="fill:#7e36f4;fill-opacity:1;fillRule:nonzero;stroke:#000000;stroke-width:0.0565665;stroke-opacity:1"
         d="m 109.86763,201.05152 0.0167,-26.14787 0.12437,-0.56258 c 0.35117,-1.58845 0.92859,-2.72676 1.90504,-3.75554 1.82542,-1.92323 4.36757,-2.94671 7.56877,-3.04719 l 1.06047,-0.0333 0.0143,10.7984 0.0143,10.7984 0.21224,-0.37709 c 0.80062,-1.42244 2.24454,-2.70204 4.09286,-3.62709 2.12525,-1.06365 4.34123,-1.72388 6.69708,-1.99535 1.64485,-0.18954 3.83712,-0.0439 5.51555,0.36641 2.73255,0.66801 4.69825,1.7563 6.69427,3.70625 1.12768,1.10163 1.80066,2.01684 2.46487,3.352 0.90219,1.81353 1.40483,3.7804 1.6134,6.31342 0.0398,0.48352 0.0596,5.65008 0.0596,15.54165 v 14.81734 h -5.28706 -5.28706 l 0.0341,-8.89508 c 0.0333,-8.68722 0.004,-11.49908 -0.15209,-14.46689 -0.2166,-4.12596 -0.46039,-5.69518 -1.1043,-7.10815 -0.86831,-1.90538 -2.67515,-3.34009 -4.69254,-3.72608 -1.36686,-0.26152 -3.1194,-0.0919 -4.31719,0.41778 -1.78496,0.75956 -2.89903,2.38909 -3.04407,4.45249 -0.0206,0.29347 -0.051,0.53358 -0.0674,0.53358 -0.0165,0 -0.23545,-0.10079 -0.48661,-0.22396 -1.09699,-0.538 -2.09395,-1.54998 -2.67716,-2.7175 l -0.26843,-0.53738 -0.0142,16.13559 -0.0142,16.1356 h -5.34604 -5.34603 z"
         id="path8332"
         transform="scale(0.26458333)" />
      <path
         style="fill:#7e36f4;fill-opacity:1;fillRule:nonzero;stroke:#000000;stroke-width:0.0565665;stroke-opacity:1"
         d="m 55.789281,201.64547 c 0.01527,-24.51153 0.02017,-25.5793 0.120037,-26.17615 0.323518,-1.9335 0.931033,-3.55807 1.806663,-4.83126 1.106147,-1.60837 2.67841,-2.52116 5.10113,-2.96152 0.673093,-0.12234 0.745587,-0.12354 8.626392,-0.14241 8.262095,-0.0198 8.868742,-0.007 10.436522,0.21923 3.416902,0.49312 6.030065,1.59097 8.682959,3.64789 0.786304,0.60966 2.246617,2.05026 2.855395,2.81684 2.280664,2.87187 3.641479,6.36131 4.017531,10.30187 0.571437,5.98797 -0.767217,11.66161 -3.83711,16.26287 -2.283939,3.42325 -4.909622,5.69957 -8.257151,7.15849 -0.379426,0.16536 -0.683816,0.32689 -0.676422,0.35895 0.0074,0.032 3.330239,4.26565 7.3841,9.40799 4.053861,5.14235 7.390273,9.38153 7.41425,9.42042 0.03478,0.0564 -1.35051,0.0707 -6.854612,0.0707 H 85.71076 l -2.285627,-2.89903 c -1.257095,-1.59447 -5.039361,-6.391 -8.405035,-10.65896 -3.365676,-4.26795 -6.237216,-7.94203 -6.381202,-8.16461 -0.95271,-1.47273 -1.365477,-3.25605 -1.152277,-4.97828 0.185773,-1.50066 0.739716,-3.14138 1.428073,-4.22979 l 0.189674,-0.29991 0.207316,0.31224 c 0.478904,0.72129 1.503741,1.25382 3.222962,1.67475 2.162955,0.52958 5.408555,0.56712 7.082816,0.0819 1.03519,-0.29998 1.862401,-0.74235 2.711487,-1.45 2.014709,-1.67912 3.24989,-4.06361 3.687276,-7.11821 0.174633,-1.21959 0.09262,-3.12517 -0.181381,-4.21421 -0.278548,-1.10712 -0.860553,-2.40644 -1.438945,-3.21243 -0.89013,-1.24039 -2.549562,-2.44314 -4.099735,-2.97147 -0.595101,-0.20282 -1.416689,-0.37519 -2.189723,-0.45939 -0.346124,-0.0377 -2.495908,-0.0598 -5.812209,-0.0598 h -5.262914 v 24.3236 24.3236 h -5.628979 -5.628979 z"
         id="path8334"
         transform="scale(0.26458333)" />
      <path
         style="fill:#7e36f4;fill-opacity:1;fillRule:nonzero;stroke:#000000;stroke-width:0.0565665;stroke-opacity:1"
         d="m 246.23402,202.96064 v -24.23875 h -6.61828 -6.61828 v -5.60008 -5.60009 h 20.40099 20.401 l -0.0354,0.86264 c -0.12353,3.01368 -1.23037,5.75639 -3.10093,7.68401 -1.24019,1.27802 -2.89399,2.17105 -4.66629,2.51975 -0.44107,0.0868 -0.9771,0.10127 -4.41918,0.11944 l -3.91723,0.0207 v 24.23557 24.23557 h -5.71322 -5.71322 z"
         id="path8336"
         transform="scale(0.26458333)" />
      <path
         style="fill:#7e36f4;fill-opacity:1;fillRule:nonzero;stroke:#000000;stroke-width:0.0565665;stroke-opacity:1"
         d="m 294.85294,228.06938 c -3.03791,-0.23353 -5.35999,-0.74206 -7.62329,-1.66952 -1.59528,-0.65371 -3.61272,-1.87942 -5.18732,-3.15159 -0.68592,-0.55418 -1.98383,-1.81374 -2.54436,-2.46918 -1.59862,-1.86931 -2.92343,-4.06989 -3.85831,-6.40886 -0.74769,-1.87062 -1.27078,-4.03275 -1.55605,-6.43174 -0.14258,-1.19896 -0.14212,-4.33195 8e-4,-5.54351 0.54731,-4.63951 2.012,-8.47113 4.49528,-11.7596 1.74181,-2.30658 4.01682,-4.37515 6.25303,-5.68559 2.704,-1.58458 6.20984,-2.60439 10.35962,-3.0135 1.10029,-0.10848 4.0831,-0.0915 5.17583,0.0295 3.26187,0.36108 5.71774,1.14864 8.2229,2.63695 1.3655,0.81124 2.24787,1.4843 3.33734,2.54568 2.58533,2.5187 3.99,5.24886 4.4538,8.65659 0.10463,0.76879 0.0905,2.37188 -0.0282,3.19318 -0.27136,1.87785 -0.96349,3.73302 -1.93577,5.18859 -2.28456,3.42014 -5.46383,5.2537 -11.01355,6.35177 -1.9021,0.37635 -2.68176,0.45065 -4.7335,0.45109 -1.45565,3.4e-4 -1.98563,-0.0204 -2.54549,-0.0996 -3.21389,-0.45472 -5.365,-1.34982 -6.88856,-2.86642 -1.77222,-1.7641 -2.4252,-3.93513 -1.93109,-6.4205 0.11421,-0.57448 0.37165,-1.47264 0.53232,-1.85719 l 0.0884,-0.21161 0.32364,0.24883 c 1.48134,1.13897 3.12276,1.82842 5.02992,2.11275 0.55683,0.083 1.06624,0.0995 3.07161,0.0991 2.35619,-3.9e-4 3.06642,-0.0344 4.7492,-0.22721 2.32599,-0.26652 3.80538,-0.88633 4.85836,-2.03548 0.60572,-0.66103 0.85797,-1.30907 0.85626,-2.19973 -0.002,-0.91618 -0.2553,-1.71912 -0.80792,-2.55857 -0.54662,-0.83032 -1.25521,-1.53216 -2.23581,-2.21452 -0.58751,-0.40882 -1.86968,-1.0279 -2.69678,-1.30211 -2.83221,-0.93894 -6.04408,-0.65829 -8.99408,0.78591 -2.58976,1.26784 -4.57424,3.23944 -5.94247,5.90391 -0.49434,0.96267 -0.74556,1.5865 -1.01599,2.5229 -0.81703,2.82908 -0.74675,6.52048 0.17454,9.16729 0.91879,2.63961 2.32635,4.73732 4.27858,6.37644 1.38838,1.1657 2.74915,1.7512 4.90942,2.11234 1.03416,0.1729 3.12436,0.18648 4.15764,0.027 3.08649,-0.47631 5.72653,-1.75022 7.79274,-3.76027 l 0.49566,-0.48219 0.26799,0.1267 c 2.1122,0.9986 8.60906,4.17799 8.61012,4.21356 0.002,0.0581 -0.74795,1.10504 -1.18101,1.64936 -2.15143,2.70423 -4.6839,4.74841 -7.36977,5.9488 -2.20832,0.98696 -4.6434,1.61212 -7.4844,1.92148 -0.7502,0.0817 -4.23403,0.15164 -4.92129,0.0988 z"
         id="path8338"
         transform="scale(0.26458333)" />
      <path
         style="fill:#7e36f4;fill-opacity:1;fillRule:nonzero;stroke:#000000;stroke-width:0.0565665;stroke-opacity:1"
         d="m 345.73452,227.84455 c -4.5796,-0.2545 -7.917,-1.17297 -10.97391,-3.02009 -5.77369,-3.48871 -9.39947,-8.84253 -10.51632,-15.52837 -0.27295,-1.63394 -0.31573,-2.22663 -0.31437,-4.35562 0.001,-1.80411 0.0162,-2.14609 0.13145,-2.99803 0.46483,-3.43456 1.59138,-6.52821 3.48116,-9.5597 1.64419,-2.63754 3.63853,-4.69241 6.19989,-6.38807 2.62,-1.7345 5.29344,-2.84096 8.34356,-3.45317 2.97854,-0.59785 5.47451,-0.6912 8.25871,-0.30886 4.39954,0.60415 7.26384,1.8761 9.71151,4.31259 1.64007,1.63259 2.56106,3.26268 2.99449,5.30009 0.18048,0.84839 0.18238,2.27048 0.004,3.09353 -0.39059,1.80359 -1.21281,3.18174 -2.36277,3.96033 -0.31581,0.21382 -0.66474,0.41292 -0.72364,0.41292 -0.0146,0 -0.0826,-0.17182 -0.15112,-0.38182 -0.1708,-0.52324 -0.61542,-1.40513 -0.97182,-1.92757 -0.35858,-0.52564 -1.37637,-1.55943 -1.99564,-2.027 -1.6728,-1.26304 -3.85152,-2.16196 -6.20787,-2.56131 -1.50645,-0.25531 -3.82927,-0.29538 -5.23573,-0.0903 -2.48298,0.36202 -4.54782,1.22797 -6.41175,2.68897 -0.6788,0.53206 -1.77473,1.65116 -2.29321,2.34169 -2.20817,2.94095 -3.01875,7.21025 -2.13297,11.23427 0.21036,0.95566 0.54426,1.90499 0.98483,2.80004 0.6252,1.27013 1.19066,2.05607 2.18731,3.0402 1.90076,1.87688 4.05204,2.94566 6.74961,3.3533 0.83481,0.12615 2.84989,0.1722 3.79186,0.0867 3.76248,-0.34171 6.66388,-1.81268 8.93245,-4.5286 0.16892,-0.20223 0.33419,-0.3652 0.36726,-0.36215 0.0416,0.004 7.67997,5.51372 8.00158,5.77188 0.0122,0.01 -0.16056,0.2608 -0.38384,0.55785 -3.75073,4.99002 -8.92115,7.79742 -15.5196,8.42676 -0.88008,0.0839 -3.23158,0.14927 -3.94524,0.10961 z"
         id="path8340"
         transform="scale(0.26458333)" />
      <path
         style="fill:#7e36f4;fill-opacity:1;fillRule:nonzero;stroke:#000000;stroke-width:0.0565665;stroke-opacity:1"
         d="m 374.20318,201.16465 0.0177,-26.03473 0.12137,-0.62292 c 0.44918,-2.30526 1.50831,-3.89196 3.49091,-5.2298 0.8572,-0.57844 1.91477,-1.03918 3.05742,-1.332 1.06045,-0.27175 1.78242,-0.37021 2.98389,-0.40693 l 1.06062,-0.0324 2.8e-4,10.79799 2.8e-4,10.798 0.26841,-0.46776 c 0.8981,-1.56517 2.5,-2.87519 4.71821,-3.85854 1.91021,-0.8468 3.44142,-1.30411 5.33441,-1.59316 0.96359,-0.14714 2.82095,-0.20044 3.79868,-0.10902 2.62243,0.24519 5.01742,1.05165 6.92246,2.33098 4.0112,2.69372 5.93155,6.34278 6.27717,11.92792 0.0367,0.59311 0.0578,6.20707 0.058,15.40024 l 2.7e-4,14.46688 h -5.32467 -5.32467 l 0.0355,-2.67277 c 0.21473,-16.17201 -0.0139,-23.99883 -0.77778,-26.62868 -0.81809,-2.81638 -2.96598,-4.68353 -5.73085,-4.98179 -1.80692,-0.19492 -3.71751,0.2786 -4.8996,1.21431 -1.12965,0.8942 -1.694,2.0791 -1.88085,3.949 l -0.0323,0.32295 -0.29319,-0.11532 c -0.16126,-0.0634 -0.49683,-0.25075 -0.74573,-0.41627 -0.93545,-0.62212 -1.63773,-1.41179 -2.13538,-2.4011 l -0.26869,-0.53415 v 16.13191 16.13191 h -5.37483 -5.37483 z"
         id="path8342"
         transform="scale(0.26458333)" />
      <path
         style="fill:#7e36f4;fill-opacity:1;fillRule:nonzero;stroke:#000000;stroke-width:0.0565665;stroke-opacity:1"
         d="m 422.6084,205.11017 v -22.08922 h 5.4581 5.4581 l 0.0147,2.58791 0.0147,2.58792 0.16185,-0.31111 c 0.74393,-1.43002 1.8326,-2.46964 3.72629,-3.55838 2.27387,-1.30733 5.27785,-2.1964 8.07916,-2.39116 2.07459,-0.14423 4.26353,0.17322 6.49572,0.94203 2.24639,0.77371 4.1013,1.95723 5.78125,3.68869 1.97608,2.03668 3.21054,4.88504 3.64182,8.40304 0.18204,1.48491 0.19702,2.80668 0.1981,17.47978 l 10e-4,14.74972 h -5.4237 -5.4237 l 0.007,-10.33753 c 0.005,-7.59657 -0.0117,-10.76498 -0.0646,-11.94967 -0.19128,-4.2788 -0.38973,-6.38102 -0.71953,-7.62223 -0.46553,-1.752 -1.41804,-3.12548 -2.80246,-4.041 -1.37417,-0.90875 -2.73565,-1.29085 -4.31955,-1.21227 -1.75449,0.087 -3.00874,0.56447 -4.04573,1.53999 -1.03504,0.9737 -1.5718,2.11925 -1.68689,3.60016 l -0.0429,0.55165 -0.35211,-0.16675 c -1.13284,-0.53647 -2.26888,-1.72359 -3.00413,-3.1392 l -0.20745,-0.39941 -0.0142,16.58813 -0.0142,16.58813 h -5.45857 -5.45858 z"
         id="path8344"
         transform="scale(0.26458333)" />
      <path
         style="fill:#7e36f4;fill-opacity:1;fillRule:nonzero;stroke:#000000;stroke-width:0.0565665;stroke-opacity:1"
         d="m 491.84581,228.23419 c -0.64759,-0.0396 -2.20957,-0.25746 -3.01844,-0.42096 -2.19471,-0.44361 -4.52119,-1.25162 -6.19926,-2.15307 -5.78222,-3.10617 -10.08614,-8.64507 -11.65523,-14.99961 -0.52648,-2.13213 -0.70526,-3.77168 -0.66075,-6.05948 0.0405,-2.08469 0.2119,-3.36014 0.72194,-5.37382 0.23788,-0.93914 0.40788,-1.42154 0.76723,-2.17713 0.94771,-1.99268 2.49887,-3.48579 4.73055,-4.55349 2.78691,-1.33333 6.07796,-1.55821 8.99644,-0.61473 0.89091,0.28801 1.96958,0.79041 2.62057,1.22057 1.55846,1.02978 2.80888,2.58164 3.32316,4.12426 0.2109,0.63259 0.37891,1.51971 0.28782,1.51971 -0.0162,0 -0.12767,-0.062 -0.24777,-0.13785 -0.62568,-0.39497 -1.53194,-0.64024 -2.5552,-0.69152 -2.05433,-0.10296 -3.98902,0.61011 -5.43494,2.00316 -1.1748,1.13183 -1.77964,2.23985 -2.06287,3.77898 -0.13679,0.74334 -0.13635,2.66457 8.6e-4,3.73019 0.30632,2.37911 0.98746,4.10224 2.32548,5.88291 0.88562,1.17863 1.85875,2.10332 3.01657,2.86643 1.29973,0.85664 3.05183,1.48126 4.83756,1.72458 0.83085,0.11321 2.54725,0.12611 3.31744,0.0249 2.62349,-0.34462 4.97939,-1.46104 6.8105,-3.22736 2.13798,-2.06234 3.27791,-4.40309 3.66513,-7.52605 0.11499,-0.92741 0.0976,-3.36653 -0.0304,-4.27077 -0.34758,-2.45471 -1.29244,-4.63956 -2.76583,-6.39561 -0.50869,-0.60628 -0.9883,-1.06352 -1.76487,-1.68254 -1.55867,-1.24246 -3.12236,-1.92026 -5.37712,-2.3308 -0.79075,-0.14397 -2.49185,-0.17361 -3.45055,-0.0601 -0.43557,0.0516 -0.87973,0.11258 -0.98704,0.13559 -0.18825,0.0404 -0.21013,0.0261 -0.62223,-0.40582 -0.78082,-0.81833 -1.58903,-1.38171 -2.85949,-1.99326 -1.32027,-0.63552 -2.39156,-0.94635 -3.98794,-1.15708 -2.45047,-0.32346 -5.19752,0.0931 -7.26879,1.1021 -0.34223,0.16672 -0.62732,0.2985 -0.63354,0.29285 -0.006,-0.006 0.32652,-0.37852 0.73943,-0.82861 2.00305,-2.18341 4.32391,-3.92564 7.00782,-5.26065 3.34565,-1.66415 6.78076,-2.41067 10.56332,-2.29561 3.58771,0.10914 6.65073,0.84105 9.50887,2.27213 2.56403,1.28383 5.245,3.29363 7.0741,5.30314 4.04676,4.44589 6.09258,9.78212 6.09933,15.90918 0.005,4.97043 -1.83554,10.02055 -5.19552,14.25193 -0.71469,0.90004 -2.39512,2.57353 -3.34515,3.33135 -2.28239,1.8206 -5.13475,3.31907 -7.91931,4.16035 -1.53848,0.46481 -3.51912,0.82737 -5.25785,0.96245 -0.70009,0.0544 -2.37019,0.0647 -3.114,0.0191 z"
         id="path8346"
         transform="scale(0.26458333)" />
      <path
         style="fill:#7e36f4;fill-opacity:1;fillRule:nonzero;stroke:#000000;stroke-width:0.0565665;stroke-opacity:1"
         d="m 525.34731,201.10809 c 0.0145,-24.73319 0.0205,-26.1171 0.11576,-26.58693 0.26407,-1.30312 0.75372,-2.4494 1.42449,-3.33479 1.73003,-2.28358 4.90139,-3.66465 8.41513,-3.66465 h 0.72157 v 29.83884 29.83883 h -5.34614 -5.34613 z"
         id="path8348"
         transform="scale(0.26458333)" />
      <path
         style="fill:#7e36f4;fill-opacity:1;fillRule:nonzero;stroke:#000000;stroke-width:0.0565665;stroke-opacity:1"
         d="m 566.28734,228.23902 c -4.37237,-0.39488 -7.95509,-1.59005 -11.1436,-3.71742 -2.9075,-1.93988 -5.57542,-4.78618 -7.32149,-7.811 -1.39267,-2.41261 -2.32257,-5.00472 -2.80195,-7.81047 -0.25514,-1.49329 -0.31345,-2.22928 -0.30923,-3.90309 0.004,-1.64484 0.0785,-2.50811 0.34369,-3.98794 0.71052,-3.96548 1.92199,-6.03521 4.54546,-7.76571 3.21537,-2.12091 7.61544,-2.53794 11.16646,-1.05834 1.70127,0.70887 2.73687,1.45543 3.79803,2.73794 0.8877,1.07289 1.44595,2.306 1.6339,3.60908 l 0.0384,0.26645 -0.32137,-0.19352 c -0.40189,-0.24201 -0.95193,-0.45401 -1.49821,-0.57747 -0.6124,-0.13841 -2.22937,-0.13508 -2.8817,0.006 -1.42656,0.30837 -2.71593,0.99278 -3.68203,1.95446 -1.17741,1.17202 -1.77758,2.34022 -2.00679,3.90607 -0.11791,0.80555 -0.0848,2.91186 0.0605,3.84652 0.30826,1.98305 0.88982,3.53564 1.8655,4.98031 2.06592,3.05896 4.79218,4.73811 8.45782,5.2093 0.78232,0.10056 2.60822,0.0835 3.3657,-0.0315 1.86717,-0.28343 3.50485,-0.91819 5.06271,-1.96229 2.21178,-1.48238 3.91413,-3.7709 4.6688,-6.27644 0.73864,-2.45231 0.81616,-5.70657 0.19636,-8.24333 -0.50393,-2.06249 -1.5224,-3.93444 -2.94123,-5.40595 -1.80943,-1.87663 -3.68811,-2.90978 -6.23207,-3.42724 -1.2865,-0.26168 -3.09931,-0.29587 -4.44362,-0.0838 l -0.63447,0.10009 -0.41202,-0.42231 c -0.81351,-0.83384 -1.46481,-1.29689 -2.67467,-1.9016 -1.82412,-0.91173 -3.37393,-1.29046 -5.54445,-1.35493 -2.07631,-0.0617 -4.12053,0.34265 -5.79162,1.14552 -0.35475,0.17043 -0.65595,0.29892 -0.66934,0.28554 -0.043,-0.043 0.84819,-0.99974 1.69937,-1.82444 2.4486,-2.37244 5.49421,-4.26083 8.59584,-5.32972 3.05405,-1.05251 6.402,-1.41018 9.86188,-1.05359 3.56698,0.36763 6.68464,1.44138 9.63886,3.31971 1.7158,1.09093 2.95203,2.08346 4.38492,3.52053 1.476,1.48031 2.49594,2.77811 3.47098,4.41655 1.70081,2.85803 2.65987,5.69127 3.09236,9.13549 0.12041,0.95891 0.17327,3.84613 0.0877,4.79145 -0.25561,2.82446 -1.04356,5.49387 -2.43438,8.24713 -1.16122,2.29875 -2.48809,4.14594 -4.24635,5.91149 -3.20592,3.21923 -7.61553,5.52206 -12.18134,6.36148 -1.5472,0.28445 -2.51515,0.37784 -4.10982,0.39651 -0.82445,0.01 -1.61356,0.007 -1.75356,-0.005 z"
         id="path8354"
         transform="scale(0.26458333)" />
      <path
         style="fill:#7e36f4;fill-opacity:1;fillRule:nonzero;stroke:#000000;stroke-width:0.0565665;stroke-opacity:1"
         d="m 619.65785,244.30122 c -5.91811,-0.28652 -10.59718,-1.79582 -13.9749,-4.50782 -1.98921,-1.59715 -3.44573,-3.92918 -3.93536,-6.3009 -0.14692,-0.71167 -0.20531,-2.4594 -0.11022,-3.29954 0.0727,-0.6422 0.3438,-2.05679 0.48313,-2.52082 l 0.0874,-0.29089 0.4949,0.48888 c 1.72867,1.70762 4.20004,3.14233 7.55168,4.38398 4.6944,1.73909 8.18092,2.22282 12.09032,1.67747 3.56789,-0.49772 6.07363,-1.75446 7.82927,-3.92672 1.33394,-1.65048 1.93444,-3.11281 2.2994,-5.59941 0.11788,-0.80321 0.26516,-2.95254 0.20635,-3.01136 -0.0203,-0.0203 -0.26679,0.182 -0.54784,0.44945 -2.52828,2.40599 -5.93369,4.22002 -9.36222,4.98717 -1.53563,0.34361 -2.04959,0.39348 -4.0735,0.3953 -1.49564,0.001 -2.01848,-0.0188 -2.63034,-0.10136 -2.37064,-0.31984 -4.66316,-1.04299 -6.53214,-2.06049 -3.27117,-1.78088 -5.9678,-4.33321 -7.9085,-7.4853 -2.05317,-3.33478 -3.07905,-6.51449 -3.46929,-10.75296 -0.12424,-1.3494 -0.12426,-4.01101 -3e-5,-5.25114 0.30157,-3.01054 1.0126,-5.52254 2.27973,-8.05404 1.73528,-3.4668 3.99381,-6.05646 7.06041,-8.09556 2.18432,-1.45245 4.28704,-2.38963 6.64656,-2.96236 3.43586,-0.83398 7.26118,-0.71766 9.98399,0.30361 1.82421,0.68422 3.63663,2.03992 4.7996,3.59013 0.67498,0.89973 1.35769,2.26825 1.66586,3.33925 0.51427,1.78732 0.42822,4.44341 -0.18304,5.64968 l -0.14903,0.29409 -0.31287,-0.36651 c -0.37012,-0.43357 -0.85032,-0.83181 -1.66288,-1.37906 -1.68569,-1.1353 -3.45645,-1.65576 -6.23611,-1.8329 -2.79737,-0.17828 -5.19972,0.34378 -7.14187,1.552 -1.08373,0.67419 -2.39324,1.87269 -3.19057,2.92011 -1.30119,1.70931 -2.23587,3.99232 -2.58511,6.31431 -0.12404,0.82466 -0.14296,2.84356 -0.0339,3.62026 0.43154,3.07416 1.42469,5.23571 3.30145,7.1855 2.33981,2.43084 4.962,3.48998 8.64562,3.49209 3.20301,0.002 5.38798,-0.78716 7.35234,-2.65494 0.9433,-0.89692 1.501,-1.65873 2.1842,-2.98356 0.89724,-1.7399 1.38398,-3.36622 1.77147,-5.919 0.31716,-2.08935 0.30711,-1.70702 0.32934,-12.5405 l 0.0206,-10.02641 h 5.51263 5.51263 l -5.7e-4,20.06697 c -3.4e-4,12.81124 -0.0212,20.41467 -0.0576,21.0286 -0.32237,5.4339 -1.95739,9.90165 -4.86475,13.29313 -0.59336,0.69216 -1.85695,1.91037 -2.49802,2.40831 -2.99915,2.32955 -6.83905,3.79771 -11.22198,4.29068 -1.73539,0.19519 -3.83393,0.26967 -5.42615,0.19258 z"
         id="path8356"
         transform="scale(0.26458333)" />
      <path
         style="fill:#7e36f4;fill-opacity:1;fillRule:nonzero;stroke:#000000;stroke-width:0.0565665;stroke-opacity:1"
         d="m 655.719,209.56444 c 0,-19.22515 -0.0154,-18.26614 0.31682,-19.74736 0.26634,-1.18751 0.6155,-2.01859 1.21547,-2.89304 1.58796,-2.31445 4.20881,-3.54756 8.16886,-3.84346 0.43556,-0.0325 0.90012,-0.0593 1.03234,-0.0594 l 0.24041,-2.3e-4 v 22.08922 22.08922 h -5.48695 -5.48695 z"
         id="path8358"
         transform="scale(0.26458333)" />
      <path
         style="fill:#7e36f4;fill-opacity:1;fillRule:nonzero;stroke:#000000;stroke-width:0.0565665;stroke-opacity:1"
         d="m 698.22873,228.06938 c -4.45151,-0.34219 -7.52179,-1.28826 -10.6902,-3.29406 -1.89656,-1.20064 -3.84217,-2.92649 -5.14275,-4.56189 -0.53524,-0.67304 -1.614,-2.26908 -2.02635,-2.99803 -0.6626,-1.17134 -1.36013,-2.73197 -1.77181,-3.96417 -0.50623,-1.51521 -0.97625,-3.74213 -1.16909,-5.539 -0.11337,-1.05641 -0.095,-4.31844 0.03,-5.34554 0.5877,-4.82595 2.13277,-8.75787 4.73458,-12.04866 2.39672,-3.03139 5.24697,-5.25764 8.36387,-6.53281 2.10775,-0.8623 5.00708,-1.54738 7.69999,-1.81941 1.35892,-0.13728 4.24733,-0.13771 5.48695,-8.3e-4 3.27676,0.36184 5.74102,1.16247 8.34356,2.7108 1.7173,1.02167 3.40943,2.48444 4.62932,4.00182 1.82896,2.27498 2.88064,4.93602 3.0957,7.83294 0.21136,2.84708 -0.69647,5.92808 -2.43316,8.25771 -2.04945,2.74917 -4.71069,4.353 -8.96868,5.40507 -2.3074,0.57011 -3.83073,0.78509 -5.88697,0.83078 -1.62704,0.0361 -2.4724,-0.0176 -3.81372,-0.24248 -2.98688,-0.50077 -5.15329,-1.55952 -6.52907,-3.19081 -1.51647,-1.79812 -1.97086,-3.70714 -1.46758,-6.16575 0.088,-0.42977 0.35147,-1.30181 0.50276,-1.66391 l 0.0827,-0.19792 0.43865,0.32967 c 1.2668,0.95209 2.78694,1.62549 4.35062,1.92725 0.92563,0.17863 2.32466,0.2454 4.37502,0.20882 3.34036,-0.0596 5.38388,-0.32409 6.83057,-0.88409 0.98143,-0.37989 2.15341,-1.33474 2.54392,-2.07259 0.73189,-1.38287 0.3248,-3.2986 -1.02533,-4.8251 -1.08261,-1.22405 -2.58109,-2.17534 -4.36122,-2.76867 -3.83831,-1.27932 -8.44148,-0.25623 -11.78021,2.61826 -2.16459,1.86361 -3.7802,4.60762 -4.39959,7.47243 -0.24351,1.12628 -0.326,1.98662 -0.32784,3.41954 -0.002,1.93567 0.2096,3.35219 0.72901,4.86858 0.8406,2.45413 2.19026,4.54087 3.93392,6.08233 0.7172,0.63403 1.06202,0.88932 1.66971,1.23618 0.96933,0.55328 2.09774,0.92163 3.585,1.17026 1.03416,0.1729 3.12436,0.18648 4.15764,0.027 3.08355,-0.47585 5.68965,-1.73339 7.79258,-3.76022 l 0.49551,-0.47757 0.38127,0.17692 c 1.36812,0.63485 8.49491,4.11901 8.49655,4.15381 10e-4,0.0235 -0.18253,0.30073 -0.40809,0.61602 -1.8276,2.55462 -3.96134,4.5922 -6.28266,5.99952 -0.9009,0.54617 -1.3769,0.78962 -2.30348,1.17807 -2.04,0.85523 -4.45824,1.45222 -6.9927,1.72628 -0.79586,0.0861 -4.25753,0.15811 -4.96894,0.10342 z"
         id="path8360"
         transform="scale(0.26458333)" />
      <path
         style="fill:#7e36f4;fill-opacity:1;fillRule:nonzero;stroke:#000000;stroke-width:0.0565665;stroke-opacity:1"
         d="m 740.54048,227.90396 c -2.5269,-0.26158 -4.92264,-0.98664 -7.21223,-2.18274 -1.66256,-0.86853 -3.53609,-2.3344 -4.85454,-3.79825 -0.6652,-0.73856 -1.20502,-1.40678 -1.18429,-1.46599 0.008,-0.0228 1.52806,-1.66894 3.37797,-3.65817 l 3.36347,-3.61679 0.22234,0.26313 c 0.12229,0.14472 0.57179,0.60938 0.99889,1.03259 1.55236,1.53819 2.92106,2.37019 5.0678,3.0806 1.13149,0.37444 1.72033,0.4842 2.77814,0.51785 0.9921,0.0316 1.71948,-0.0516 2.4088,-0.27555 1.17868,-0.38286 2.01246,-1.11943 2.32066,-2.05007 0.155,-0.46806 0.1622,-1.29704 0.015,-1.73118 -0.44314,-1.30726 -1.48573,-2.44032 -3.22926,-3.50946 -0.21778,-0.13355 -1.21053,-0.66148 -2.2061,-1.17318 -3.88321,-1.9959 -5.44778,-2.87564 -6.80298,-3.82524 -2.21426,-1.55154 -3.77619,-3.09318 -5.02016,-4.95495 -1.26066,-1.88675 -1.79525,-3.91558 -1.70661,-6.47686 0.10843,-3.13307 1.22017,-5.69241 3.42844,-7.89263 2.24045,-2.23229 5.08428,-3.53259 8.85685,-4.04968 1.01424,-0.13902 3.37179,-0.14025 4.41219,-0.002 2.66601,0.35347 4.51235,1.02322 6.0809,2.20582 1.60754,1.21201 2.58717,2.5157 3.02459,4.02514 0.52453,1.81005 0.38878,3.30004 -0.45953,5.04384 -0.61539,1.26501 -1.61372,2.25685 -2.94343,2.9243 l -0.40666,0.20412 -0.19878,-0.40908 c -0.3338,-0.68694 -0.64925,-1.11793 -1.27433,-1.74106 -1.10524,-1.10181 -2.45854,-1.85057 -4.03523,-2.23262 -0.7661,-0.18563 -2.13791,-0.28005 -2.86768,-0.19738 -1.38713,0.15713 -2.50937,0.83359 -2.98682,1.80036 -0.2024,0.40983 -0.21191,0.45466 -0.21191,0.99871 0,0.53456 0.0119,0.59387 0.19414,0.96384 0.25763,0.52311 0.86668,1.12838 1.66678,1.65643 0.62476,0.41233 0.99326,0.60379 2.72096,1.41376 3.93966,1.84694 7.17773,3.62427 8.70874,4.7801 1.98477,1.49838 3.32662,3.05531 4.37676,5.07829 0.68377,1.3172 1.01268,2.3252 1.23534,3.78589 0.13937,0.91422 0.13876,3.05236 -10e-4,3.95966 -0.36833,2.38902 -1.15355,4.24321 -2.52629,5.96544 -1.77749,2.23002 -4.51457,3.98125 -7.55094,4.83122 -0.77771,0.2177 -2.3782,0.53683 -3.30914,0.65983 -0.98958,0.13075 -3.24595,0.15837 -4.27077,0.0523 z"
         id="path8362"
         transform="scale(0.26458333)" />
      <path
         style="fill:#7e36f4;fill-opacity:1;fillRule:nonzero;stroke:#000000;stroke-width:0.0565665;stroke-opacity:1"
         d="m 655.49967,182.41396 c -0.0614,-0.21061 -0.16341,-0.56111 -0.22667,-0.77889 -0.63689,-2.19245 -1.09111,-4.90399 -1.17498,-7.01425 -0.0365,-0.91731 0.0473,-2.51064 0.18441,-3.50712 0.24097,-1.75166 0.80362,-2.99003 1.8596,-4.09293 1.43305,-1.49671 3.25064,-2.22483 5.34675,-2.14188 1.88522,0.0746 3.25172,0.69131 4.6663,2.10589 1.16698,1.16698 1.78016,2.30209 2.03035,3.75855 0.1173,0.68289 0.11806,1.86027 0.002,2.55235 -0.41645,2.47566 -2.16185,4.58536 -4.46255,5.39401 -0.21853,0.0768 -1.22461,0.38548 -2.23574,0.68593 -2.08979,0.62098 -2.77645,0.85658 -3.62026,1.24216 -1.13114,0.51687 -1.64399,0.95394 -2.03427,1.7337 l -0.22294,0.44541 -0.11164,-0.38293 z"
         id="path8364"
         transform="scale(0.26458333)" />
    </g>
  </g>
</svg>
