<?xml version="1.0" encoding="UTF-8" standalone="no"?>
<!-- Created with Inkscape (http://www.inkscape.org/) -->

<svg
   width="262.6019mm"
   height="21.042511mm"
   viewBox="0 0 262.6019 21.042511"
   version="1.1"
   id="svg5"
   xmlns:inkscape="http://www.inkscape.org/namespaces/inkscape"
   xmlns:sodipodi="http://sodipodi.sourceforge.net/DTD/sodipodi-0.dtd"
   xmlns="http://www.w3.org/2000/svg"
   xmlns:svg="http://www.w3.org/2000/svg">
  <sodipodi:namedview
     id="namedview7"
     pagecolor="#ffffff"
     bordercolor="#666666"
     borderopacity="1.0"
     inkscape:showpageshadow="2"
     inkscape:pageopacity="0.0"
     inkscape:pagecheckerboard="0"
     inkscape:deskcolor="#d1d1d1"
     inkscape:document-units="mm"
     showgrid="false" />
  <defs
     id="defs2" />
  <g
     inkscape:groupmode="layer"
     id="layer2"
     inkscape:label="Layer 2"
     transform="translate(45.476041,-209.59773)">
    <g
       aria-label="Rho Technologies Limited"
       id="text6514"
       style="font-size:22.5778px;line-height:1.25;font-family:Fonarto;-inkscape-font-specification:'Fonarto, Normal';stroke-width:0.264583">
      <path
         d="m -42.969905,210.29764 h 3.454404 q 1.648179,0 2.754491,0.67733 1.106312,0.67733 1.693335,1.73849 0.587023,1.03858 0.654757,2.32551 0.09031,1.26436 -0.270934,2.46098 -0.361245,1.19663 -1.174046,2.16747 -0.790223,0.97085 -1.964268,1.4224 l 3.951115,5.01228 h -3.680182 l -4.380093,-5.55414 q -0.496712,-0.63218 -0.451556,-1.39983 0.06773,-0.76764 0.451556,-1.33209 0.112889,0.24836 0.428978,0.38383 0.316089,0.13546 0.699912,0.2032 0.4064,0.0677 0.790223,0.0677 0.383823,0 0.654756,-0.0452 0.609601,-0.11288 1.038579,-0.54186 0.451556,-0.42898 0.654756,-0.99343 0.225778,-0.58702 0.225778,-1.2192 0,-0.65475 -0.270933,-1.19662 -0.248356,-0.54187 -0.812801,-0.88054 -0.541867,-0.36124 -1.399824,-0.36124 h -2.551291 v 12.86935 h -3.002848 v -13.02739 q 0,-1.24178 0.564445,-2.00943 0.564445,-0.76764 1.941691,-0.76764 z"
         id="path6516" />
      <path
         d="m -28.768504,210.29764 v 5.71218 q 0.180622,-0.38382 0.541867,-0.67733 0.361245,-0.29352 0.790223,-0.47414 0.451556,-0.2032 0.903112,-0.31609 0.474134,-0.11289 0.880534,-0.13546 0.835379,-0.0452 1.64818,0.22577 0.812801,0.27094 1.490135,0.97085 0.993423,1.03858 0.993423,2.98027 v 7.51841 h -2.822225 q 0,-0.36125 0,-0.99343 0.02258,-0.65475 0.02258,-1.39982 0,-0.76765 0,-1.58045 0,-0.83538 -0.02258,-1.55786 -0.02258,-0.74507 -0.06773,-1.30952 -0.04515,-0.56444 -0.112889,-0.83538 -0.180622,-0.67733 -0.654756,-1.03857 -0.474134,-0.36125 -1.061156,-0.36125 -0.767646,0 -1.196624,0.4064 -0.4064,0.4064 -0.4064,1.06116 -0.248356,-0.0677 -0.541867,-0.33867 -0.270934,-0.27093 -0.383823,-0.58702 v 8.53441 h -2.844803 v -13.50153 q 0,-1.08373 0.767645,-1.69333 0.767645,-0.63218 2.077158,-0.6096 z"
         id="path6518" />
      <path
         d="m -13.596244,214.13586 q 1.783646,0 3.160892,0.85796 1.3998235,0.85796 2.1900465,2.19005 0.790223,1.33209 0.8353786,2.95769 0.067733,1.6256 -0.8128008,3.18347 -0.7450674,1.28693 -1.9416913,2.05458 -1.196623,0.76764 -2.551291,0.94826 -1.354668,0.2032 -2.731914,-0.22577 -1.354668,-0.4064 -2.438402,-1.49014 -1.219202,-1.24178 -1.625602,-2.86738 -0.406401,-1.6256 0.06773,-3.2512 0.203201,-0.65476 0.654757,-1.08374 0.474133,-0.42897 1.061156,-0.63218 0.587023,-0.2032 1.219201,-0.18062 0.632179,0.0226 1.174046,0.27094 0.541867,0.22577 0.903112,0.67733 0.383823,0.42898 0.451556,1.06116 -0.338667,-0.24836 -0.812801,-0.24836 -0.474134,-0.0226 -0.92569,0.2032 -0.428978,0.2032 -0.745067,0.65476 -0.293511,0.42898 -0.293511,1.08373 0,1.12889 0.474133,1.87396 0.474134,0.74507 1.174046,1.12889 0.72249,0.36124 1.535291,0.36124 0.835378,0 1.53529,-0.38382 0.72249,-0.38382 1.196623,-1.12889 0.474134,-0.76764 0.474134,-1.89653 0,-0.88054 -0.316089,-1.55787 -0.316089,-0.67734 -0.857956,-1.10631 -0.51929,-0.45156 -1.219202,-0.6096 -0.699911,-0.18063 -1.490135,-0.0226 -0.338667,-0.4064 -0.835378,-0.63218 -0.474134,-0.24836 -1.038579,-0.31609 -0.564445,-0.0903 -1.12889,0.0226 -0.564445,0.0903 -1.061157,0.38382 0.903112,-1.08373 2.099736,-1.67076 1.196623,-0.6096 2.619025,-0.6096 z"
         id="path6520" />
      <path
         d="M 0.06325817,210.29764 H 10.878025 q 0,0.69991 -0.2032,1.26435 -0.203201,0.54187 -0.541868,0.92569 -0.3386667,0.38383 -0.7902227,0.58703 -0.4289782,0.2032 -0.9256899,0.2032 H 6.6108204 V 226.1021 H 3.5628173 V 213.27791 H 0.06325817 Z"
         id="path6522" />
      <path
         d="m 18.757599,221.58654 q -1.219202,0.31609 -2.235203,0.22577 -0.993423,-0.0903 -1.648179,-0.47413 -0.632179,-0.4064 -0.857957,-1.06116 -0.2032,-0.67733 0.135467,-1.51271 0.699912,0.58702 1.625602,0.65476 0.92569,0.0452 1.783646,-0.0452 0.72249,-0.0677 1.083735,-0.31609 0.383822,-0.24835 0.474133,-0.56444 0.09031,-0.33867 -0.06773,-0.69991 -0.158045,-0.36125 -0.519289,-0.65476 -0.338668,-0.29351 -0.857957,-0.47413 -0.496712,-0.18063 -1.106312,-0.15805 -0.654756,0.0452 -1.241779,0.31609 -0.587023,0.27093 -1.038579,0.74507 -0.451556,0.47413 -0.72249,1.10631 -0.270933,0.63218 -0.293511,1.39982 -0.02258,0.63218 0.135467,1.24178 0.180622,0.6096 0.519289,1.12889 0.338667,0.49671 0.812801,0.85796 0.474134,0.33867 1.083734,0.42898 0.857957,0.15804 1.761069,-0.11289 0.903112,-0.27094 1.603024,-0.99342 l 2.370669,1.15146 q -0.92569,1.37725 -2.190047,1.98685 -1.264357,0.58702 -2.889958,0.58702 -1.512713,0 -2.664181,-0.51929 -1.12889,-0.54186 -1.896535,-1.4224 -0.745068,-0.88053 -1.12889,-1.98684 -0.361245,-1.1289 -0.338667,-2.28036 0.02258,-1.17405 0.451556,-2.28036 0.428978,-1.12889 1.241779,-1.98685 0.903112,-0.97084 2.099735,-1.37724 1.219202,-0.4064 2.483558,-0.4064 1.399824,0 2.415825,0.47413 1.016001,0.47413 1.64818,1.2192 0.632178,0.72249 0.835378,1.6256 0.2032,0.88054 -0.04516,1.71592 -0.225778,0.83537 -0.92569,1.51271 -0.699912,0.65475 -1.896535,0.94827 z"
         id="path6524" />
      <path
         d="m 32.755831,218.74173 q -0.180622,-0.63217 -0.699911,-1.06115 -0.496712,-0.42898 -1.174046,-0.63218 -0.677334,-0.22578 -1.444979,-0.2032 -0.767646,0 -1.467557,0.29351 -0.677334,0.29351 -1.196624,0.88053 -0.519289,0.56445 -0.722489,1.44498 -0.158045,0.72249 -0.04516,1.46756 0.112889,0.74507 0.519289,1.35467 0.406401,0.58702 1.083735,0.97084 0.699912,0.38383 1.670757,0.38383 1.828802,0 2.844803,-1.33209 l 2.144891,1.55786 q -1.715913,2.41583 -4.944538,2.41583 -1.693335,0 -2.935114,-0.63218 -1.219202,-0.65476 -1.986847,-1.67076 -0.767645,-1.03858 -1.038579,-2.30293 -0.270933,-1.28694 -0.06773,-2.52872 0.225778,-1.26435 0.948267,-2.37067 0.72249,-1.12889 1.964269,-1.8288 0.92569,-0.51929 1.964269,-0.69991 1.061156,-0.2032 2.122313,-0.0452 1.399824,0.2032 2.167469,0.83537 0.790223,0.63218 1.038579,1.37725 0.248356,0.72249 0.02258,1.39982 -0.203201,0.65476 -0.767646,0.92569 z"
         id="path6526" />
      <path
         d="m 38.919551,210.29764 v 5.71218 q 0.180622,-0.38382 0.541867,-0.67733 0.361245,-0.29352 0.790223,-0.47414 0.451556,-0.2032 0.903112,-0.31609 0.474134,-0.11289 0.880534,-0.13546 0.835379,-0.0452 1.64818,0.22577 0.812801,0.27094 1.490135,0.97085 0.993423,1.03858 0.993423,2.98027 v 7.51841 H 43.3448 q 0,-0.36125 0,-0.99343 0.02258,-0.65475 0.02258,-1.39982 0,-0.76765 0,-1.58045 0,-0.83538 -0.02258,-1.55786 -0.02258,-0.74507 -0.06773,-1.30952 -0.04516,-0.56444 -0.112889,-0.83538 -0.180622,-0.67733 -0.654756,-1.03857 -0.474134,-0.36125 -1.061156,-0.36125 -0.767646,0 -1.196624,0.4064 -0.4064,0.4064 -0.4064,1.06116 -0.248356,-0.0677 -0.541867,-0.33867 -0.270934,-0.27093 -0.383823,-0.58702 v 8.53441 h -2.844803 v -13.50153 q 0,-1.08373 0.767645,-1.69333 0.767645,-0.63218 2.077158,-0.6096 z"
         id="path6528" />
      <path
         d="m 51.337321,215.76146 q 0.180622,-0.4064 0.541867,-0.69991 0.383823,-0.29351 0.835379,-0.49671 0.451556,-0.2032 0.92569,-0.31609 0.474133,-0.11289 0.880534,-0.13547 0.857956,-0.0452 1.693335,0.24836 0.835379,0.27093 1.53529,0.97085 1.016001,1.06115 1.016001,3.048 v 7.72161 h -2.889958 q 0,-0.38383 0,-1.03858 0.02258,-0.65476 0.02258,-1.4224 0,-0.79023 0,-1.62561 0,-0.83537 -0.02258,-1.58044 -0.02258,-0.74507 -0.06773,-1.33209 -0.04516,-0.58702 -0.112889,-0.85796 -0.180623,-0.72249 -0.699912,-1.08373 -0.496712,-0.36125 -1.083735,-0.36125 -0.767645,0 -1.196623,0.42898 -0.428978,0.4064 -0.428978,1.08374 -0.270934,-0.0903 -0.541868,-0.36125 -0.270933,-0.29351 -0.4064,-0.6096 v 0.6096 8.15059 h -2.912536 v -11.6953 h 2.912536 z"
         id="path6530" />
      <path
         d="m 66.690194,214.13586 q 1.783646,0 3.160892,0.85796 1.399823,0.85796 2.190046,2.19005 0.790223,1.33209 0.835379,2.95769 0.06773,1.6256 -0.812801,3.18347 -0.745067,1.28693 -1.941691,2.05458 -1.196623,0.76764 -2.551291,0.94826 -1.354668,0.2032 -2.731914,-0.22577 -1.354668,-0.4064 -2.438402,-1.49014 -1.219202,-1.24178 -1.625602,-2.86738 -0.406401,-1.6256 0.06773,-3.2512 0.203201,-0.65476 0.654757,-1.08374 0.474133,-0.42897 1.061156,-0.63218 0.587023,-0.2032 1.219201,-0.18062 0.632179,0.0226 1.174046,0.27094 0.541867,0.22577 0.903112,0.67733 0.383823,0.42898 0.451556,1.06116 -0.338667,-0.24836 -0.812801,-0.24836 -0.474134,-0.0226 -0.92569,0.2032 -0.428978,0.2032 -0.745067,0.65476 -0.293511,0.42898 -0.293511,1.08373 0,1.12889 0.474133,1.87396 0.474134,0.74507 1.174046,1.12889 0.72249,0.36124 1.53529,0.36124 0.835379,0 1.535291,-0.38382 0.72249,-0.38382 1.196623,-1.12889 0.474134,-0.76764 0.474134,-1.89653 0,-0.88054 -0.316089,-1.55787 -0.316089,-0.67734 -0.857956,-1.10631 -0.51929,-0.45156 -1.219202,-0.6096 -0.699912,-0.18063 -1.490135,-0.0226 -0.338667,-0.4064 -0.835378,-0.63218 -0.474134,-0.24836 -1.038579,-0.31609 -0.564445,-0.0903 -1.12889,0.0226 -0.564445,0.0903 -1.061157,0.38382 0.903112,-1.08373 2.099736,-1.67076 1.196623,-0.6096 2.619025,-0.6096 z"
         id="path6532" />
      <path
         d="m 77.55009,210.29764 v 15.80446 h -2.844803 v -13.50153 q 0,-1.08373 0.767645,-1.69333 0.767645,-0.63218 2.077158,-0.6096 z"
         id="path6534" />
      <path
         d="m 85.4749,214.13586 q 1.783646,0 3.160892,0.85796 1.399824,0.85796 2.190047,2.19005 0.790223,1.33209 0.835378,2.95769 0.06773,1.6256 -0.812801,3.18347 -0.745067,1.28693 -1.94169,2.05458 -1.196624,0.76764 -2.551292,0.94826 -1.354668,0.2032 -2.731914,-0.22577 -1.354668,-0.4064 -2.438402,-1.49014 -1.219202,-1.24178 -1.625602,-2.86738 -0.4064,-1.6256 0.06773,-3.2512 0.203201,-0.65476 0.654757,-1.08374 0.474133,-0.42897 1.061156,-0.63218 0.587023,-0.2032 1.219202,-0.18062 0.632178,0.0226 1.174045,0.27094 0.541867,0.22577 0.903112,0.67733 0.383823,0.42898 0.451556,1.06116 -0.338667,-0.24836 -0.812801,-0.24836 -0.474133,-0.0226 -0.925689,0.2032 -0.428979,0.2032 -0.745068,0.65476 -0.293511,0.42898 -0.293511,1.08373 0,1.12889 0.474134,1.87396 0.474133,0.74507 1.174045,1.12889 0.72249,0.36124 1.535291,0.36124 0.835378,0 1.53529,-0.38382 0.72249,-0.38382 1.196623,-1.12889 0.474134,-0.76764 0.474134,-1.89653 0,-0.88054 -0.316089,-1.55787 -0.316089,-0.67734 -0.857956,-1.10631 -0.51929,-0.45156 -1.219202,-0.6096 -0.699911,-0.18063 -1.490134,-0.0226 -0.338667,-0.4064 -0.835379,-0.63218 -0.474134,-0.24836 -1.038579,-0.31609 -0.564445,-0.0903 -1.12889,0.0226 -0.564445,0.0903 -1.061157,0.38382 0.903112,-1.08373 2.099736,-1.67076 1.196623,-0.6096 2.619025,-0.6096 z"
         id="path6536" />
      <path
         d="m 99.157021,230.64023 q -1.12889,0 -2.190047,-0.27093 -1.038578,-0.27093 -1.783646,-0.83538 -0.745067,-0.54186 -1.061156,-1.39982 -0.31609,-0.83538 0.02258,-2.00943 0.361245,0.4064 0.92569,0.74507 0.587023,0.33867 1.219201,0.56445 0.654757,0.24835 1.309513,0.38382 0.677334,0.13547 1.241779,0.11289 1.038579,-0.0452 1.693335,-0.33867 0.65475,-0.29351 1.016,-0.76764 0.38382,-0.45156 0.51929,-1.03858 0.13546,-0.58703 0.13546,-1.2192 -0.85795,0.85795 -1.87395,1.24178 -0.993424,0.36124 -2.009425,0.31608 -1.016001,-0.0226 -1.986846,-0.45155 -0.948268,-0.45156 -1.693335,-1.24178 -0.72249,-0.79022 -1.174046,-1.91911 -0.428978,-1.12889 -0.428978,-2.52872 0,-1.35467 0.474134,-2.46098 0.474134,-1.10631 1.264357,-1.87396 0.812801,-0.76764 1.828802,-1.17404 1.038578,-0.4064 2.144891,-0.36125 1.083734,0.0452 1.738486,0.49672 0.65476,0.42897 0.94827,1.016 0.31609,0.56444 0.31609,1.17404 0.0226,0.6096 -0.18062,0.97085 -0.2032,-0.27094 -0.49672,-0.45156 -0.27093,-0.2032 -0.6096,-0.31609 -0.31609,-0.11289 -0.677327,-0.15804 -0.338668,-0.0452 -0.654757,-0.0452 -1.038579,0 -1.73849,0.49671 -0.699912,0.49672 -1.061157,1.24178 -0.361245,0.72249 -0.383823,1.58045 0,0.85796 0.338667,1.60302 0.361245,0.72249 1.061157,1.2192 0.72249,0.49672 1.783646,0.49672 0.903114,0 1.490134,-0.36125 0.58702,-0.36124 0.92569,-0.94827 0.36124,-0.6096 0.49671,-1.35466 0.15804,-0.76765 0.15804,-1.55787 v -3.5673 -1.24177 h 2.93512 v 10.38578 q 0,1.33209 -0.38382,2.41583 -0.38383,1.08373 -1.15147,1.85138 -0.74507,0.76764 -1.87396,1.17404 -1.10631,0.4064 -2.573866,0.4064 z"
         id="path6538" />
      <path
         d="m 107.84946,216.77746 q 0.0452,-0.67733 0.27094,-1.12889 0.24835,-0.45155 0.63217,-0.72248 0.38383,-0.27094 0.88054,-0.38383 0.51929,-0.13546 1.12889,-0.13546 v 11.6953 h -2.91254 z m 1.46756,-7.17974 q 0.76764,0 1.30951,0.56445 0.56445,0.54187 0.56445,1.33209 0,0.79022 -0.54187,1.35467 -0.31609,0.31609 -0.74507,0.45155 -0.4064,0.11289 -0.83538,0.24836 -0.4064,0.11289 -0.76764,0.29351 -0.33867,0.15805 -0.47414,0.54187 -0.11288,-0.36125 -0.24835,-0.92569 -0.11289,-0.56445 -0.15805,-1.17405 -0.0226,-0.6096 0.0677,-1.17404 0.11289,-0.58703 0.49671,-0.97085 0.54187,-0.54187 1.33209,-0.54187 z"
         id="path6540" />
      <path
         d="m 121.41871,221.58654 q -1.2192,0.31609 -2.2352,0.22577 -0.99342,-0.0903 -1.64818,-0.47413 -0.63218,-0.4064 -0.85796,-1.06116 -0.2032,-0.67733 0.13547,-1.51271 0.69991,0.58702 1.6256,0.65476 0.92569,0.0452 1.78365,-0.0452 0.72249,-0.0677 1.08373,-0.31609 0.38383,-0.24835 0.47414,-0.56444 0.0903,-0.33867 -0.0677,-0.69991 -0.15804,-0.36125 -0.51929,-0.65476 -0.33866,-0.29351 -0.85795,-0.47413 -0.49671,-0.18063 -1.10631,-0.15805 -0.65476,0.0452 -1.24178,0.31609 -0.58703,0.27093 -1.03858,0.74507 -0.45156,0.47413 -0.72249,1.10631 -0.27094,0.63218 -0.29351,1.39982 -0.0226,0.63218 0.13546,1.24178 0.18063,0.6096 0.51929,1.12889 0.33867,0.49671 0.8128,0.85796 0.47414,0.33867 1.08374,0.42898 0.85795,0.15804 1.76107,-0.11289 0.90311,-0.27094 1.60302,-0.99342 l 2.37067,1.15146 q -0.92569,1.37725 -2.19005,1.98685 -1.26435,0.58702 -2.88996,0.58702 -1.51271,0 -2.66418,-0.51929 -1.12889,-0.54186 -1.89653,-1.4224 -0.74507,-0.88053 -1.12889,-1.98684 -0.36125,-1.1289 -0.33867,-2.28036 0.0226,-1.17405 0.45156,-2.28036 0.42898,-1.12889 1.24178,-1.98685 0.90311,-0.97084 2.09973,-1.37724 1.2192,-0.4064 2.48356,-0.4064 1.39982,0 2.41582,0.47413 1.01601,0.47413 1.64818,1.2192 0.63218,0.72249 0.83538,1.6256 0.2032,0.88054 -0.0452,1.71592 -0.22578,0.83537 -0.92569,1.51271 -0.69991,0.65475 -1.89654,0.94827 z"
         id="path6542" />
      <path
         d="m 132.12058,217.99667 q -0.18062,-0.42898 -0.49671,-0.67734 -0.31609,-0.27093 -0.69991,-0.4064 -0.36125,-0.13547 -0.72249,-0.13547 -0.33867,-0.0226 -0.56445,0.0677 -0.4064,0.13547 -0.54186,0.47413 -0.11289,0.31609 0.13546,0.6096 0.2032,0.22578 0.63218,0.45156 0.45156,0.2032 0.99343,0.47413 0.54186,0.24836 1.10631,0.58703 0.58702,0.31608 1.06115,0.76764 0.47414,0.45156 0.76765,1.06116 0.31609,0.6096 0.31609,1.44498 0,0.97084 -0.42898,1.71591 -0.42898,0.72249 -1.15147,1.17404 -0.69991,0.45156 -1.60302,0.60961 -0.88054,0.18062 -1.80623,0.0452 -0.90311,-0.13547 -1.76106,-0.6096 -0.85796,-0.49671 -1.49014,-1.33209 l 1.80623,-1.94169 q 0.56444,0.67733 1.17404,0.97084 0.63218,0.29352 1.15147,0.33867 0.54187,0.0226 0.90311,-0.15804 0.36125,-0.2032 0.42898,-0.51929 0.0903,-0.33867 -0.18062,-0.72249 -0.27094,-0.4064 -1.03858,-0.79022 -0.72249,-0.36125 -1.4224,-0.74507 -0.67734,-0.38382 -1.2192,-0.85796 -0.51929,-0.47413 -0.85796,-1.06116 -0.31609,-0.58702 -0.31609,-1.37724 0,-0.8128 0.33867,-1.44498 0.33866,-0.63218 0.90311,-1.06116 0.56444,-0.42898 1.28693,-0.63218 0.72249,-0.2032 1.49014,-0.18062 1.30951,0.0677 1.98684,0.58702 0.69992,0.49672 0.85796,1.15147 0.18062,0.63218 -0.11289,1.24178 -0.27093,0.6096 -0.92569,0.88054 z"
         id="path6544" />
      <path
         d="m 144.7415,223.23472 h 5.41867 v 2.86738 h -8.39894 v -13.43379 q 0,-1.12889 0.8128,-1.76107 0.8128,-0.63218 2.16747,-0.6096 z"
         id="path6546" />
      <path
         d="m 152.8695,216.77746 q 0.0452,-0.67733 0.27093,-1.12889 0.24836,-0.45155 0.63218,-0.72248 0.38382,-0.27094 0.88053,-0.38383 0.51929,-0.13546 1.12889,-0.13546 v 11.6953 h -2.91253 z m 1.46755,-7.17974 q 0.76765,0 1.30952,0.56445 0.56444,0.54187 0.56444,1.33209 0,0.79022 -0.54187,1.35467 -0.31608,0.31609 -0.74506,0.45155 -0.4064,0.11289 -0.83538,0.24836 -0.4064,0.11289 -0.76765,0.29351 -0.33866,0.15805 -0.47413,0.54187 -0.11289,-0.36125 -0.24836,-0.92569 -0.11289,-0.56445 -0.15804,-1.17405 -0.0226,-0.6096 0.0677,-1.17404 0.11289,-0.58703 0.49671,-0.97085 0.54187,-0.54187 1.33209,-0.54187 z"
         id="path6548" />
      <path
         d="m 161.4039,215.76146 q 0.18062,-0.4064 0.54186,-0.69991 0.36125,-0.29351 0.81281,-0.47413 0.45155,-0.2032 0.92569,-0.31609 0.47413,-0.11289 0.88053,-0.13547 0.85796,-0.0677 1.69333,0.22578 0.85796,0.27093 1.5353,0.97085 0.2032,0.22577 0.36124,0.47413 0.18062,0.22578 0.29351,0.51929 0.0677,-0.49671 0.4064,-0.88054 0.33867,-0.4064 0.8128,-0.67733 0.49671,-0.29351 1.06116,-0.45156 0.56444,-0.15804 1.10631,-0.18062 0.88054,-0.0677 1.71591,0.22578 0.85796,0.27093 1.58045,0.97085 1.016,1.06115 1.016,3.048 v 7.72161 h -2.93511 q 0,-0.38383 0,-1.03858 0,-0.65476 -0.0226,-1.4224 0,-0.79023 0,-1.62561 0,-0.83537 -0.0226,-1.58044 -0.0226,-0.74507 -0.0677,-1.33209 -0.0226,-0.58702 -0.0677,-0.85796 -0.24835,-1.46756 -1.64817,-1.53529 -0.79023,-0.0226 -1.33209,0.45156 -0.51929,0.47413 -0.49672,1.15147 -0.2032,-0.0677 -0.4064,-0.22578 -0.2032,-0.18063 -0.36124,-0.4064 0.0226,0.18062 0.0226,0.36124 0,0.15805 0,0.33867 v 7.72161 h -2.88996 q 0,-0.38383 0,-1.03858 0.0226,-0.65476 0.0226,-1.4224 0,-0.79023 0,-1.62561 0,-0.83537 -0.0226,-1.58044 -0.0226,-0.74507 -0.0677,-1.33209 -0.0452,-0.58702 -0.11288,-0.85796 -0.18063,-0.72249 -0.67734,-1.08373 -0.49671,-0.36125 -1.08373,-0.36125 -0.79023,0 -1.2192,0.42898 -0.42898,0.4064 -0.42898,1.08374 -0.27094,-0.0903 -0.54187,-0.36125 -0.27093,-0.29351 -0.38382,-0.6096 v 8.76019 h -2.93512 v -11.67273 h 2.93512 z"
         id="path6550" />
      <path
         d="m 178.85653,216.77746 q 0.0452,-0.67733 0.27093,-1.12889 0.24836,-0.45155 0.63218,-0.72248 0.38382,-0.27094 0.88053,-0.38383 0.51929,-0.13546 1.12889,-0.13546 v 11.6953 h -2.91253 z m 1.46755,-7.17974 q 0.76765,0 1.30952,0.56445 0.56444,0.54187 0.56444,1.33209 0,0.79022 -0.54187,1.35467 -0.31608,0.31609 -0.74506,0.45155 -0.4064,0.11289 -0.83538,0.24836 -0.4064,0.11289 -0.76765,0.29351 -0.33866,0.15805 -0.47413,0.54187 -0.11289,-0.36125 -0.24836,-0.92569 -0.11289,-0.56445 -0.15804,-1.17405 -0.0226,-0.6096 0.0677,-1.17404 0.11289,-0.58703 0.49671,-0.97085 0.54187,-0.54187 1.33209,-0.54187 z"
         id="path6552" />
      <path
         d="m 185.67501,212.60057 q 0,-0.63218 0.22578,-1.06115 0.24836,-0.45156 0.63218,-0.72249 0.4064,-0.27094 0.92569,-0.38383 0.51929,-0.13546 1.06116,-0.13546 v 4.19947 h 2.61902 q 0,0.45155 -0.0903,0.88053 -0.0677,0.42898 -0.29351,0.79022 -0.22578,0.33867 -0.6096,0.56445 -0.38382,0.2032 -0.99342,0.2032 h -0.63218 v 6.38952 q 0,0.36124 0.27093,0.51929 0.27093,0.13546 0.63218,0.13546 0.36124,-0.0226 0.72249,-0.18062 0.36124,-0.15804 0.51929,-0.42898 0.29351,0.74507 0.0226,1.33209 -0.24836,0.56445 -0.8128,0.92569 -0.54187,0.33867 -1.28694,0.45156 -0.72249,0.0903 -1.37724,-0.11289 -0.63218,-0.22578 -1.08374,-0.76765 -0.45156,-0.56444 -0.45156,-1.51271 v -6.75076 h -1.44497 v -2.4384 h 1.44497 z"
         id="path6554" />
      <path
         d="m 200.91502,221.58654 q -1.2192,0.31609 -2.2352,0.22577 -0.99343,-0.0903 -1.64818,-0.47413 -0.63218,-0.4064 -0.85796,-1.06116 -0.2032,-0.67733 0.13547,-1.51271 0.69991,0.58702 1.6256,0.65476 0.92569,0.0452 1.78365,-0.0452 0.72249,-0.0677 1.08373,-0.31609 0.38382,-0.24835 0.47413,-0.56444 0.0903,-0.33867 -0.0677,-0.69991 -0.15804,-0.36125 -0.51929,-0.65476 -0.33867,-0.29351 -0.85795,-0.47413 -0.49672,-0.18063 -1.10632,-0.15805 -0.65475,0.0452 -1.24178,0.31609 -0.58702,0.27093 -1.03857,0.74507 -0.45156,0.47413 -0.72249,1.10631 -0.27094,0.63218 -0.29352,1.39982 -0.0226,0.63218 0.13547,1.24178 0.18062,0.6096 0.51929,1.12889 0.33867,0.49671 0.8128,0.85796 0.47413,0.33867 1.08374,0.42898 0.85795,0.15804 1.76106,-0.11289 0.90312,-0.27094 1.60303,-0.99342 l 2.37067,1.15146 q -0.92569,1.37725 -2.19005,1.98685 -1.26436,0.58702 -2.88996,0.58702 -1.51271,0 -2.66418,-0.51929 -1.12889,-0.54186 -1.89653,-1.4224 -0.74507,-0.88053 -1.12889,-1.98684 -0.36125,-1.1289 -0.33867,-2.28036 0.0226,-1.17405 0.45155,-2.28036 0.42898,-1.12889 1.24178,-1.98685 0.90312,-0.97084 2.09974,-1.37724 1.2192,-0.4064 2.48356,-0.4064 1.39982,0 2.41582,0.47413 1.016,0.47413 1.64818,1.2192 0.63218,0.72249 0.83538,1.6256 0.2032,0.88054 -0.0452,1.71592 -0.22577,0.83537 -0.92569,1.51271 -0.69991,0.65475 -1.89653,0.94827 z"
         id="path6556" />
      <path
         d="m 214.28107,224.83774 q -0.83538,0.8128 -1.8288,1.19662 -0.97085,0.36125 -1.96427,0.31609 -0.99342,-0.0226 -1.91911,-0.42898 -0.92569,-0.42897 -1.64818,-1.19662 -0.69991,-0.79022 -1.12889,-1.87396 -0.42898,-1.08373 -0.42898,-2.46098 0,-1.33209 0.45155,-2.4384 0.47414,-1.10631 1.24178,-1.89653 0.79023,-0.81281 1.78365,-1.24178 0.99342,-0.42898 2.07716,-0.38383 1.12889,0.0452 1.76107,0.47414 0.65475,0.42898 0.92569,0.99342 0.29351,0.56445 0.27093,1.15147 0,0.56444 -0.2032,0.92569 -0.38382,-0.54187 -1.08373,-0.72249 -0.67734,-0.2032 -1.28694,-0.2032 -1.016,0 -1.71591,0.49671 -0.67734,0.49671 -1.03858,1.24178 -0.33867,0.74507 -0.33867,1.6256 0,0.85796 0.33867,1.60302 0.33867,0.74507 1.016,1.24178 0.67733,0.49672 1.71591,0.49672 0.88054,0 1.44498,-0.38383 0.58702,-0.4064 0.92569,-1.03858 0.33867,-0.63217 0.47414,-1.39982 0.15804,-0.79022 0.15804,-1.55787 v -9.0537 q 1.33209,0.0452 2.07716,0.72249 0.76764,0.67734 0.76764,1.58045 v 13.45637 h -2.8448 z"
         id="path6558" />
    </g>
  </g>
</svg>
