<?xml version="1.0" encoding="UTF-8" standalone="no"?>
<!-- Created with Inkscape (http://www.inkscape.org/) -->

<svg
   width="124.17773mm"
   height="18.491196mm"
   viewBox="0 0 124.17773 18.491196"
   version="1.1"
   id="svg5"
   xmlns:inkscape="http://www.inkscape.org/namespaces/inkscape"
   xmlns:sodipodi="http://sodipodi.sourceforge.net/DTD/sodipodi-0.dtd"
   xmlns="http://www.w3.org/2000/svg"
   xmlns:svg="http://www.w3.org/2000/svg">
  <sodipodi:namedview
     id="namedview7"
     pagecolor="#ffffff"
     bordercolor="#666666"
     borderopacity="1.0"
     inkscape:showpageshadow="2"
     inkscape:pageopacity="0.0"
     inkscape:pagecheckerboard="0"
     inkscape:deskcolor="#d1d1d1"
     inkscape:document-units="mm"
     showgrid="false" />
  <defs
     id="defs2" />
  <g
     inkscape:groupmode="layer"
     id="layer2"
     inkscape:label="Layer 2"
     transform="translate(-42.911126,-184.14929)">
    <g
       id="g10711"
       transform="translate(30.53383,-22.889136)">
      <path
         d="m 17.096061,215.48252 q 0.451556,0.24835 0.948267,0.33866 0.496712,0.0903 0.812801,0.0452 h -0.02258 q 0.699912,-0.15804 1.12889,-0.8128 0.428978,-0.67733 0.428978,-1.46756 0,-0.51929 -0.248355,-1.016 -0.203201,-0.0677 -0.428979,-0.11289 -0.2032,-0.0451 -0.451556,-0.0451 h -2.167466 z m 1.693335,-7.74419 q 1.603023,0 2.709336,0.58702 1.12889,0.56445 1.806224,1.51272 l 0.338667,0.33866 q 0.790223,0.79023 1.174045,1.87396 0.383823,1.08374 0.383823,2.25778 0,1.15147 -0.383823,2.28036 -0.361244,1.10631 -1.061156,1.98685 -0.699912,0.88053 -1.738491,1.44498 -1.038579,0.54186 -2.348091,0.54186 -0.948268,0 -1.580446,-0.22578 -0.609601,-0.22577 -0.993423,-0.6096 v 5.55414 H 13.348146 L 12.512767,224.4459 H 12.3773 v -13.47894 q 0,-0.72249 0.158045,-1.30951 0.158044,-0.60961 0.496711,-1.01601 0.361245,-0.42897 0.92569,-0.65475 0.564445,-0.24836 1.354668,-0.24836 z m -3.476982,0.45156 q -1.354668,0 -1.919113,0.76764 -0.564445,0.76765 -0.564445,2.00943 v 13.02739 h 2.98027 V 211.125 h 2.551291 q 0.857957,0 1.399824,0.36125 0.564445,0.33866 0.812801,0.88053 0.270933,0.54187 0.270933,1.19662 0,0.63218 -0.225778,1.21921 -0.2032,0.56444 -0.654756,0.99342 -0.428978,0.42898 -1.038579,0.54187 -0.248355,0.0452 -0.632178,0.0452 -0.383823,0 -0.790223,-0.0677 -0.383823,-0.0677 -0.699912,-0.2032 -0.316089,-0.13547 -0.428978,-0.38382 -0.316089,0.45155 -0.428978,1.06115 -0.112889,0.6096 0.112889,1.17405 0.225778,0.54187 0.857956,0.94827 0.654756,0.38382 1.85138,0.38382 1.580446,0 2.709336,-0.8128 1.12889,-0.83538 1.738491,-2.05458 0.6096,-1.24178 0.677334,-2.66418 0.09031,-1.44498 -0.451556,-2.66418 -0.51929,-1.24178 -1.670758,-2.05458 -1.151468,-0.83538 -2.980269,-0.83538 z"
         id="path7302"
         style="font-size:22.5778px;line-height:1.25;font-family:'Fonarto XT';-inkscape-font-specification:'Fonarto XT, Normal';stroke-width:0.264583" />
      <path
         d="m 29.987976,219.59168 q 0.09031,0.65475 0.4064,1.24178 0.406401,0.27093 0.880535,0.33866 0.383822,0.0677 0.812801,0.0452 0.428978,-0.0452 0.857956,-0.22578 -0.790223,-0.0452 -1.444979,-0.27093 -0.632179,-0.22578 -1.016001,-0.65476 z m 2.889959,-3.90596 q -1.264357,0.0677 -2.122314,1.06115 0.270934,0.0903 0.541867,0.11289 0.270934,0.0226 0.51929,0.0226 0.541867,0 1.083734,-0.0677 0.632179,-0.0452 0.903112,-0.22578 0.270934,-0.2032 0.270934,-0.45156 0,-0.0677 -0.02258,-0.11288 0,-0.0677 -0.02258,-0.13547 -0.248355,-0.11289 -0.541867,-0.15805 -0.293511,-0.0677 -0.6096,-0.0452 z m -4.944539,7.81192 q -1.286934,-0.94827 -1.919113,-2.37067 -0.632178,-1.4224 -0.632178,-2.98027 0,-1.26436 0.474134,-2.50614 0.496711,-1.24178 1.354668,-2.19004 0.970845,-1.01601 2.25778,-1.46756 1.309512,-0.45156 2.641602,-0.45156 1.64818,0 2.822225,0.6096 1.174046,0.6096 1.828802,1.53529 l 0.361245,0.36125 q 0.632179,0.63218 0.948268,1.39982 0.316089,0.76765 0.316089,1.55787 0,1.12889 -0.654756,2.12231 -0.632179,0.97085 -1.986847,1.49014 l 1.85138,0.88053 -0.06773,0.0903 0.857956,0.83538 q -1.106312,1.67076 -2.506136,2.39325 -1.399824,0.72249 -3.115736,0.72249 -1.490135,0 -2.641603,-0.49671 -1.12889,-0.47414 -1.919113,-1.26436 z m 6.208895,-4.01885 q 1.196624,-0.29351 1.896536,-0.94827 0.699911,-0.67733 0.925689,-1.51271 0.248356,-0.83538 0.04516,-1.71591 -0.2032,-0.90312 -0.835379,-1.62561 -0.632178,-0.74506 -1.648179,-1.2192 -1.016001,-0.47413 -2.415825,-0.47413 -1.264357,0 -2.483558,0.4064 -1.196623,0.4064 -2.099735,1.37724 -0.835379,0.85796 -1.264357,1.98685 -0.4064,1.10631 -0.428978,2.28036 -0.02258,1.15147 0.338667,2.28036 0.383822,1.10631 1.12889,1.98684 0.767645,0.88054 1.896535,1.42241 1.151468,0.51928 2.664181,0.51928 1.625601,0 2.889958,-0.58702 1.264357,-0.6096 2.190047,-1.98684 l -2.370669,-1.15147 q -0.699912,0.72249 -1.603024,0.99342 -0.903112,0.27093 -1.761069,0.11289 -0.6096,-0.0903 -1.083734,-0.42898 -0.474134,-0.36124 -0.812801,-0.85796 -0.338667,-0.51928 -0.519289,-1.12889 -0.158045,-0.6096 -0.135467,-1.24177 0.02258,-0.76765 0.293511,-1.39983 0.270934,-0.63218 0.72249,-1.10631 0.451556,-0.47413 1.038579,-0.74507 0.587022,-0.27093 1.241779,-0.31609 0.6096,-0.0226 1.106312,0.15805 0.519289,0.18062 0.857956,0.47413 0.361245,0.29351 0.51929,0.65476 0.158044,0.36124 0.06773,0.69991 -0.09031,0.31609 -0.474134,0.56444 -0.361244,0.24836 -1.083734,0.31609 -0.857956,0.0903 -1.783646,0.0452 -0.92569,-0.0677 -1.625602,-0.65476 -0.338667,0.83538 -0.135467,1.51272 0.225778,0.65475 0.857957,1.06115 0.654756,0.38383 1.648179,0.47414 1.016001,0.0903 2.235202,-0.22578 z"
         id="path7304"
         style="font-size:22.5778px;line-height:1.25;font-family:'Fonarto XT';-inkscape-font-specification:'Fonarto XT, Normal';stroke-width:0.264583" />
      <path
         d="m 42.473459,211.80234 v 0.13546 l 0.225778,0.22578 q 0.338667,-0.24835 0.745068,-0.4064 0.4064,-0.18062 0.857956,-0.22578 0.948268,-0.0677 1.580446,0.29351 0.654756,0.36125 1.016001,0.92569 l 0.496712,0.49672 q 0.383822,0.38382 0.564445,0.85795 0.180622,0.47414 0.180622,0.94827 0,0.49671 -0.316089,1.03858 -0.293511,0.51929 -0.903112,0.97084 l -0.857956,-0.85795 -0.09031,0.0677 -0.112889,-0.24835 h -0.04516 q -0.338667,0 -0.677334,0.13546 -0.338667,0.13547 -0.632179,0.4064 -0.293511,0.27094 -0.496711,0.67734 -0.203201,0.38382 -0.248356,0.88053 -0.04516,0.51929 -0.04516,1.06116 0,0.54186 0,0.97084 v 5.12516 h -3.702759 l -0.835379,-0.83538 h -0.135466 v -12.64356 z m -2.980269,0.45155 v 11.74046 h 2.935114 v -4.74134 q 0,-0.45156 0,-0.97084 0,-0.54187 0.04516,-1.08374 0.09031,-0.94827 0.587023,-1.53529 0.519289,-0.58702 1.151468,-0.79022 0.632178,-0.22578 1.196623,-0.0452 0.587023,0.15805 0.790223,0.72249 0.496712,-0.36124 0.609601,-0.97084 0.112889,-0.63218 -0.135467,-1.21921 -0.225778,-0.6096 -0.812801,-1.016 -0.587022,-0.42897 -1.53529,-0.36124 -0.72249,0.0451 -1.33209,0.51929 -0.587023,0.45155 -0.970846,1.24178 v -1.49014 z"
         id="path7306"
         style="font-size:22.5778px;line-height:1.25;font-family:'Fonarto XT';-inkscape-font-specification:'Fonarto XT, Normal';stroke-width:0.264583" />
      <path
         d="m 50.827229,218.48537 q -0.790223,-0.58703 -1.264356,-1.30952 -0.474134,-0.74506 -0.474134,-1.8288 0,-0.90311 0.361245,-1.6256 0.383822,-0.72249 1.016001,-1.2192 0.632178,-0.49671 1.444979,-0.72249 0.812801,-0.24836 1.670757,-0.2032 1.174046,0.0677 1.896535,0.47413 0.72249,0.4064 1.083735,0.99343 l 0.496711,0.47413 q 0.361245,0.36124 0.51929,0.79022 0.180622,0.4064 0.180622,0.83538 0,0.65476 -0.361245,1.19662 -0.338667,0.54187 -0.970845,0.81281 l -0.519289,-0.22578 -0.812801,-0.79023 q -0.316089,-0.15804 -0.654756,-0.18062 -0.338667,-0.0226 -0.541868,0.0452 l -0.180622,0.0903 0.270934,0.11289 q 0.4064,0.18062 0.835378,0.4064 0.451556,0.22578 0.857957,0.49671 0.428978,0.27093 0.8128,0.6096 0.383823,0.33867 0.677334,0.76765 l 0.338667,0.31608 q 0.496712,0.49672 0.812801,1.15147 0.31609,0.65476 0.31609,1.55787 0,0.94827 -0.383823,1.69334 -0.361245,0.74506 -0.993423,1.24177 -0.632179,0.51929 -1.44498,0.79023 -0.8128,0.27093 -1.693335,0.27093 -1.016001,0 -2.077157,-0.42898 -1.061157,-0.42898 -1.941691,-1.30951 l -0.270934,-0.24836 q -0.361245,-0.27093 -0.699912,-0.58702 -0.316089,-0.33866 -0.6096,-0.74507 l 2.415824,-2.59644 q 0.72249,0.83538 1.354669,1.19662 0.632178,0.33867 1.083734,0.33867 0.338667,0 0.564445,-0.11289 0.225778,-0.11289 0.225778,-0.29351 v -0.0226 q -0.06773,0 -0.09031,-0.0677 -0.835379,-0.4064 -1.603024,-0.83538 -0.767645,-0.45156 -1.354668,-1.03858 z m 4.538138,-2.59645 q 0.654757,-0.27094 0.92569,-0.88054 0.293512,-0.6096 0.112889,-1.24178 -0.158044,-0.65475 -0.857956,-1.15146 -0.677334,-0.51929 -1.986847,-0.58703 -0.767645,-0.0226 -1.490135,0.18063 -0.722489,0.2032 -1.286934,0.63218 -0.564445,0.42897 -0.903112,1.06115 -0.338667,0.63218 -0.338667,1.44498 0,0.79022 0.316089,1.37725 0.338667,0.58702 0.857956,1.06115 0.541868,0.47414 1.219202,0.85796 0.699912,0.38382 1.422401,0.74507 0.767645,0.38382 1.038579,0.79022 0.270934,0.38382 0.180622,0.72249 -0.06773,0.31609 -0.428978,0.51929 -0.361245,0.18062 -0.903112,0.15804 -0.519289,-0.0451 -1.151468,-0.33866 -0.6096,-0.29351 -1.174045,-0.97085 l -1.806224,1.94169 q 0.632178,0.83538 1.490134,1.33209 0.857957,0.47414 1.761069,0.6096 0.92569,0.13547 1.806224,-0.0451 0.903112,-0.15805 1.603024,-0.6096 0.722489,-0.45156 1.151468,-1.17405 0.428978,-0.74507 0.428978,-1.71591 0,-0.83538 -0.316089,-1.44498 -0.293512,-0.6096 -0.767646,-1.06116 -0.474133,-0.45155 -1.061156,-0.76764 -0.564445,-0.33867 -1.106312,-0.58703 -0.541868,-0.27093 -0.993424,-0.47413 -0.428978,-0.22578 -0.632178,-0.45156 -0.248356,-0.29351 -0.135467,-0.6096 0.135467,-0.33866 0.541867,-0.47413 0.225778,-0.0903 0.564445,-0.0677 0.361245,0 0.72249,0.13546 0.383823,0.13547 0.699912,0.4064 0.316089,0.24836 0.496711,0.67734 z"
         id="path7308"
         style="font-size:22.5778px;line-height:1.25;font-family:'Fonarto XT';-inkscape-font-specification:'Fonarto XT, Normal';stroke-width:0.264583" />
      <path
         d="m 59.609984,214.64714 q 0.02258,-0.36125 0.09031,-0.65476 0.09031,-0.29351 0.203201,-0.54186 -0.112889,-0.4064 -0.248356,-0.90312 -0.135467,-0.49671 -0.248356,-0.99342 -0.09031,-0.49671 -0.158045,-0.94827 -0.06773,-0.45155 -0.06773,-0.79022 0,-0.6096 0.135467,-1.15147 0.158044,-0.54187 0.564445,-0.94827 0.677334,-0.67733 1.648179,-0.67733 0.970846,0 1.625602,0.69991 0.248356,0.24836 0.4064,0.49671 l 0.51929,0.51929 q 0.6096,0.65476 0.6096,1.53529 0,0.94827 -0.654756,1.62561 -0.2032,0.2032 -0.383823,0.29351 l 0.609601,0.6096 v 12.46294 h -3.680181 l -0.835379,-0.83538 h -0.135467 z m 1.919113,-7.15716 q -0.790223,0 -1.33209,0.54186 -0.383823,0.38383 -0.496712,0.97085 -0.09031,0.56444 -0.06773,1.17404 0.04516,0.60961 0.158045,1.17405 0.135466,0.56445 0.248355,0.92569 0.135467,-0.38382 0.474134,-0.54187 0.361245,-0.18062 0.767645,-0.29351 0.428979,-0.13547 0.835379,-0.24835 0.428978,-0.13547 0.745067,-0.45156 0.541868,-0.56445 0.541868,-1.35467 0,-0.79022 -0.564445,-1.33209 -0.541868,-0.56444 -1.309513,-0.56444 z m -1.467557,7.17974 v 9.32463 h 2.912536 v -11.6953 q -0.6096,0 -1.12889,0.13546 -0.496711,0.11289 -0.880534,0.38383 -0.383822,0.27093 -0.632178,0.72249 -0.225778,0.45155 -0.270934,1.12889 z"
         id="path7310"
         style="font-size:22.5778px;line-height:1.25;font-family:'Fonarto XT';-inkscape-font-specification:'Fonarto XT, Normal';stroke-width:0.264583" />
      <path
         d="m 67.376706,218.48537 q -0.790223,-0.58703 -1.264357,-1.30952 -0.474134,-0.74506 -0.474134,-1.8288 0,-0.90311 0.361245,-1.6256 0.383823,-0.72249 1.016001,-1.2192 0.632179,-0.49671 1.44498,-0.72249 0.8128,-0.24836 1.670757,-0.2032 1.174045,0.0677 1.896535,0.47413 0.72249,0.4064 1.083734,0.99343 l 0.496712,0.47413 q 0.361245,0.36124 0.51929,0.79022 0.180622,0.4064 0.180622,0.83538 0,0.65476 -0.361245,1.19662 -0.338667,0.54187 -0.970845,0.81281 l -0.51929,-0.22578 -0.812801,-0.79023 q -0.316089,-0.15804 -0.654756,-0.18062 -0.338667,-0.0226 -0.541867,0.0452 l -0.180622,0.0903 0.270933,0.11289 q 0.406401,0.18062 0.835379,0.4064 0.451556,0.22578 0.857956,0.49671 0.428978,0.27093 0.812801,0.6096 0.383823,0.33867 0.677334,0.76765 l 0.338667,0.31608 q 0.496712,0.49672 0.812801,1.15147 0.316089,0.65476 0.316089,1.55787 0,0.94827 -0.383822,1.69334 -0.361245,0.74506 -0.993424,1.24177 -0.632178,0.51929 -1.444979,0.79023 -0.812801,0.27093 -1.693335,0.27093 -1.016001,0 -2.077158,-0.42898 -1.061156,-0.42898 -1.941691,-1.30951 l -0.270933,-0.24836 q -0.361245,-0.27093 -0.699912,-0.58702 -0.316089,-0.33866 -0.609601,-0.74507 l 2.415825,-2.59644 q 0.72249,0.83538 1.354668,1.19662 0.632179,0.33867 1.083735,0.33867 0.338667,0 0.564445,-0.11289 0.225778,-0.11289 0.225778,-0.29351 v -0.0226 q -0.06773,0 -0.09031,-0.0677 -0.835378,-0.4064 -1.603023,-0.83538 -0.767646,-0.45156 -1.354669,-1.03858 z m 4.538138,-2.59645 q 0.654756,-0.27094 0.92569,-0.88054 0.293511,-0.6096 0.112889,-1.24178 -0.158045,-0.65475 -0.857957,-1.15146 -0.677334,-0.51929 -1.986846,-0.58703 -0.767645,-0.0226 -1.490135,0.18063 -0.72249,0.2032 -1.286935,0.63218 -0.564445,0.42897 -0.903112,1.06115 -0.338667,0.63218 -0.338667,1.44498 0,0.79022 0.31609,1.37725 0.338667,0.58702 0.857956,1.06115 0.541867,0.47414 1.219201,0.85796 0.699912,0.38382 1.422402,0.74507 0.767645,0.38382 1.038579,0.79022 0.270933,0.38382 0.180622,0.72249 -0.06773,0.31609 -0.428978,0.51929 -0.361245,0.18062 -0.903112,0.15804 -0.51929,-0.0451 -1.151468,-0.33866 -0.609601,-0.29351 -1.174046,-0.97085 l -1.806224,1.94169 q 0.632179,0.83538 1.490135,1.33209 0.857957,0.47414 1.761069,0.6096 0.925689,0.13547 1.806224,-0.0451 0.903112,-0.15805 1.603023,-0.6096 0.72249,-0.45156 1.151468,-1.17405 0.428978,-0.74507 0.428978,-1.71591 0,-0.83538 -0.316089,-1.44498 -0.293511,-0.6096 -0.767645,-1.06116 -0.474134,-0.45155 -1.061157,-0.76764 -0.564445,-0.33867 -1.106312,-0.58703 -0.541867,-0.27093 -0.993423,-0.47413 -0.428978,-0.22578 -0.632178,-0.45156 -0.248356,-0.29351 -0.135467,-0.6096 0.135467,-0.33866 0.541867,-0.47413 0.225778,-0.0903 0.564445,-0.0677 0.361245,0 0.72249,0.13546 0.383822,0.13547 0.699911,0.4064 0.31609,0.24836 0.496712,0.67734 z"
         id="path7312"
         style="font-size:22.5778px;line-height:1.25;font-family:'Fonarto XT';-inkscape-font-specification:'Fonarto XT, Normal';stroke-width:0.264583" />
      <path
         d="m 76.92711,210.49282 q 0,-0.74506 0.316089,-1.26435 0.316089,-0.54187 0.835379,-0.85796 0.519289,-0.33867 1.196623,-0.47413 0.677334,-0.15805 1.399824,-0.15805 v 0.13547 l 0.835378,0.83538 v 3.22862 h 1.783647 v 0.13547 l 0.835378,0.83538 q 0,0.58702 -0.112889,1.15147 -0.09031,0.56444 -0.361245,1.03858 -0.248355,0.45155 -0.722489,0.74506 -0.451556,0.27094 -1.174046,0.27094 h -0.248356 v 5.12516 q 0.51929,-0.29351 0.970846,-1.016 l 0.09031,0.31609 0.790223,0.76764 q 0.2032,0.58702 0.316089,0.99342 0.112889,0.38383 0.112889,0.58703 0,0.56444 -0.270933,1.016 -0.248356,0.42898 -0.677334,0.72249 -0.428979,0.31609 -0.970846,0.47413 -0.541867,0.18062 -1.106312,0.18062 -0.587023,0 -1.151468,-0.2032 -0.564445,-0.18062 -0.970845,-0.58702 l -0.496711,-0.49671 q -0.541867,-0.31609 -0.880534,-0.90311 -0.338667,-0.6096 -0.338667,-1.51272 v -5.46382 h -0.474134 l -0.835379,-0.83538 h -0.135466 v -3.34152 h 1.444979 z m 0.451556,0 v 1.89654 h -1.444979 v 2.4384 h 1.444979 v 6.75076 q 0,0.94827 0.451556,1.51272 0.451556,0.54186 1.083734,0.76764 0.654756,0.2032 1.377246,0.11289 0.745068,-0.11289 1.286935,-0.45156 0.564445,-0.36124 0.812801,-0.92568 0.270933,-0.58703 -0.02258,-1.3321 -0.158045,0.27094 -0.51929,0.42898 -0.361244,0.15805 -0.722489,0.18063 -0.361245,0 -0.632179,-0.13547 -0.270933,-0.15805 -0.270933,-0.51929 v -6.38952 h 0.632178 q 0.609601,0 0.993423,-0.2032 0.383823,-0.22578 0.609601,-0.56444 0.225778,-0.36125 0.293511,-0.79023 0.09031,-0.42897 0.09031,-0.88053 h -2.619025 v -4.19947 q -0.541868,0 -1.061157,0.13546 -0.519289,0.11289 -0.92569,0.38383 -0.383822,0.27093 -0.632178,0.72249 -0.225778,0.42898 -0.225778,1.06115 z"
         id="path7314"
         style="font-size:22.5778px;line-height:1.25;font-family:'Fonarto XT';-inkscape-font-specification:'Fonarto XT, Normal';stroke-width:0.264583" />
      <path
         d="m 88.91592,219.59168 q 0.09031,0.65475 0.406401,1.24178 0.4064,0.27093 0.880534,0.33866 0.383822,0.0677 0.812801,0.0452 0.428978,-0.0452 0.857956,-0.22578 -0.790223,-0.0452 -1.444979,-0.27093 -0.632179,-0.22578 -1.016001,-0.65476 z m 2.889959,-3.90596 q -1.264357,0.0677 -2.122314,1.06115 0.270934,0.0903 0.541868,0.11289 0.270933,0.0226 0.519289,0.0226 0.541867,0 1.083735,-0.0677 0.632178,-0.0452 0.903112,-0.22578 0.270933,-0.2032 0.270933,-0.45156 0,-0.0677 -0.02258,-0.11288 0,-0.0677 -0.02258,-0.13547 -0.248356,-0.11289 -0.541868,-0.15805 -0.293511,-0.0677 -0.6096,-0.0452 z m -4.944539,7.81192 q -1.286934,-0.94827 -1.919113,-2.37067 -0.632178,-1.4224 -0.632178,-2.98027 0,-1.26436 0.474134,-2.50614 0.496711,-1.24178 1.354668,-2.19004 0.970845,-1.01601 2.25778,-1.46756 1.309512,-0.45156 2.641603,-0.45156 1.648179,0 2.822225,0.6096 1.174045,0.6096 1.828801,1.53529 l 0.361245,0.36125 q 0.632179,0.63218 0.948268,1.39982 0.316089,0.76765 0.316089,1.55787 0,1.12889 -0.654756,2.12231 -0.632179,0.97085 -1.986847,1.49014 l 1.85138,0.88053 -0.06773,0.0903 0.857956,0.83538 q -1.106312,1.67076 -2.506136,2.39325 -1.399823,0.72249 -3.115736,0.72249 -1.490135,0 -2.641603,-0.49671 -1.12889,-0.47414 -1.919113,-1.26436 z m 6.208896,-4.01885 q 1.196623,-0.29351 1.896535,-0.94827 0.699912,-0.67733 0.92569,-1.51271 0.248355,-0.83538 0.04515,-1.71591 -0.2032,-0.90312 -0.835378,-1.62561 -0.632179,-0.74506 -1.64818,-1.2192 -1.016001,-0.47413 -2.415824,-0.47413 -1.264357,0 -2.483559,0.4064 -1.196623,0.4064 -2.099735,1.37724 -0.835379,0.85796 -1.264357,1.98685 -0.4064,1.10631 -0.428978,2.28036 -0.02258,1.15147 0.338667,2.28036 0.383823,1.10631 1.12889,1.98684 0.767645,0.88054 1.896535,1.42241 1.151468,0.51928 2.664181,0.51928 1.625601,0 2.889958,-0.58702 1.264357,-0.6096 2.190047,-1.98684 l -2.370669,-1.15147 q -0.699912,0.72249 -1.603024,0.99342 -0.903112,0.27093 -1.761069,0.11289 -0.6096,-0.0903 -1.083734,-0.42898 -0.474134,-0.36124 -0.812801,-0.85796 -0.338667,-0.51928 -0.519289,-1.12889 -0.158045,-0.6096 -0.135467,-1.24177 0.02258,-0.76765 0.293511,-1.39983 0.270934,-0.63218 0.72249,-1.10631 0.451556,-0.47413 1.038579,-0.74507 0.587023,-0.27093 1.241779,-0.31609 0.609601,-0.0226 1.106312,0.15805 0.51929,0.18062 0.857957,0.47413 0.361244,0.29351 0.519289,0.65476 0.158045,0.36124 0.06773,0.69991 -0.09031,0.31609 -0.474133,0.56444 -0.361245,0.24836 -1.083735,0.31609 -0.857956,0.0903 -1.783646,0.0452 -0.92569,-0.0677 -1.625602,-0.65476 -0.338667,0.83538 -0.135467,1.51272 0.225778,0.65475 0.857957,1.06115 0.654756,0.38383 1.648179,0.47414 1.016001,0.0903 2.235203,-0.22578 z"
         id="path7316"
         style="font-size:22.5778px;line-height:1.25;font-family:'Fonarto XT';-inkscape-font-specification:'Fonarto XT, Normal';stroke-width:0.264583" />
      <path
         d="m 101.78523,211.98296 0.27093,0.31609 q 0.58702,-0.36125 1.24178,-0.51929 0.65475,-0.18062 1.19662,-0.22578 0.97085,-0.0452 1.87396,0.27093 0.92569,0.31609 1.69333,1.08374 0.11289,0.11289 0.2032,0.24835 0.0903,0.11289 0.18063,0.22578 l 0.47413,0.47414 q 1.12889,1.17404 1.12889,3.31893 v 8.10543 h -3.6576 l -0.83538,-0.83538 h -0.13547 v -2.70933 q 0,-0.36125 0,-0.72249 0.0226,-0.36125 0.0226,-0.74507 0,-0.63218 -0.0226,-1.24178 0,-0.63218 -0.0226,-1.17404 -0.0226,-0.54187 -0.0677,-0.94827 -0.0226,-0.42898 -0.0677,-0.65476 -0.0452,-0.13546 -0.0903,-0.2032 -0.18063,-0.0677 -0.36125,-0.0677 -0.58702,0 -0.92569,0.45156 -0.31609,0.45155 -0.31609,1.19662 -0.51929,-0.13547 -0.94827,-0.49671 v 8.15058 h -3.680177 l -0.835378,-0.83538 h -0.135467 v -12.59841 h 3.815652 z m -0.45156,1.67076 v -1.35467 h -2.912536 v 11.6953 h 2.912536 v -8.15059 -0.6096 q 0.13547,0.31609 0.4064,0.6096 0.27093,0.27094 0.54187,0.36125 0,-0.67734 0.42897,-1.08374 0.42898,-0.42898 1.19663,-0.42898 0.58702,0 1.08373,0.36125 0.51929,0.36124 0.69991,1.08373 0.0677,0.27094 0.11289,0.85796 0.0452,0.58702 0.0677,1.33209 0.0226,0.74507 0.0226,1.58045 0,0.83538 0,1.6256 0,0.76764 -0.0226,1.4224 0,0.65476 0,1.03858 h 2.88996 v -7.72161 q 0,-1.98685 -1.01601,-3.048 -0.69991,-0.69991 -1.53529,-0.97085 -0.83537,-0.29351 -1.69333,-0.24835 -0.4064,0.0226 -0.88054,0.13546 -0.47413,0.11289 -0.92569,0.31609 -0.45155,0.2032 -0.83537,0.49671 -0.36125,0.29352 -0.54187,0.69992 z"
         id="path7318"
         style="font-size:22.5778px;line-height:1.25;font-family:'Fonarto XT';-inkscape-font-specification:'Fonarto XT, Normal';stroke-width:0.264583" />
      <path
         d="m 113.09668,223.40733 q -1.26435,-0.92569 -1.89653,-2.32552 -0.63218,-1.39982 -0.63218,-2.93511 0,-1.69334 0.8128,-3.22863 0.8128,-1.53529 2.4384,-2.48356 1.51272,-0.85795 3.34152,-0.85795 0.24835,0 0.49671,0.0226 0.27093,0 0.49671,0.0452 1.15147,0.18062 1.91911,0.65476 0.76765,0.45155 1.21921,1.03858 l 0.51929,0.51929 q 0.47413,0.47413 0.69991,1.03858 0.22577,0.56444 0.22577,1.08373 0,0.63218 -0.29351,1.15147 -0.29351,0.49671 -0.8128,0.74506 l -0.51929,-0.22577 -0.79022,-0.76765 -0.18062,-0.0903 q -0.0677,-0.22578 -0.2032,-0.42898 -0.36125,-0.18062 -0.79023,-0.27093 -0.4064,-0.0903 -0.83537,-0.0903 -0.51929,0 -1.03858,0.13546 -0.49671,0.13547 -0.94827,0.42898 -0.42898,0.29351 -0.74507,0.74507 -0.31609,0.42898 -0.45155,1.03858 -0.0677,0.31609 -0.0677,0.74507 0,0.4064 0.0677,0.79022 0.0903,0.36124 0.27093,0.72249 0.31609,0.22578 0.74507,0.36124 0.42898,0.11289 0.94826,0.11289 1.60303,0 2.7545,-1.49013 l 2.86738,2.05458 q -0.0452,0.0452 -0.0452,0.0677 l 0.85796,0.85796 q -2.05458,2.88996 -5.48641,2.88996 -1.51271,0 -2.68676,-0.49672 -1.15146,-0.47413 -1.96426,-1.28693 z m 7.47326,-6.77334 q 0.56444,-0.27094 0.76764,-0.92569 0.22578,-0.67734 -0.0226,-1.39983 -0.24835,-0.74507 -1.03858,-1.37724 -0.76764,-0.63218 -2.16746,-0.83538 -1.06116,-0.15805 -2.12232,0.0452 -1.03858,0.18063 -1.96427,0.69992 -1.24178,0.69991 -1.96426,1.8288 -0.72249,1.10631 -0.94827,2.37067 -0.2032,1.24178 0.0677,2.52871 0.27093,1.26436 1.03858,2.30294 0.76765,1.016 1.98685,1.67075 1.24178,0.63218 2.93511,0.63218 3.22863,0 4.94454,-2.41582 l -2.14489,-1.55787 q -1.016,1.33209 -2.84481,1.33209 -0.97084,0 -1.67075,-0.38382 -0.67734,-0.38383 -1.08374,-0.97085 -0.4064,-0.6096 -0.51929,-1.35467 -0.11289,-0.74507 0.0452,-1.46755 0.2032,-0.88054 0.72249,-1.44498 0.51929,-0.58703 1.19662,-0.88054 0.69991,-0.29351 1.46756,-0.29351 0.76764,-0.0226 1.44498,0.2032 0.67733,0.2032 1.17404,0.63218 0.51929,0.42898 0.69992,1.06116 z"
         id="path7320"
         style="font-size:22.5778px;line-height:1.25;font-family:'Fonarto XT';-inkscape-font-specification:'Fonarto XT, Normal';stroke-width:0.264583" />
      <path
         d="m 128.15607,219.59168 q 0.0903,0.65475 0.4064,1.24178 0.4064,0.27093 0.88053,0.33866 0.38383,0.0677 0.81281,0.0452 0.42897,-0.0452 0.85795,-0.22578 -0.79022,-0.0452 -1.44498,-0.27093 -0.63218,-0.22578 -1.016,-0.65476 z m 2.88996,-3.90596 q -1.26436,0.0677 -2.12232,1.06115 0.27094,0.0903 0.54187,0.11289 0.27094,0.0226 0.51929,0.0226 0.54187,0 1.08374,-0.0677 0.63217,-0.0452 0.90311,-0.22578 0.27093,-0.2032 0.27093,-0.45156 0,-0.0677 -0.0226,-0.11288 0,-0.0677 -0.0226,-0.13547 -0.24836,-0.11289 -0.54187,-0.15805 -0.29351,-0.0677 -0.6096,-0.0452 z m -4.94454,7.81192 q -1.28693,-0.94827 -1.91911,-2.37067 -0.63218,-1.4224 -0.63218,-2.98027 0,-1.26436 0.47413,-2.50614 0.49671,-1.24178 1.35467,-2.19004 0.97085,-1.01601 2.25778,-1.46756 1.30951,-0.45156 2.6416,-0.45156 1.64818,0 2.82223,0.6096 1.17404,0.6096 1.8288,1.53529 l 0.36124,0.36125 q 0.63218,0.63218 0.94827,1.39982 0.31609,0.76765 0.31609,1.55787 0,1.12889 -0.65475,2.12231 -0.63218,0.97085 -1.98685,1.49014 l 1.85138,0.88053 -0.0677,0.0903 0.85795,0.83538 q -1.10631,1.67076 -2.50613,2.39325 -1.39983,0.72249 -3.11574,0.72249 -1.49014,0 -2.6416,-0.49671 -1.12889,-0.47414 -1.91912,-1.26436 z m 6.2089,-4.01885 q 1.19662,-0.29351 1.89653,-0.94827 0.69991,-0.67733 0.92569,-1.51271 0.24836,-0.83538 0.0452,-1.71591 -0.2032,-0.90312 -0.83538,-1.62561 -0.63218,-0.74506 -1.64818,-1.2192 -1.016,-0.47413 -2.41583,-0.47413 -1.26435,0 -2.48356,0.4064 -1.19662,0.4064 -2.09973,1.37724 -0.83538,0.85796 -1.26436,1.98685 -0.4064,1.10631 -0.42898,2.28036 -0.0226,1.15147 0.33867,2.28036 0.38382,1.10631 1.12889,1.98684 0.76765,0.88054 1.89654,1.42241 1.15146,0.51928 2.66418,0.51928 1.6256,0 2.88996,-0.58702 1.26435,-0.6096 2.19004,-1.98684 l -2.37067,-1.15147 q -0.69991,0.72249 -1.60302,0.99342 -0.90311,0.27093 -1.76107,0.11289 -0.6096,-0.0903 -1.08373,-0.42898 -0.47414,-0.36124 -0.8128,-0.85796 -0.33867,-0.51928 -0.51929,-1.12889 -0.15805,-0.6096 -0.13547,-1.24177 0.0226,-0.76765 0.29351,-1.39983 0.27093,-0.63218 0.72249,-1.10631 0.45156,-0.47413 1.03858,-0.74507 0.58702,-0.27093 1.24178,-0.31609 0.6096,-0.0226 1.10631,0.15805 0.51929,0.18062 0.85796,0.47413 0.36124,0.29351 0.51929,0.65476 0.15804,0.36124 0.0677,0.69991 -0.0903,0.31609 -0.47413,0.56444 -0.36125,0.24836 -1.08374,0.31609 -0.85795,0.0903 -1.78364,0.0452 -0.92569,-0.0677 -1.62561,-0.65476 -0.33866,0.83538 -0.13546,1.51272 0.22577,0.65475 0.85795,1.06115 0.65476,0.38383 1.64818,0.47414 1.016,0.0903 2.23521,-0.22578 z"
         id="path7322"
         style="font-size:22.5778px;line-height:1.25;font-family:'Fonarto XT';-inkscape-font-specification:'Fonarto XT, Normal';stroke-width:0.264583" />
      <path
         style="fill:#298638;fill-opacity:1;fillRule:nonzero;stroke:#000000;stroke-width:0.0211659;stroke-opacity:1"
         d="m 129.72069,224.22676 c -1.34826,-0.0587 -2.36549,-0.39587 -3.32914,-1.10338 -0.72532,-0.53252 -1.27818,-1.18917 -1.69629,-2.01475 -0.45655,-0.90147 -0.67419,-1.84717 -0.67471,-2.93175 -2.7e-4,-0.81158 0.10543,-1.47493 0.35367,-2.21698 0.29134,-0.87089 0.73907,-1.58495 1.43077,-2.28182 0.32252,-0.32492 0.50688,-0.47934 0.84575,-0.70835 1.48279,-1.00207 4.07641,-1.27565 5.77918,-0.60959 0.64304,0.25154 1.21608,0.62471 1.68269,1.0958 0.5361,0.54125 0.85397,1.08442 1.02639,1.75389 0.0886,0.34387 0.11322,0.53713 0.11258,0.88221 -10e-4,0.63636 -0.18648,1.27184 -0.51991,1.78318 -0.5023,0.77032 -1.22651,1.26387 -2.27762,1.55219 -0.34076,0.0935 -0.78398,0.1849 -1.13534,0.23418 -0.38786,0.0544 -1.17019,0.0542 -1.52394,-2.6e-4 -1.0943,-0.1688 -1.77257,-0.57664 -2.11661,-1.27274 -0.20079,-0.40625 -0.22651,-0.81902 -0.0846,-1.35847 0.0281,-0.10689 0.0654,-0.22852 0.0828,-0.27027 l 0.0317,-0.0759 0.16026,0.11499 c 0.33211,0.2383 0.77175,0.42056 1.17501,0.48711 0.57835,0.0955 2.063,0.0422 2.59154,-0.093 0.48229,-0.12334 0.85672,-0.38235 1.00251,-0.69345 0.0522,-0.11141 0.057,-0.14336 0.0564,-0.37575 -7.9e-4,-0.28438 -0.0273,-0.37912 -0.17417,-0.62068 -0.23827,-0.39202 -0.71825,-0.75375 -1.25385,-0.94496 -0.79512,-0.28385 -1.68669,-0.20842 -2.51771,0.21301 -0.99418,0.50417 -1.67786,1.46513 -1.88844,2.65433 -0.0185,0.10454 -0.0281,0.34306 -0.028,0.69848 1e-4,0.47985 0.006,0.56662 0.0491,0.78217 0.18303,0.90611 0.65164,1.69646 1.32657,2.23734 0.17454,0.13987 0.49619,0.31219 0.72023,0.38586 0.37135,0.1221 0.9168,0.18218 1.35281,0.149 0.90396,-0.0688 1.72498,-0.42967 2.34259,-1.0297 l 0.11895,-0.11556 1.16031,0.56328 c 0.63817,0.3098 1.16471,0.56768 1.17009,0.57306 0.0162,0.0162 -0.13116,0.22537 -0.35315,0.50149 -0.24989,0.31081 -0.69888,0.75243 -0.97924,0.96315 -0.88093,0.66212 -1.92164,1.00619 -3.28169,1.08497 -0.35181,0.0204 -0.42869,0.0212 -0.73753,0.008 z"
         id="path8864" />
      <path
         style="fill:#298638;fill-opacity:1;fillRule:nonzero;stroke:#000000;stroke-width:0.0211659;stroke-opacity:1"
         d="m 116.39675,224.13284 c -0.88286,-0.082 -1.74481,-0.33864 -2.37058,-0.70587 -0.64694,-0.37964 -1.19433,-0.83291 -1.62427,-1.34498 -0.59473,-0.70833 -1.03907,-1.65223 -1.23054,-2.61399 -0.33588,-1.68714 -0.0555,-3.2631 0.83354,-4.68543 0.29212,-0.46734 0.5759,-0.80846 0.98414,-1.18294 1.06717,-0.97897 2.61111,-1.55334 4.18026,-1.55514 0.58476,-8e-4 1.07782,0.0611 1.6382,0.20527 0.7697,0.19801 1.29848,0.49308 1.81438,1.01246 0.41807,0.42089 0.66524,0.86714 0.77193,1.39368 0.0524,0.25866 0.0331,0.70764 -0.0414,0.95991 -0.12183,0.41287 -0.35341,0.74545 -0.64357,0.92422 l -0.12593,0.0776 -0.0658,-0.17284 c -0.2513,-0.66041 -0.90268,-1.21382 -1.76007,-1.49537 -0.54317,-0.17836 -1.06025,-0.24317 -1.68303,-0.21095 -0.94107,0.0487 -1.66123,0.35074 -2.29356,0.962 -0.30498,0.29481 -0.47896,0.52566 -0.63806,0.84664 -0.27601,0.55682 -0.40071,1.16105 -0.37348,1.80968 0.0384,0.9144 0.32231,1.63212 0.86934,2.1976 0.66159,0.68391 1.40517,0.98045 2.45692,0.97982 0.66286,-2.7e-4 1.13319,-0.0961 1.63945,-0.33345 0.35298,-0.16553 0.59407,-0.34146 0.92181,-0.67268 l 0.29651,-0.29966 1.01578,0.73822 c 0.55868,0.40603 1.03393,0.7512 1.05611,0.76705 0.0386,0.0276 0.0363,0.0342 -0.0515,0.15152 -0.26744,0.35722 -0.7053,0.81153 -1.02519,1.06371 -0.84926,0.66949 -1.82483,1.0478 -3.03253,1.17596 -0.31706,0.0337 -1.1928,0.0382 -1.51888,0.008 z"
         id="path8866" />
      <path
         style="fill:#298638;fill-opacity:1;fillRule:nonzero;stroke:#000000;stroke-width:0.0211659;stroke-opacity:1"
         d="m 98.437477,218.14513 v -5.84179 h 1.43928 1.439283 v 0.67731 c 0,0.37252 0.008,0.67731 0.017,0.67731 0.009,0 0.0388,-0.0452 0.0656,-0.10054 0.13211,-0.27287 0.38087,-0.5354 0.71434,-0.75389 0.83633,-0.54798 1.98618,-0.85471 2.92202,-0.77948 1.43976,0.11574 2.61764,0.82238 3.21748,1.93023 0.24067,0.44451 0.41198,1.0639 0.47123,1.70386 0.0138,0.14845 0.0216,1.69968 0.0216,4.2808 l 2e-5,4.04798 h -1.42957 -1.42957 l 0.0141,-2.22771 c 0.0191,-3.02769 -0.0218,-4.46822 -0.15238,-5.36868 -0.0997,-0.68766 -0.40005,-1.15799 -0.9354,-1.46485 -0.53296,-0.30549 -1.25049,-0.32324 -1.7925,-0.0444 -0.19002,0.0978 -0.48107,0.38352 -0.57641,0.56589 -0.0789,0.15091 -0.14571,0.38757 -0.16562,0.58661 -0.008,0.0789 -0.0245,0.14287 -0.037,0.14287 -0.0125,0 -0.0888,-0.0392 -0.16951,-0.0872 -0.20012,-0.11889 -0.4425,-0.37065 -0.59079,-0.61365 -0.0667,-0.1093 -0.13042,-0.21301 -0.14162,-0.23047 -0.0131,-0.0204 -0.0208,1.53763 -0.0216,4.35489 l -10e-4,4.38663 h -1.439285 -1.43928 z"
         id="path8868" />
      <path
         style="fill:#298638;fill-opacity:1;fillRule:nonzero;stroke:#000000;stroke-width:0.0211659;stroke-opacity:1"
         d="m 90.327598,224.21806 c -0.913577,-0.0524 -1.732891,-0.26195 -2.406578,-0.61553 -0.925674,-0.48583 -1.654358,-1.15211 -2.187191,-1.99988 -0.642319,-1.02196 -0.955916,-2.15457 -0.95439,-3.44693 0.0016,-1.44746 0.418473,-2.7685 1.201934,-3.80987 0.706141,-0.9386 1.582502,-1.60174 2.557452,-1.93524 1.609939,-0.5507 3.448539,-0.55557 4.744614,-0.0126 1.452163,0.60841 2.43804,1.74746 2.68102,3.09759 0.06723,0.37356 0.0631,0.85751 -0.01035,1.21145 -0.223369,1.07654 -0.843397,1.88372 -1.823903,2.37446 -0.912119,0.4565 -2.382546,0.71781 -3.381933,0.60099 -0.905177,-0.1058 -1.508808,-0.34636 -1.932617,-0.77017 -0.542761,-0.54276 -0.682858,-1.22167 -0.419246,-2.03168 0.0294,-0.0903 0.05999,-0.17063 0.06798,-0.17843 0.008,-0.008 0.08292,0.0361 0.16651,0.0976 0.315111,0.23183 0.766953,0.41941 1.170882,0.48608 0.58655,0.0968 2.04071,0.0433 2.603407,-0.0958 0.346192,-0.0856 0.616162,-0.23319 0.81919,-0.44786 0.199171,-0.2106 0.272616,-0.44249 0.23613,-0.74555 -0.07969,-0.66192 -0.827775,-1.31257 -1.765906,-1.53591 -0.99314,-0.23643 -2.181643,0.1114 -2.984516,0.87346 -0.489204,0.46434 -0.868986,1.12655 -1.027729,1.79202 -0.138506,0.58063 -0.138101,1.3935 0.0011,1.97912 0.08366,0.35227 0.304855,0.86263 0.517326,1.19363 0.323726,0.50433 0.822595,0.95146 1.282983,1.14995 0.427459,0.18428 1.012741,0.27063 1.554838,0.22938 0.895474,-0.0681 1.672915,-0.40377 2.307063,-0.996 l 0.158636,-0.14815 1.16494,0.56566 c 0.640715,0.31111 1.164936,0.57473 1.164936,0.58582 0,0.0111 -0.09695,0.1493 -0.21545,0.30713 -0.252709,0.33659 -0.702292,0.8071 -1.001588,1.04822 -0.89353,0.71984 -1.978245,1.09561 -3.400399,1.17799 -0.403365,0.0234 -0.465875,0.0233 -0.889034,-0.001 z"
         id="path8870" />
      <path
         style="fill:#298638;fill-opacity:1;fillRule:nonzero;stroke:#000000;stroke-width:0.0211659;stroke-opacity:1"
         d="m 79.451657,223.96549 c -0.500435,-0.0691 -0.881832,-0.23133 -1.26012,-0.53585 -0.313976,-0.25274 -0.545584,-0.57838 -0.662808,-0.9319 -0.135234,-0.40782 -0.129984,-0.24098 -0.130077,-4.13566 l -8.7e-5,-3.54 h -0.730224 -0.730223 v -1.20618 -1.20617 l 0.724932,-0.006 0.724931,-0.006 0.01151,-1.18529 c 0.01252,-1.29206 0.0097,-1.26011 0.14647,-1.62358 0.09258,-0.24594 0.365168,-0.60829 0.591164,-0.78584 0.422937,-0.33228 1.075455,-0.54173 1.859569,-0.59691 l 0.21695,-0.0153 v 2.10874 2.10873 h 1.312286 c 0.721759,0 1.312288,0.008 1.312288,0.0181 0,0.12429 -0.05352,0.6103 -0.08635,0.78414 -0.05478,0.29007 -0.108267,0.4597 -0.210878,0.6688 -0.217432,0.44307 -0.629026,0.76865 -1.112237,0.8798 -0.15036,0.0346 -0.292534,0.0459 -0.701831,0.0557 l -0.513273,0.0123 v 3.25277 c 0,3.57518 -0.0072,3.37755 0.128529,3.54163 0.182311,0.22043 0.683898,0.31411 1.120259,0.20922 0.361419,-0.0869 0.62538,-0.22458 0.802961,-0.41888 l 0.105005,-0.11489 0.05654,0.17514 c 0.04471,0.13849 0.05868,0.23049 0.06675,0.43971 0.01225,0.31766 -0.01884,0.47717 -0.143055,0.73412 -0.309544,0.64023 -0.960337,1.08895 -1.851248,1.27641 -0.241112,0.0507 -0.818059,0.074 -1.047712,0.0423 z"
         id="path8872" />
      <path
         style="fill:#298638;fill-opacity:1;fillRule:nonzero;stroke:#000000;stroke-width:0.0211659;stroke-opacity:1"
         d="m 69.186194,224.17589 c -0.995838,-0.1104 -1.90633,-0.47892 -2.642737,-1.06966 -0.328843,-0.2638 -0.867892,-0.84103 -0.843532,-0.90329 0.01003,-0.0256 1.746343,-1.89888 1.76008,-1.89888 0.004,0 0.129696,0.12255 0.279363,0.27234 0.382588,0.3829 0.651878,0.5718 1.06584,0.74765 0.346376,0.14714 0.686834,0.23741 0.991137,0.26278 0.291391,0.0243 0.688348,-0.046 0.916146,-0.16218 0.130799,-0.0667 0.308896,-0.24643 0.372406,-0.37577 0.05222,-0.10633 0.05912,-0.14397 0.05893,-0.32151 -2.52e-4,-0.23048 -0.04182,-0.34547 -0.210217,-0.58145 -0.213879,-0.29972 -0.506918,-0.50322 -1.344687,-0.9338 -1.156689,-0.5945 -1.595609,-0.85632 -2.079574,-1.2405 -0.624152,-0.49547 -1.118452,-1.15819 -1.283523,-1.72084 -0.228349,-0.77835 -0.137843,-1.70196 0.232749,-2.37518 0.484256,-0.87972 1.368044,-1.49824 2.47061,-1.72907 0.361119,-0.0756 0.627795,-0.10309 1.008404,-0.10395 0.632655,-10e-4 1.248814,0.11564 1.720574,0.32689 0.499484,0.22367 1.056072,0.76491 1.211681,1.17827 0.136689,0.36311 0.173154,0.76162 0.09788,1.06965 -0.108013,0.44198 -0.374033,0.8423 -0.712467,1.07214 -0.126481,0.0859 -0.28226,0.16968 -0.315492,0.16968 -0.01146,0 -0.05522,-0.0654 -0.09722,-0.14532 -0.253762,-0.48291 -0.816264,-0.87902 -1.433261,-1.00929 -0.224206,-0.0473 -0.592688,-0.0628 -0.76843,-0.0322 -0.605959,0.10553 -0.942747,0.56347 -0.728988,0.99124 0.13089,0.26193 0.414348,0.46692 1.071322,0.77474 0.927746,0.4347 1.746792,0.8698 2.187403,1.16203 0.43561,0.28891 0.875144,0.71718 1.131739,1.10274 0.409729,0.61564 0.582285,1.17894 0.582576,1.90175 2.64e-4,0.95905 -0.299257,1.7218 -0.928002,2.36228 -0.483505,0.49253 -1.107417,0.84309 -1.851724,1.04043 -0.458457,0.12154 -0.828318,0.1728 -1.305171,0.18086 -0.238644,0.004 -0.514861,-0.002 -0.61381,-0.0126 z"
         id="path8874" />
      <path
         style="fill:#298638;fill-opacity:1;fillRule:nonzero;stroke:#000000;stroke-width:0.0211659;stroke-opacity:1"
         d="m 60.069955,219.22988 c 0.0078,-5.15686 5.29e-4,-4.83141 0.11875,-5.26272 0.160716,-0.58581 0.541165,-1.04437 1.097896,-1.32329 0.312823,-0.15673 0.820383,-0.27948 1.315935,-0.31825 0.156575,-0.0122 0.301826,-0.0223 0.322781,-0.0223 0.0366,0 0.0381,0.23034 0.0381,5.84179 v 5.84179 h -1.450314 -1.450311 z"
         id="path8876" />
      <path
         style="fill:#298638;fill-opacity:1;fillRule:nonzero;stroke:#000000;stroke-width:0.0211659;stroke-opacity:1"
         d="m 59.993831,212.08639 c -0.354824,-1.28552 -0.440436,-2.27258 -0.27034,-3.11689 0.140544,-0.69762 0.634193,-1.22323 1.324411,-1.41018 0.133927,-0.0363 0.231283,-0.0462 0.465651,-0.0473 0.33423,-0.002 0.48814,0.0285 0.744503,0.14579 0.214712,0.0982 0.329287,0.18024 0.543137,0.38876 0.280149,0.27316 0.432742,0.51712 0.527116,0.84274 0.04093,0.14124 0.04778,0.21398 0.04739,0.50373 -2.65e-4,0.28639 -0.0078,0.3641 -0.04778,0.50351 -0.120936,0.42127 -0.35406,0.76749 -0.677172,1.0057 -0.188687,0.13911 -0.352896,0.21924 -0.608586,0.29699 -0.116113,0.0353 -0.404734,0.12249 -0.64138,0.19374 -0.475776,0.14324 -0.867198,0.29978 -1.030044,0.41194 -0.107137,0.0738 -0.229661,0.21736 -0.294399,0.34498 -0.01918,0.0378 -0.03739,0.0688 -0.04044,0.0688 -0.003,0 -0.02199,-0.0595 -0.04206,-0.13229 z"
         id="path8878" />
      <path
         style="fill:#298638;fill-opacity:1;fillRule:nonzero;stroke:#000000;stroke-width:0.0211659;stroke-opacity:1"
         d="m 52.645037,224.17681 c -1.21925,-0.13698 -2.268524,-0.63486 -3.076614,-1.45984 -0.214606,-0.2191 -0.431827,-0.48446 -0.420143,-0.51326 0.0098,-0.0243 1.465149,-1.59794 1.676898,-1.81328 l 0.09198,-0.0935 0.206362,0.21703 c 0.5114,0.53785 1.015109,0.83102 1.738934,1.01211 0.197083,0.0493 0.267597,0.0566 0.533975,0.055 0.338679,-0.002 0.535693,-0.0406 0.74232,-0.14531 0.154009,-0.078 0.325628,-0.24673 0.395245,-0.38849 0.05137,-0.10459 0.05831,-0.14298 0.05831,-0.32234 0,-0.19898 -0.0021,-0.20789 -0.09462,-0.39157 -0.07503,-0.14904 -0.131998,-0.22541 -0.275156,-0.36886 -0.238787,-0.23927 -0.445143,-0.37087 -1.154169,-0.73605 -1.343914,-0.69218 -1.753674,-0.94575 -2.317667,-1.43422 -0.302554,-0.26203 -0.638131,-0.6637 -0.838507,-1.00363 -0.458288,-0.77746 -0.481693,-1.95339 -0.05582,-2.80448 0.497385,-0.994 1.439778,-1.65017 2.688476,-1.87195 0.8343,-0.14818 1.752817,-0.0687 2.460199,0.21299 0.547865,0.21813 1.078426,0.69966 1.293474,1.17394 0.158681,0.34997 0.202247,0.82501 0.106561,1.16195 -0.147984,0.52109 -0.437827,0.89617 -0.874528,1.13173 l -0.159181,0.0859 -0.04029,-0.0899 c -0.299546,-0.668 -1.12725,-1.1392 -1.998139,-1.1375 -0.429675,7.9e-4 -0.806175,0.18377 -0.963763,0.46828 -0.05506,0.0994 -0.06274,0.13417 -0.06242,0.28268 2.65e-4,0.13599 0.01005,0.18762 0.04959,0.26229 0.128794,0.24324 0.456668,0.48338 1.011677,0.74097 0.828754,0.38463 1.636765,0.80629 2.123839,1.10832 0.524047,0.32496 1.038882,0.82308 1.329317,1.28614 0.136007,0.21685 0.335667,0.64816 0.393949,0.85102 0.09531,0.33177 0.124555,0.61329 0.111604,1.07448 -0.01275,0.45386 -0.04832,0.67774 -0.161213,1.01471 -0.135866,0.40554 -0.335934,0.75114 -0.633397,1.09417 -0.466241,0.53766 -1.191048,0.96675 -1.982708,1.17377 -0.459221,0.12008 -0.825937,0.17038 -1.301139,0.17844 -0.238646,0.004 -0.510098,-0.001 -0.603229,-0.0116 z"
         id="path8880" />
      <path
         style="fill:#298638;fill-opacity:1;fillRule:nonzero;stroke:#000000;stroke-width:0.0211659;stroke-opacity:1"
         d="m 39.511594,218.12397 v -5.86296 h 1.248789 1.248788 v 0.74081 c 0,0.40744 0.0075,0.7408 0.01675,0.7408 0.0092,0 0.04337,-0.0548 0.07589,-0.1217 0.108728,-0.22376 0.3741,-0.59749 0.569106,-0.80147 0.243282,-0.25447 0.495938,-0.44534 0.766942,-0.57937 0.394378,-0.19505 0.764892,-0.26792 1.259372,-0.24767 0.490151,0.0201 0.864952,0.14651 1.217041,0.41057 0.443362,0.3325 0.723122,0.75989 0.863044,1.31848 0.06289,0.25105 0.06162,0.71922 -0.0026,0.95853 -0.06381,0.23779 -0.200088,0.48544 -0.361023,0.65603 -0.197491,0.20935 -0.194956,0.20896 -0.278996,0.0434 -0.0882,-0.17377 -0.265856,-0.35637 -0.432887,-0.44493 -0.180205,-0.0956 -0.473903,-0.17547 -0.699392,-0.19032 -0.245991,-0.0162 -0.489601,0.0189 -0.763884,0.10997 -0.420433,0.13963 -0.69443,0.31264 -1.035438,0.6538 -0.34946,0.34961 -0.520597,0.6537 -0.644314,1.14485 -0.133919,0.53165 -0.146635,0.91272 -0.14709,4.40795 l -2.64e-4,2.92619 H 40.961564 39.5117 Z"
         id="path8882" />
      <path
         style="fill:#298638;fill-opacity:1;fillRule:nonzero;stroke:#000000;stroke-width:0.0211659;stroke-opacity:1"
         d="m 31.553214,224.228 c -1.035286,-0.0544 -1.852359,-0.2529 -2.550494,-0.61963 -1.111969,-0.58413 -1.913382,-1.39433 -2.478495,-2.50568 -0.335375,-0.65955 -0.534728,-1.33505 -0.635688,-2.154 -0.04257,-0.34533 -0.04825,-1.15509 -0.0104,-1.48087 0.135308,-1.1643 0.481886,-2.13636 1.055587,-2.96064 0.412324,-0.59242 1.026517,-1.19797 1.586381,-1.56407 0.816388,-0.53385 1.925569,-0.86 3.188877,-0.93768 1.129554,-0.0694 2.193058,0.13254 3.038989,0.57719 1.47488,0.77526 2.335606,2.06485 2.33526,3.49884 -1.48e-4,0.64483 -0.183748,1.27956 -0.518679,1.7932 -0.529727,0.81239 -1.290272,1.30692 -2.460855,1.60012 -1.06876,0.2677 -1.996424,0.30594 -2.845149,0.11728 -0.883179,-0.19631 -1.454042,-0.5928 -1.757664,-1.22079 -0.123942,-0.25635 -0.157054,-0.41731 -0.155387,-0.75529 0.0013,-0.24617 0.01019,-0.31944 0.06478,-0.52914 0.03485,-0.13388 0.07834,-0.27908 0.09664,-0.32267 l 0.03327,-0.0793 0.15807,0.11341 c 0.335516,0.24072 0.75514,0.41422 1.18822,0.49129 0.172392,0.0307 0.333386,0.0377 0.867802,0.038 0.864724,5.3e-4 1.474755,-0.056 1.839269,-0.17023 0.402387,-0.12612 0.731981,-0.36941 0.864032,-0.63777 0.06701,-0.1362 0.0694,-0.14998 0.06856,-0.39548 -7.94e-4,-0.23009 -0.0066,-0.26805 -0.06067,-0.39776 -0.171977,-0.41239 -0.542034,-0.77781 -1.03909,-1.02606 -0.878205,-0.43862 -1.890872,-0.41342 -2.845777,0.0708 -0.989475,0.50177 -1.701024,1.5029 -1.885907,2.65342 -0.03729,0.23206 -0.05383,0.66522 -0.03733,0.97753 0.05678,1.07458 0.567986,2.08832 1.382469,2.74146 0.443341,0.35552 1.064625,0.54108 1.809686,0.54049 0.972286,-7.9e-4 1.852586,-0.34136 2.555089,-0.98858 l 0.173929,-0.16024 1.158854,0.56281 c 0.637371,0.30955 1.162982,0.56695 1.168027,0.57199 0.01439,0.0144 -0.123047,0.21234 -0.315709,0.45468 -0.87816,1.10459 -1.929008,1.72743 -3.357239,1.98983 -0.440833,0.081 -1.252879,0.13586 -1.679274,0.11346 z"
         id="path8884" />
      <path
         style="fill:#298638;fill-opacity:1;fillRule:nonzero;stroke:#000000;stroke-width:0.0211659;stroke-opacity:1"
         d="m 12.842918,217.33554 c 2.33e-4,-4.21069 0.008,-6.72517 0.0212,-6.85247 0.08214,-0.79273 0.404248,-1.49075 0.844121,-1.82922 0.257728,-0.19832 0.575853,-0.33082 0.975745,-0.40642 0.182598,-0.0345 0.385862,-0.0387 2.211837,-0.0456 2.439366,-0.009 2.755107,0.007 3.422389,0.17623 1.117477,0.28327 2.123708,1.02563 2.762604,2.03816 0.373532,0.59197 0.638063,1.32877 0.761107,2.11991 0.04684,0.30117 0.05348,1.26144 0.01113,1.60861 -0.187302,1.53526 -0.749124,2.75833 -1.706849,3.71577 -0.525126,0.52497 -0.993811,0.84776 -1.562171,1.07588 -0.820045,0.32915 -1.916883,0.41948 -2.844763,0.23427 -0.422399,-0.0843 -0.702794,-0.20067 -0.981025,-0.40711 -0.567088,-0.42078 -0.83189,-0.92794 -0.831265,-1.59209 2.91e-4,-0.3083 0.034,-0.49697 0.149271,-0.83532 0.101237,-0.29716 0.279908,-0.62345 0.31159,-0.56902 0.143816,0.24707 0.529928,0.43116 1.132376,0.53989 0.336804,0.0608 1.026009,0.0771 1.322869,0.0313 0.500994,-0.0773 0.878709,-0.27874 1.229656,-0.65579 0.503244,-0.54069 0.771826,-1.27056 0.77227,-2.09865 2.91e-4,-0.55919 -0.109473,-0.98567 -0.363966,-1.41404 -0.242174,-0.40764 -0.779095,-0.80736 -1.271231,-0.94639 -0.337299,-0.0953 -0.513813,-0.10455 -2.001795,-0.10499 l -1.402241,-5.3e-4 v 6.43444 6.43444 H 14.324164 12.84255 Z"
         id="path8886" />
    </g>
  </g>
</svg>
