<?xml version="1.0" encoding="UTF-8" standalone="no"?>
<!-- Created with Inkscape (http://www.inkscape.org/) -->

<svg
   width="85.163383mm"
   height="17.837112mm"
   viewBox="0 0 85.163383 17.837112"
   version="1.1"
   id="svg5"
   xmlns:inkscape="http://www.inkscape.org/namespaces/inkscape"
   xmlns:sodipodi="http://sodipodi.sourceforge.net/DTD/sodipodi-0.dtd"
   xmlns="http://www.w3.org/2000/svg"
   xmlns:svg="http://www.w3.org/2000/svg">
  <sodipodi:namedview
     id="namedview7"
     pagecolor="#ffffff"
     bordercolor="#666666"
     borderopacity="1.0"
     inkscape:showpageshadow="2"
     inkscape:pageopacity="0.0"
     inkscape:pagecheckerboard="0"
     inkscape:deskcolor="#d1d1d1"
     inkscape:document-units="mm"
     showgrid="false" />
  <defs
     id="defs2" />
  <g
     inkscape:groupmode="layer"
     id="layer2"
     inkscape:label="Layer 2"
     transform="translate(-62.418302,-252.25819)">
    <g
       id="g10743">
      <g
         aria-label="Patches"
         id="text7296"
         style="font-size:22.5778px;line-height:1.25;font-family:'Fonarto XT';-inkscape-font-specification:'Fonarto XT, Normal';stroke-width:0.264583"
         transform="translate(50.739347)">
        <path
           d="m 16.397717,260.00306 q 0.451556,0.24836 0.948268,0.33867 0.496711,0.0903 0.8128,0.0452 h -0.02258 q 0.699911,-0.15804 1.12889,-0.8128 0.428978,-0.67733 0.428978,-1.46755 0,-0.51929 -0.248356,-1.016 -0.2032,-0.0677 -0.428978,-0.11289 -0.2032,-0.0452 -0.451556,-0.0452 h -2.167469 z m 1.693335,-7.74418 q 1.603024,0 2.709336,0.58702 1.12889,0.56444 1.806224,1.51271 l 0.338667,0.33867 q 0.790223,0.79022 1.174046,1.87396 0.383822,1.08373 0.383822,2.25778 0,1.15146 -0.383822,2.28035 -0.361245,1.10632 -1.061157,1.98685 -0.699912,0.88053 -1.73849,1.44498 -1.038579,0.54187 -2.348092,0.54187 -0.948267,0 -1.580446,-0.22578 -0.6096,-0.22578 -0.993423,-0.6096 v 5.55414 h -3.747915 l -0.835379,-0.83538 H 11.678957 V 255.4875 q 0,-0.72249 0.158044,-1.30951 0.158045,-0.6096 0.496712,-1.016 0.361245,-0.42898 0.92569,-0.65476 0.564445,-0.24835 1.354668,-0.24835 z m -3.476981,0.45155 q -1.354668,0 -1.919113,0.76765 -0.564445,0.76764 -0.564445,2.00942 v 13.02739 h 2.980269 v -12.86934 h 2.551292 q 0.857956,0 1.399823,0.36124 0.564445,0.33867 0.812801,0.88054 0.270934,0.54186 0.270934,1.19662 0,0.63218 -0.225778,1.2192 -0.2032,0.56444 -0.654756,0.99342 -0.428979,0.42898 -1.038579,0.54187 -0.248356,0.0452 -0.632179,0.0452 -0.383822,0 -0.790223,-0.0677 -0.383822,-0.0677 -0.699911,-0.2032 -0.31609,-0.13546 -0.428979,-0.38382 -0.316089,0.45156 -0.428978,1.06116 -0.112889,0.6096 0.112889,1.17404 0.225778,0.54187 0.857957,0.94827 0.654756,0.38382 1.851379,0.38382 1.580446,0 2.709336,-0.8128 1.12889,-0.83538 1.738491,-2.05458 0.609601,-1.24178 0.677334,-2.66418 0.09031,-1.44498 -0.451556,-2.66418 -0.519289,-1.24178 -1.670757,-2.05458 -1.151468,-0.83538 -2.98027,-0.83538 z"
           id="path9338" />
        <path
           d="m 37.124129,268.51489 v -11.6953 h -2.935114 v 1.24178 3.56729 q 0,0.79023 -0.158044,1.60303 -0.135467,0.79022 -0.496712,1.44498 -0.338667,0.63217 -0.92569,1.03858 -0.587023,0.4064 -1.490135,0.4064 -1.061156,0 -1.783646,-0.49672 -0.699912,-0.51929 -1.061157,-1.28693 -0.338667,-0.76765 -0.338667,-1.64818 0.02258,-0.90311 0.383823,-1.67076 0.361245,-0.76764 1.061157,-1.26435 0.699911,-0.51929 1.73849,-0.51929 0.654757,0 1.354668,0.2032 0.699912,0.18062 1.083735,0.74506 0.2032,-0.36124 0.180622,-0.94826 0,-0.6096 -0.316089,-1.19663 -0.293511,-0.58702 -0.948268,-1.016 -0.654756,-0.45155 -1.73849,-0.49671 -1.106313,-0.0452 -2.144891,0.4064 -1.016001,0.42898 -1.828802,1.24178 -0.790223,0.8128 -1.264357,1.96427 -0.474134,1.15147 -0.474134,2.50613 0,1.42241 0.428978,2.5513 0.451556,1.10631 1.174046,1.91911 0.745067,0.79022 1.693335,1.2192 0.970845,0.42898 1.986847,0.45156 1.016001,0.0452 2.009424,-0.31609 1.016001,-0.38383 1.873957,-1.24178 v 1.28693 z m -9.934232,-0.31609 q -1.151468,-0.8128 -1.896535,-2.21262 -0.72249,-1.4224 -0.72249,-3.34152 0,-1.46755 0.51929,-2.68675 0.519289,-1.21921 1.377245,-2.09974 0.857957,-0.88053 1.964269,-1.35467 1.12889,-0.47413 2.325514,-0.42898 1.12889,0.0452 1.828801,0.49672 0.699912,0.42897 1.106313,1.016 l 0.04516,0.0451 v -1.26435 h 3.838226 v 0.13546 l 0.835379,0.83538 v 12.46295 H 34.70831 l -0.496712,-0.49671 q -0.677334,0.42897 -1.377246,0.6096 -0.699912,0.18062 -1.444979,0.18062 -1.106312,0 -2.144891,-0.42898 -1.016001,-0.42898 -1.828802,-1.24178 z m 3.928537,-2.52871 q 0.767646,0 1.264357,-0.36125 0.51929,-0.36124 0.812801,-0.94826 0.293511,-0.58703 0.4064,-1.28694 0.135467,-0.72249 0.135467,-1.44498 v -0.56444 l -0.09031,-0.0903 -0.04516,0.0677 -0.112889,-0.15804 q -0.383822,-0.2032 -0.767645,-0.27094 -0.383822,-0.0903 -0.699912,-0.0903 -0.699911,0 -1.219201,0.27093 -0.519289,0.27094 -0.880534,0.69992 -0.338667,0.42897 -0.51929,0.99342 -0.158044,0.56444 -0.158044,1.12889 0,0.42898 0.06773,0.83538 0.09031,0.4064 0.270934,0.76764 0.632178,0.45156 1.53529,0.45156 z"
           id="path9340" />
        <path
           d="m 40.601104,255.01337 q 0,-0.74507 0.316089,-1.26436 0.316089,-0.54187 0.835378,-0.85796 0.51929,-0.33866 1.196624,-0.47413 0.677334,-0.15804 1.399823,-0.15804 v 0.13546 l 0.835379,0.83538 v 3.22863 h 1.783646 v 0.13546 l 0.835379,0.83538 q 0,0.58703 -0.112889,1.15147 -0.09031,0.56445 -0.361245,1.03858 -0.248356,0.45156 -0.722489,0.74507 -0.451556,0.27093 -1.174046,0.27093 h -0.248356 v 5.12516 q 0.51929,-0.29351 0.970846,-1.016 l 0.09031,0.31609 0.790223,0.76764 q 0.2032,0.58703 0.316089,0.99343 0.112889,0.38382 0.112889,0.58702 0,0.56445 -0.270934,1.016 -0.248355,0.42898 -0.677334,0.72249 -0.428978,0.31609 -0.970845,0.47413 -0.541867,0.18063 -1.106312,0.18063 -0.587023,0 -1.151468,-0.2032 -0.564445,-0.18063 -0.970846,-0.58703 l -0.496711,-0.49671 q -0.541867,-0.31609 -0.880534,-0.90311 -0.338667,-0.6096 -0.338667,-1.51271 v -5.46383 H 40.12697 l -0.835379,-0.83538 h -0.135467 v -3.34151 h 1.44498 z m 0.451556,0 v 1.89653 h -1.44498 v 2.43841 h 1.44498 v 6.75076 q 0,0.94827 0.451556,1.51271 0.451556,0.54187 1.083734,0.76765 0.654756,0.2032 1.377246,0.11288 0.745067,-0.11288 1.286935,-0.45155 0.564445,-0.36125 0.8128,-0.92569 0.270934,-0.58702 -0.02258,-1.33209 -0.158045,0.27093 -0.51929,0.42898 -0.361245,0.15804 -0.72249,0.18062 -0.361244,0 -0.632178,-0.13547 -0.270934,-0.15804 -0.270934,-0.51929 v -6.38951 h 0.632179 q 0.609601,0 0.993423,-0.2032 0.383823,-0.22578 0.609601,-0.56445 0.225778,-0.36124 0.293511,-0.79022 0.09031,-0.42898 0.09031,-0.88054 h -2.619025 v -4.19947 q -0.541867,0 -1.061156,0.13547 -0.51929,0.11289 -0.92569,0.38382 -0.383823,0.27094 -0.632178,0.72249 -0.225778,0.42898 -0.225778,1.06116 z"
           id="path9342" />
        <path
           d="m 50.399867,267.92787 q -1.264357,-0.92569 -1.896535,-2.32551 -0.632178,-1.39983 -0.632178,-2.93512 0,-1.69333 0.8128,-3.22862 0.812801,-1.53529 2.438403,-2.48356 1.512713,-0.85796 3.341514,-0.85796 0.248356,0 0.496712,0.0226 0.270934,0 0.496712,0.0452 1.151468,0.18062 1.919113,0.65475 0.767645,0.45156 1.219201,1.03858 l 0.519289,0.51929 q 0.474134,0.47413 0.699912,1.03858 0.225778,0.56444 0.225778,1.08373 0,0.63218 -0.293511,1.15147 -0.293512,0.49671 -0.812801,0.74507 l -0.519289,-0.22578 -0.790223,-0.76764 -0.180623,-0.0903 q -0.06773,-0.22577 -0.2032,-0.42897 -0.361245,-0.18063 -0.790223,-0.27094 -0.4064,-0.0903 -0.835379,-0.0903 -0.519289,0 -1.038579,0.13547 -0.496711,0.13546 -0.948267,0.42898 -0.428978,0.29351 -0.745068,0.74506 -0.316089,0.42898 -0.451556,1.03858 -0.06773,0.31609 -0.06773,0.74507 0,0.4064 0.06773,0.79022 0.09031,0.36125 0.270934,0.72249 0.316089,0.22578 0.745067,0.36125 0.428979,0.11289 0.948268,0.11289 1.603024,0 2.754492,-1.49014 l 2.86738,2.05458 q -0.04515,0.0452 -0.04515,0.0677 l 0.857956,0.85796 q -2.05458,2.88996 -5.486405,2.88996 -1.512713,0 -2.686759,-0.49671 -1.151467,-0.47414 -1.964268,-1.28694 z m 7.473252,-6.77334 q 0.564445,-0.27093 0.767646,-0.92569 0.225778,-0.67733 -0.02258,-1.39982 -0.248356,-0.74507 -1.038579,-1.37725 -0.767645,-0.63218 -2.167469,-0.83538 -1.061157,-0.15804 -2.122313,0.0452 -1.038579,0.18062 -1.964269,0.69991 -1.241779,0.69991 -1.964269,1.8288 -0.722489,1.10631 -0.948267,2.37067 -0.2032,1.24178 0.06773,2.52871 0.270934,1.26436 1.038579,2.30294 0.767645,1.016 1.986847,1.67076 1.241779,0.63217 2.935114,0.63217 3.228625,0 4.944538,-2.41582 l -2.144891,-1.55787 q -1.016001,1.33209 -2.844803,1.33209 -0.970845,0 -1.670757,-0.38382 -0.677334,-0.38382 -1.083735,-0.97085 -0.4064,-0.6096 -0.519289,-1.35466 -0.112889,-0.74507 0.04516,-1.46756 0.2032,-0.88054 0.722489,-1.44498 0.51929,-0.58702 1.196624,-0.88053 0.699911,-0.29352 1.467557,-0.29352 0.767645,-0.0226 1.444979,0.2032 0.677334,0.2032 1.174046,0.63218 0.519289,0.42898 0.699911,1.06116 z"
           id="path9344" />
        <path
           d="m 64.939964,252.39434 0.835378,0.83538 v 3.58987 q 0.451556,-0.18062 0.92569,-0.29351 0.474134,-0.11289 0.880534,-0.15804 0.903112,-0.0452 1.828802,0.27093 0.92569,0.31609 1.64818,1.06116 0.112889,0.11289 0.180622,0.22577 0.09031,0.11289 0.180622,0.24836 l 0.451556,0.42898 -0.158044,-0.13547 0.2032,0.18062 q 1.106312,1.15147 1.106312,3.25121 v 7.90223 h -3.58987 l -0.835379,-0.83538 H 68.4621 v -2.6416 q 0,-0.33867 0,-0.67734 0.02258,-0.36124 0.02258,-0.74507 0,-0.6096 -0.02258,-1.19662 0,-0.6096 -0.02258,-1.12889 -0.02258,-0.54187 -0.06773,-0.94827 -0.02258,-0.42897 -0.06773,-0.65475 l -0.09031,-0.2032 q -0.180623,-0.0452 -0.293512,-0.0452 -0.587023,0 -0.903112,0.45156 -0.316089,0.42898 -0.316089,1.15147 -0.270934,-0.0903 -0.541867,-0.18063 -0.270934,-0.11289 -0.383823,-0.2032 v 7.85708 h -3.612448 l -0.835379,-0.83538 h -0.135466 v -13.95308 q 0,-1.28694 0.993423,-2.032 1.016001,-0.74507 2.754492,-0.72249 z m -0.451556,0.31609 q -1.309513,-0.0226 -2.077158,0.6096 -0.767645,0.6096 -0.767645,1.69334 v 13.50152 h 2.844803 v -8.53441 q 0.112889,0.31609 0.383822,0.58703 0.293512,0.27093 0.541867,0.33866 0,-0.65475 0.406401,-1.06115 0.428978,-0.4064 1.196623,-0.4064 0.587023,0 1.061157,0.36124 0.474134,0.36125 0.654756,1.03858 0.06773,0.27093 0.112889,0.83538 0.04516,0.56444 0.06773,1.30951 0.02258,0.72249 0.02258,1.55787 0,0.8128 0,1.58045 0,0.74506 -0.02258,1.39982 0,0.63218 0,0.99342 h 2.822225 v -7.51841 q 0,-1.94169 -0.993424,-2.98026 -0.677334,-0.69992 -1.490134,-0.97085 -0.812801,-0.27093 -1.64818,-0.22578 -0.4064,0.0226 -0.880534,0.13547 -0.451556,0.11289 -0.903112,0.31609 -0.428978,0.18062 -0.790223,0.47413 -0.361245,0.29351 -0.541867,0.67734 z"
           id="path9346" />
        <path
           d="m 78.260854,264.11222 q 0.09031,0.65476 0.406401,1.24178 0.4064,0.27093 0.880534,0.33867 0.383823,0.0677 0.812801,0.0451 0.428978,-0.0451 0.857956,-0.22577 -0.790223,-0.0452 -1.444979,-0.27094 -0.632178,-0.22578 -1.016001,-0.65475 z m 2.889959,-3.90596 q -1.264357,0.0677 -2.122313,1.06116 0.270933,0.0903 0.541867,0.11289 0.270933,0.0226 0.519289,0.0226 0.541867,0 1.083735,-0.0677 0.632178,-0.0451 0.903112,-0.22578 0.270933,-0.2032 0.270933,-0.45155 0,-0.0677 -0.02258,-0.11289 0,-0.0677 -0.02258,-0.13547 -0.248356,-0.11289 -0.541867,-0.15804 -0.293512,-0.0677 -0.609601,-0.0452 z m -4.944538,7.81192 q -1.286935,-0.94827 -1.919114,-2.37067 -0.632178,-1.4224 -0.632178,-2.98027 0,-1.26435 0.474134,-2.50613 0.496711,-1.24178 1.354668,-2.19005 0.970845,-1.016 2.25778,-1.46756 1.309512,-0.45155 2.641603,-0.45155 1.648179,0 2.822225,0.6096 1.174045,0.6096 1.828802,1.53529 l 0.361244,0.36124 q 0.632179,0.63218 0.948268,1.39983 0.316089,0.76764 0.316089,1.55786 0,1.12889 -0.654756,2.12232 -0.632178,0.97084 -1.986846,1.49013 l 1.851379,0.88054 -0.06773,0.0903 0.857956,0.83538 q -1.106312,1.67075 -2.506136,2.39324 -1.399823,0.72249 -3.115736,0.72249 -1.490135,0 -2.641603,-0.49671 -1.12889,-0.47413 -1.919113,-1.26436 z m 6.208895,-4.01885 q 1.196623,-0.29351 1.896535,-0.94827 0.699912,-0.67733 0.92569,-1.51271 0.248356,-0.83538 0.04515,-1.71591 -0.2032,-0.90311 -0.835378,-1.6256 -0.632179,-0.74507 -1.64818,-1.2192 -1.016001,-0.47414 -2.415824,-0.47414 -1.264357,0 -2.483558,0.4064 -1.196624,0.4064 -2.099736,1.37725 -0.835379,0.85796 -1.264357,1.98685 -0.4064,1.10631 -0.428978,2.28035 -0.02258,1.15147 0.338667,2.28036 0.383823,1.10631 1.12889,1.98685 0.767645,0.88053 1.896535,1.4224 1.151468,0.51929 2.664181,0.51929 1.625602,0 2.889958,-0.58702 1.264357,-0.60961 2.190047,-1.98685 l -2.370669,-1.15147 q -0.699912,0.72249 -1.603024,0.99342 -0.903112,0.27094 -1.761068,0.11289 -0.609601,-0.0903 -1.083735,-0.42897 -0.474134,-0.36125 -0.812801,-0.85796 -0.338667,-0.51929 -0.519289,-1.12889 -0.158045,-0.6096 -0.135467,-1.24178 0.02258,-0.76765 0.293512,-1.39982 0.270933,-0.63218 0.722489,-1.10632 0.451556,-0.47413 1.038579,-0.74506 0.587023,-0.27094 1.241779,-0.31609 0.609601,-0.0226 1.106312,0.15804 0.51929,0.18062 0.857957,0.47414 0.361245,0.29351 0.519289,0.65475 0.158045,0.36125 0.06773,0.69991 -0.09031,0.31609 -0.474134,0.56445 -0.361245,0.24835 -1.083735,0.31609 -0.857956,0.0903 -1.783646,0.0451 -0.92569,-0.0677 -1.625602,-0.65475 -0.338667,0.83538 -0.135466,1.51271 0.225778,0.65476 0.857956,1.06116 0.654756,0.38382 1.648179,0.47413 1.016001,0.0903 2.235203,-0.22578 z"
           id="path9348" />
        <path
           d="m 89.030429,263.00591 q -0.790223,-0.58702 -1.264357,-1.30951 -0.474134,-0.74507 -0.474134,-1.82881 0,-0.90311 0.361245,-1.6256 0.383822,-0.72249 1.016001,-1.2192 0.632178,-0.49671 1.444979,-0.72249 0.812801,-0.24835 1.670757,-0.2032 1.174046,0.0677 1.896535,0.47414 0.72249,0.4064 1.083735,0.99342 l 0.496712,0.47413 q 0.361244,0.36125 0.519289,0.79023 0.180622,0.4064 0.180622,0.83537 0,0.65476 -0.361244,1.19663 -0.338667,0.54187 -0.970846,0.8128 l -0.519289,-0.22578 -0.812801,-0.79022 q -0.316089,-0.15805 -0.654756,-0.18062 -0.338667,-0.0226 -0.541868,0.0452 l -0.180622,0.0903 0.270934,0.11289 q 0.4064,0.18062 0.835378,0.4064 0.451556,0.22578 0.857957,0.49671 0.428978,0.27094 0.812801,0.6096 0.383822,0.33867 0.677334,0.76765 l 0.338667,0.31609 q 0.496711,0.49671 0.8128,1.15147 0.31609,0.65475 0.31609,1.55786 0,0.94827 -0.383823,1.69334 -0.361245,0.74507 -0.993423,1.24178 -0.632179,0.51929 -1.444979,0.79022 -0.812801,0.27094 -1.693336,0.27094 -1.016001,0 -2.077157,-0.42898 -1.061157,-0.42898 -1.941691,-1.30952 l -0.270934,-0.24835 q -0.361245,-0.27093 -0.699912,-0.58702 -0.316089,-0.33867 -0.6096,-0.74507 l 2.415825,-2.59645 q 0.722489,0.83538 1.354668,1.19662 0.632178,0.33867 1.083734,0.33867 0.338667,0 0.564445,-0.11289 0.225778,-0.11289 0.225778,-0.29351 v -0.0226 q -0.06773,0 -0.09031,-0.0677 -0.835379,-0.4064 -1.603024,-0.83538 -0.767645,-0.45155 -1.354668,-1.03858 z m 4.538137,-2.59645 q 0.654757,-0.27093 0.92569,-0.88053 0.293512,-0.6096 0.112889,-1.24178 -0.158044,-0.65476 -0.857956,-1.15147 -0.677334,-0.51929 -1.986847,-0.58702 -0.767645,-0.0226 -1.490134,0.18062 -0.72249,0.2032 -1.286935,0.63218 -0.564445,0.42898 -0.903112,1.06116 -0.338667,0.63217 -0.338667,1.44497 0,0.79023 0.316089,1.37725 0.338667,0.58702 0.857957,1.06116 0.541867,0.47413 1.219201,0.85795 0.699912,0.38383 1.422401,0.74507 0.767645,0.38382 1.038579,0.79022 0.270934,0.38383 0.180622,0.72249 -0.06773,0.31609 -0.428978,0.51929 -0.361245,0.18063 -0.903112,0.15805 -0.519289,-0.0452 -1.151468,-0.33867 -0.6096,-0.29351 -1.174045,-0.97084 l -1.806224,1.94169 q 0.632178,0.83537 1.490135,1.33209 0.857956,0.47413 1.761068,0.6096 0.92569,0.13546 1.806224,-0.0452 0.903112,-0.15804 1.603024,-0.6096 0.72249,-0.45156 1.151468,-1.17404 0.428978,-0.74507 0.428978,-1.71592 0,-0.83538 -0.316089,-1.44498 -0.293512,-0.6096 -0.767645,-1.06115 -0.474134,-0.45156 -1.061157,-0.76765 -0.564445,-0.33867 -1.106312,-0.58702 -0.541868,-0.27094 -0.993424,-0.47414 -0.428978,-0.22577 -0.632178,-0.45155 -0.248356,-0.29351 -0.135467,-0.6096 0.135467,-0.33867 0.541867,-0.47414 0.225778,-0.0903 0.564445,-0.0677 0.361245,0 0.72249,0.13547 0.383823,0.13546 0.699912,0.4064 0.316089,0.24835 0.496711,0.67733 z"
           id="path9350" />
      </g>
      <path
         style="fill:#2686e7;fill-opacity:1;fill-rule:nonzero;stroke:#000000;stroke-width:0.0211659;stroke-opacity:1"
         d="m 62.888577,261.81276 c 0,-7.28257 -0.006,-6.90419 0.117059,-7.37784 0.133054,-0.51209 0.400391,-0.97798 0.705696,-1.22981 0.264673,-0.21831 0.63538,-0.37306 1.062972,-0.44371 0.192474,-0.0318 0.445518,-0.0376 2.004598,-0.0455 2.419784,-0.0123 2.90637,0.0129 3.588767,0.18597 0.794869,0.20162 1.474845,0.594 2.088802,1.20536 0.387786,0.38614 0.65788,0.76443 0.899226,1.25942 0.458678,0.94073 0.635711,1.86863 0.562217,2.9468 -0.08466,1.24197 -0.423962,2.30252 -1.027858,3.21276 -0.655585,0.98814 -1.563937,1.71251 -2.543728,2.02851 -0.532437,0.17173 -1.041475,0.23668 -1.720677,0.21958 -1.052667,-0.0265 -1.627071,-0.23532 -2.15229,-0.7824 -0.266734,-0.27783 -0.414654,-0.57279 -0.485739,-0.96857 -0.0876,-0.48772 0.05209,-1.15427 0.343387,-1.63859 l 0.07931,-0.13186 0.06469,0.0954 c 0.216317,0.31893 0.969191,0.53622 1.863792,0.53791 0.5253,10e-4 0.863588,-0.0607 1.164125,-0.21228 0.535772,-0.27022 0.998352,-0.84215 1.215403,-1.50269 0.13102,-0.39873 0.158685,-0.58504 0.159495,-1.07415 6.88e-4,-0.422 -0.0023,-0.45626 -0.05983,-0.67731 -0.168683,-0.64841 -0.458049,-1.06701 -0.963721,-1.39413 -0.20331,-0.13152 -0.319337,-0.18826 -0.520671,-0.2546 -0.372938,-0.12288 -0.381813,-0.12347 -2.00547,-0.13341 l -1.497488,-0.009 v 6.43584 6.43585 h -1.47103 -1.471031 z"
         id="path8888" />
      <path
         style="fill:#2686e7;fill-opacity:1;fill-rule:nonzero;stroke:#000000;stroke-width:0.0211659;stroke-opacity:1"
         d="m 80.763184,268.76295 c -0.03492,-0.005 -0.149217,-0.019 -0.25399,-0.0316 -0.718783,-0.0873 -1.511437,-0.38172 -2.14834,-0.79804 -0.595082,-0.38899 -1.084982,-0.87892 -1.498119,-1.49823 -0.577303,-0.8654 -0.895082,-1.72175 -1.032328,-2.78193 -0.04646,-0.35886 -0.06422,-1.24652 -0.0322,-1.60916 0.05124,-0.58037 0.171166,-1.141 0.351402,-1.64275 0.18401,-0.51225 0.547754,-1.20323 0.844961,-1.60512 0.639482,-0.86471 1.468554,-1.50347 2.470351,-1.90331 0.627547,-0.25046 1.147451,-0.3514 1.809901,-0.3514 0.728702,0 1.324917,0.13352 1.778156,0.39823 0.624888,0.36495 1.044811,0.86336 1.27345,1.51146 0.09643,0.27334 0.13248,0.50162 0.133734,0.84681 0.0013,0.33625 -0.02246,0.50098 -0.103357,0.71925 l -0.05471,0.14761 -0.05467,-0.0708 c -0.190024,-0.24603 -0.443796,-0.44148 -0.729885,-0.56214 -0.198988,-0.0839 -0.63278,-0.19828 -0.960554,-0.25324 -0.320987,-0.0538 -1.079561,-0.0538 -1.346647,3e-5 -0.532506,0.10731 -0.901279,0.28847 -1.344875,0.66065 -1.216813,1.02093 -1.562234,3.08148 -0.768998,4.58732 0.195668,0.37144 0.579607,0.81496 0.93607,1.08132 0.283686,0.21195 0.728144,0.39124 1.175136,0.474 0.275582,0.051 1.01019,0.0504 1.26519,0 0.356584,-0.072 0.698293,-0.21625 0.938091,-0.396 0.747492,-0.56037 1.182941,-1.36784 1.39242,-2.58201 0.132294,-0.76678 0.139411,-0.95948 0.139768,-3.7834 l 2.65e-4,-2.4817 h 1.449864 1.449863 v 5.83121 5.83122 H 86.39327 84.943406 v -0.635 c 0,-0.34922 -0.0061,-0.63497 -0.01344,-0.63497 -0.0074,0 -0.09074,0.0699 -0.185203,0.15539 -0.703225,0.63624 -1.404313,1.02568 -2.217785,1.23187 -0.44695,0.11329 -0.674383,0.14126 -1.202933,0.14785 -0.273569,0.003 -0.525974,0.003 -0.560899,-0.003 z"
         id="path8890" />
      <path
         style="fill:#2686e7;fill-opacity:1;fill-rule:nonzero;stroke:#000000;stroke-width:0.0211659;stroke-opacity:1"
         d="m 93.875465,268.48715 c -0.339733,-0.0628 -0.436287,-0.0857 -0.579284,-0.13742 -0.346429,-0.12515 -0.626044,-0.31401 -0.916188,-0.61878 -0.281242,-0.29544 -0.417637,-0.55835 -0.518621,-0.99965 l -0.0481,-0.21021 -0.0066,-3.59291 -0.0066,-3.59291 H 91.081034 90.36192 v -1.20646 -1.20646 h 0.718056 0.718055 l 0.0092,-1.15883 c 0.0097,-1.21566 0.01188,-1.24583 0.111607,-1.54067 0.103597,-0.30626 0.343066,-0.65308 0.603141,-0.87353 0.382548,-0.32426 1.130559,-0.5747 1.834131,-0.61407 l 0.260128,-0.0146 v 2.10084 2.10083 h 1.315524 1.315525 l -0.01307,0.23811 c -0.01609,0.29345 -0.08586,0.71115 -0.156414,0.9366 -0.114649,0.36631 -0.32249,0.67071 -0.603554,0.88394 -0.372078,0.28228 -0.657479,0.35403 -1.408816,0.35418 l -0.45035,8e-5 0.0059,3.28601 0.0059,3.286 0.05955,0.12128 c 0.0773,0.1574 0.171384,0.23239 0.376669,0.30025 0.239011,0.079 0.482711,0.0916 0.738486,0.0383 0.39106,-0.0816 0.70893,-0.2391 0.884111,-0.43812 0.04952,-0.0562 0.09409,-0.0982 0.09905,-0.0933 0.0049,0.005 0.03382,0.0945 0.06412,0.19905 0.142618,0.49183 0.06946,0.93186 -0.22978,1.38197 -0.325279,0.48929 -0.907296,0.84431 -1.674725,1.02153 -0.148979,0.0344 -0.28044,0.0456 -0.603229,0.0514 -0.227005,0.004 -0.436547,0.003 -0.465648,-0.003 z"
         id="path8892" />
      <path
         style="fill:#2686e7;fill-opacity:1;fill-rule:nonzero;stroke:#000000;stroke-width:0.0211659;stroke-opacity:1"
         d="m 104.63043,268.66807 c -1.52741,-0.10554 -2.72062,-0.62015 -3.77743,-1.62914 -0.77106,-0.73618 -1.367551,-1.8111 -1.608676,-2.899 -0.125963,-0.56832 -0.149545,-0.80577 -0.149254,-1.50278 2.12e-4,-0.4975 0.0084,-0.69801 0.03572,-0.87426 0.218495,-1.40979 0.90155,-2.73155 1.86843,-3.61557 0.87289,-0.79808 1.95365,-1.30009 3.25812,-1.51339 0.33369,-0.0546 0.40363,-0.0588 0.96305,-0.0588 0.50999,6e-5 0.64744,0.007 0.88923,0.0449 1.18636,0.18591 1.91163,0.51578 2.55023,1.1599 0.44565,0.4495 0.68857,0.89843 0.78475,1.4503 0.10617,0.60915 -0.0954,1.30049 -0.48564,1.66552 -0.11833,0.11069 -0.32548,0.25421 -0.33942,0.23516 -0.003,-0.004 -0.0313,-0.08 -0.0632,-0.16894 -0.17763,-0.49616 -0.70064,-1.0263 -1.29004,-1.30761 -0.39227,-0.18722 -0.93528,-0.33782 -1.38605,-0.38442 -0.31271,-0.0323 -0.98628,-0.0142 -1.25253,0.0337 -0.48031,0.0864 -0.94767,0.27203 -1.34345,0.53368 -0.25631,0.16944 -0.72874,0.63224 -0.89568,0.87743 -0.38095,0.55948 -0.57517,1.24081 -0.57517,2.01766 0,0.83955 0.21904,1.53369 0.6697,2.12232 0.33908,0.44289 0.95836,0.8789 1.47876,1.04116 0.74665,0.23279 1.70456,0.22001 2.46342,-0.0328 0.27482,-0.0916 0.66401,-0.29105 0.87091,-0.44638 0.17739,-0.13317 0.44079,-0.38288 0.58889,-0.55827 l 0.0993,-0.11756 1.06168,0.77129 1.06168,0.77131 -0.16305,0.21299 c -0.0897,0.11716 -0.27259,0.32674 -0.40647,0.46575 -0.80865,0.83963 -1.76323,1.35525 -2.94206,1.58919 -0.55742,0.11062 -1.36218,0.15838 -1.96574,0.11668 z"
         id="path8894" />
      <path
         style="fill:#2686e7;fill-opacity:1;fill-rule:nonzero;stroke:#000000;stroke-width:0.0211659;stroke-opacity:1"
         d="m 112.39572,261.64764 c 7e-5,-5.91458 0.004,-6.87853 0.0311,-7.04295 0.0878,-0.53962 0.32586,-0.94858 0.7475,-1.28392 0.47413,-0.37709 1.00605,-0.55243 1.81947,-0.59975 l 0.21695,-0.0126 v 2.85837 c 0,1.75377 0.008,2.85836 0.0197,2.85836 0.0108,0 0.0255,-0.0181 0.0325,-0.0402 0.0252,-0.0795 0.17685,-0.2929 0.30674,-0.43175 0.56046,-0.59913 1.71304,-1.05652 2.83707,-1.12587 0.64055,-0.0395 1.47853,0.13789 2.04896,0.43377 0.35523,0.18426 0.61073,0.37395 0.92646,0.68784 0.56577,0.56246 0.87227,1.19938 1.01345,2.10601 0.0683,0.43855 0.0746,0.82644 0.0748,4.63005 l 2.1e-4,3.81516 h -1.4046 -1.4046 l 0.0104,-2.50288 c 0.012,-2.88578 -0.009,-3.7418 -0.11257,-4.67829 -0.0429,-0.38611 -0.11397,-0.65622 -0.24066,-0.91431 -0.12614,-0.25694 -0.28885,-0.45842 -0.49393,-0.61162 -0.38274,-0.28591 -0.8125,-0.40164 -1.30414,-0.35119 -0.28414,0.0292 -0.42347,0.0674 -0.64868,0.17779 -0.40526,0.19874 -0.65032,0.56343 -0.71321,1.06138 -0.0138,0.10966 -0.0338,0.19938 -0.0444,0.19938 -0.0106,0 -0.0735,-0.029 -0.13995,-0.0643 -0.27414,-0.14612 -0.51935,-0.40104 -0.67209,-0.6987 l -0.0809,-0.15767 -0.005,4.27022 -0.005,4.27024 h -1.40748 -1.40748 z"
         id="path8896" />
      <path
         style="fill:#2686e7;fill-opacity:1;fill-rule:nonzero;stroke:#000000;stroke-width:0.0211659;stroke-opacity:1"
         d="m 130.37607,268.74099 c -0.92102,-0.074 -1.65034,-0.25889 -2.29552,-0.58174 -0.88478,-0.44272 -1.60029,-1.06209 -2.13704,-1.8498 -0.55302,-0.81164 -0.86016,-1.61201 -1.01935,-2.65634 -0.0564,-0.37009 -0.0776,-1.14522 -0.0423,-1.54511 0.0986,-1.11534 0.44101,-2.14268 0.99026,-2.97065 0.41743,-0.62927 1.02164,-1.24331 1.61479,-1.64106 0.44707,-0.29979 0.89878,-0.50527 1.47306,-0.6701 0.70189,-0.20145 1.24704,-0.28364 1.99077,-0.30014 1.11174,-0.0247 1.91375,0.13253 2.71662,0.53244 0.63651,0.31705 1.13003,0.6971 1.54106,1.18673 1.0544,1.25604 1.18406,2.94168 0.32408,4.21331 -0.5933,0.87729 -1.45867,1.36576 -2.92101,1.64879 -0.96953,0.18765 -1.95691,0.15225 -2.72139,-0.0976 -0.66651,-0.2178 -1.10028,-0.5693 -1.37414,-1.11353 -0.20494,-0.40727 -0.21597,-0.92635 -0.0319,-1.5012 l 0.0623,-0.19441 0.17221,0.12335 c 0.32298,0.23135 0.73495,0.40538 1.13979,0.4815 0.16755,0.0315 0.31951,0.0376 0.93047,0.0376 1.45127,-10e-5 2.03776,-0.12605 2.47584,-0.53164 0.0913,-0.0846 0.14997,-0.16354 0.20689,-0.27871 0.0764,-0.15459 0.0794,-0.16881 0.0779,-0.37347 -0.003,-0.36354 -0.13705,-0.65055 -0.4521,-0.96549 -0.29805,-0.29795 -0.61017,-0.48504 -1.06012,-0.63548 -0.34796,-0.11634 -0.60953,-0.15252 -1.01555,-0.14049 -1.10221,0.0327 -2.10706,0.60369 -2.74603,1.56045 -0.31512,0.47184 -0.51706,1.03153 -0.58799,1.62965 -0.1533,1.29267 0.26058,2.52025 1.12915,3.34909 0.41673,0.39767 0.78824,0.5834 1.3965,0.69818 0.34879,0.0658 0.94426,0.066 1.29519,0 0.76269,-0.14272 1.35298,-0.43458 1.92073,-0.94972 l 0.16419,-0.14899 0.614,0.29829 c 0.33771,0.16404 0.86461,0.41992 1.17091,0.56862 l 0.55689,0.27032 -0.10023,0.1424 c -0.48624,0.69086 -1.08004,1.2536 -1.7289,1.63854 -0.63621,0.37743 -1.45016,0.62876 -2.38594,0.73673 -0.20662,0.0238 -1.15508,0.0446 -1.34403,0.0294 z"
         id="path8898" />
      <path
         style="fill:#2686e7;fill-opacity:1;fill-rule:nonzero;stroke:#000000;stroke-width:0.0211659;stroke-opacity:1"
         d="m 141.43526,268.67974 c -0.58509,-0.0784 -1.14216,-0.25215 -1.68806,-0.52649 -0.55494,-0.27893 -1.11001,-0.7307 -1.54753,-1.25955 l -0.1295,-0.15653 0.0891,-0.0975 c 0.049,-0.0536 0.4496,-0.48509 0.89027,-0.95888 l 0.80122,-0.86143 0.27932,0.27937 c 0.32895,0.32901 0.56585,0.50306 0.91365,0.67128 0.72312,0.34975 1.39233,0.43011 1.92609,0.23124 0.38281,-0.14263 0.60763,-0.46389 0.57485,-0.82145 -0.0212,-0.2309 -0.14577,-0.45654 -0.3822,-0.69216 -0.25213,-0.25128 -0.439,-0.37148 -1.13693,-0.73134 -1.14297,-0.58933 -1.52826,-0.81372 -1.98085,-1.15367 -0.56805,-0.42665 -1.0767,-1.01552 -1.30528,-1.51112 -0.17408,-0.37743 -0.25875,-0.85327 -0.23908,-1.34354 0.0198,-0.49263 0.10817,-0.85837 0.30181,-1.24879 0.53404,-1.07669 1.63775,-1.76883 3.05774,-1.91751 0.44179,-0.0463 1.08313,-0.006 1.5481,0.0975 0.68577,0.15245 1.30118,0.53675 1.65616,1.03421 0.61885,0.86724 0.33762,2.11538 -0.58496,2.59615 l -0.16276,0.0848 -0.0866,-0.1665 c -0.22847,-0.43914 -0.70554,-0.79894 -1.28126,-0.9663 -0.22689,-0.0659 -0.62661,-0.10035 -0.85844,-0.0739 -0.49813,0.0569 -0.84565,0.3605 -0.84509,0.73829 5.3e-4,0.37005 0.29155,0.63996 1.09594,1.0165 0.98592,0.46153 1.85644,0.92532 2.25865,1.20336 0.696,0.48115 1.15101,1.025 1.45592,1.74021 0.16246,0.38105 0.24088,0.87646 0.22062,1.3938 -0.0324,0.82693 -0.27962,1.46968 -0.79682,2.0714 -0.36361,0.42301 -0.96282,0.82396 -1.56761,1.04894 -0.236,0.0878 -0.62761,0.18748 -0.98422,0.25053 -0.33074,0.0585 -1.15293,0.0745 -1.49219,0.029 z"
         id="path8900" />
    </g>
  </g>
</svg>
