<?xml version="1.0" encoding="UTF-8" standalone="no"?>
<!-- Created with Inkscape (http://www.inkscape.org/) -->

<svg
   width="179.58347mm"
   height="21.042511mm"
   viewBox="0 0 179.58347 21.042511"
   version="1.1"
   id="svg5"
   xmlns:inkscape="http://www.inkscape.org/namespaces/inkscape"
   xmlns:sodipodi="http://sodipodi.sourceforge.net/DTD/sodipodi-0.dtd"
   xmlns="http://www.w3.org/2000/svg"
   xmlns:svg="http://www.w3.org/2000/svg">
  <sodipodi:namedview
     id="namedview7"
     pagecolor="#ffffff"
     bordercolor="#666666"
     borderopacity="1.0"
     inkscape:showpageshadow="2"
     inkscape:pageopacity="0.0"
     inkscape:pagecheckerboard="0"
     inkscape:deskcolor="#d1d1d1"
     inkscape:document-units="mm"
     showgrid="false" />
  <defs
     id="defs2" />
  <g
     inkscape:label="Layer 1"
     inkscape:groupmode="layer"
     id="layer1"
     transform="translate(-16.636778,-78.718534)">
    <g
       aria-label="Rho Technologies"
       id="text3600"
       style="font-size:22.5778px;line-height:1.25;font-family:Fonarto;-inkscape-font-specification:'Fonarto, Normal';stroke-width:0.264583">
      <path
         d="m 19.142914,79.41844 h 3.454403 q 1.64818,0 2.754492,0.677334 1.106312,0.677334 1.693335,1.738491 0.587023,1.038578 0.654756,2.325513 0.09031,1.264357 -0.270933,2.46098 -0.361245,1.196624 -1.174046,2.167469 -0.790223,0.970846 -1.964269,1.422402 l 3.951115,5.012271 h -3.680181 l -4.380093,-5.554139 q -0.496712,-0.632178 -0.451556,-1.399823 0.06773,-0.767645 0.451556,-1.33209 0.112889,0.248355 0.428978,0.383822 0.316089,0.135467 0.699912,0.2032 0.4064,0.06773 0.790223,0.06773 0.383822,0 0.654756,-0.04516 0.609601,-0.112889 1.038579,-0.541867 0.451556,-0.428978 0.654756,-0.993423 0.225778,-0.587023 0.225778,-1.219202 0,-0.654756 -0.270934,-1.196623 -0.248355,-0.541867 -0.8128,-0.880534 -0.541868,-0.361245 -1.399824,-0.361245 H 19.639625 V 95.2229 H 16.636778 V 82.195509 q 0,-1.241779 0.564445,-2.009424 0.564445,-0.767645 1.941691,-0.767645 z"
         id="path4806" />
      <path
         d="m 33.344315,79.41844 v 5.712183 q 0.180622,-0.383822 0.541867,-0.677334 0.361245,-0.293511 0.790223,-0.474133 0.451556,-0.203201 0.903112,-0.31609 0.474134,-0.112889 0.880534,-0.135466 0.835379,-0.04516 1.64818,0.225778 0.8128,0.270933 1.490134,0.970845 0.993424,1.038579 0.993424,2.98027 V 95.2229 h -2.822225 q 0,-0.361244 0,-0.993423 0.02258,-0.654756 0.02258,-1.399823 0,-0.767646 0,-1.580447 0,-0.835378 -0.02258,-1.557868 -0.02258,-0.745067 -0.06773,-1.309512 -0.04516,-0.564445 -0.112889,-0.835379 -0.180622,-0.677334 -0.654756,-1.038579 -0.474134,-0.361245 -1.061157,-0.361245 -0.767645,0 -1.196623,0.406401 -0.406401,0.4064 -0.406401,1.061157 -0.248355,-0.06773 -0.541867,-0.338667 -0.270933,-0.270934 -0.383822,-0.587023 V 95.2229 H 30.499512 V 81.721376 q 0,-1.083735 0.767645,-1.693336 0.767645,-0.632178 2.077158,-0.6096 z"
         id="path4808" />
      <path
         d="m 48.516574,83.256666 q 1.783647,0 3.160893,0.857956 1.399823,0.857957 2.190046,2.190047 0.790223,1.33209 0.835379,2.957692 0.06773,1.625602 -0.812801,3.18347 -0.745067,1.286935 -1.941691,2.05458 -1.196623,0.767645 -2.551291,0.948267 -1.354668,0.203201 -2.731914,-0.225778 -1.354668,-0.4064 -2.438403,-1.490134 -1.219201,-1.24178 -1.625601,-2.867381 -0.406401,-1.625602 0.06773,-3.251203 0.2032,-0.654757 0.654756,-1.083735 0.474134,-0.428978 1.061157,-0.632178 0.587023,-0.203201 1.219201,-0.180623 0.632179,0.02258 1.174046,0.270934 0.541867,0.225778 0.903112,0.677334 0.383822,0.428978 0.451556,1.061157 -0.338667,-0.248356 -0.812801,-0.248356 -0.474134,-0.02258 -0.92569,0.2032 -0.428978,0.2032 -0.745067,0.654756 -0.293512,0.428978 -0.293512,1.083735 0,1.12889 0.474134,1.873957 0.474134,0.745067 1.174046,1.12889 0.722489,0.361245 1.53529,0.361245 0.835379,0 1.535291,-0.383823 0.722489,-0.383822 1.196623,-1.12889 0.474134,-0.767645 0.474134,-1.896535 0,-0.880534 -0.316089,-1.557868 -0.316089,-0.677334 -0.857957,-1.106312 -0.519289,-0.451557 -1.219201,-0.609601 -0.699912,-0.180623 -1.490135,-0.02258 -0.338667,-0.4064 -0.835378,-0.632178 -0.474134,-0.248356 -1.038579,-0.31609 -0.564445,-0.09031 -1.12889,0.02258 -0.564445,0.09031 -1.061157,0.383823 0.903112,-1.083735 2.099736,-1.670757 1.196623,-0.609601 2.619024,-0.609601 z"
         id="path4810" />
      <path
         d="m 62.176077,79.41844 h 10.814766 q 0,0.699912 -0.2032,1.264357 -0.2032,0.541867 -0.541867,0.92569 -0.338667,0.383822 -0.790223,0.587022 -0.428978,0.203201 -0.92569,0.203201 H 68.723639 V 95.2229 H 65.675636 V 82.39871 h -3.499559 z"
         id="path4812" />
      <path
         d="m 80.870417,90.70734 q -1.219201,0.316089 -2.235202,0.225778 -0.993423,-0.09031 -1.648179,-0.474134 -0.632179,-0.4064 -0.857957,-1.061156 -0.2032,-0.677334 0.135467,-1.512713 0.699912,0.587023 1.625602,0.654756 0.925689,0.04516 1.783646,-0.04516 0.722489,-0.06773 1.083734,-0.316089 0.383823,-0.248356 0.474134,-0.564445 0.09031,-0.338667 -0.06773,-0.699912 -0.158045,-0.361245 -0.51929,-0.654757 -0.338667,-0.293511 -0.857956,-0.474133 -0.496712,-0.180623 -1.106312,-0.158045 -0.654757,0.04516 -1.241779,0.316089 -0.587023,0.270934 -1.038579,0.745068 -0.451556,0.474134 -0.72249,1.106312 -0.270934,0.632178 -0.293511,1.399824 -0.02258,0.632178 0.135466,1.241779 0.180623,0.6096 0.51929,1.12889 0.338667,0.496711 0.812801,0.857956 0.474134,0.338667 1.083734,0.428978 0.857957,0.158045 1.761069,-0.112889 0.903112,-0.270933 1.603023,-0.993423 l 2.37067,1.151468 q -0.92569,1.377246 -2.190047,1.986846 -1.264357,0.587023 -2.889959,0.587023 -1.512712,0 -2.66418,-0.519289 -1.12889,-0.541867 -1.896535,-1.422402 -0.745068,-0.880534 -1.12889,-1.986846 -0.361245,-1.12889 -0.338667,-2.280358 0.02258,-1.174046 0.451556,-2.280358 0.428978,-1.12889 1.241779,-1.986846 0.903112,-0.970846 2.099735,-1.377246 1.219201,-0.406401 2.483558,-0.406401 1.399824,0 2.415825,0.474134 1.016001,0.474134 1.648179,1.219201 0.632179,0.72249 0.835379,1.625602 0.2032,0.880534 -0.04516,1.715913 -0.225778,0.835379 -0.92569,1.512713 -0.699911,0.654756 -1.896535,0.948267 z"
         id="path4814" />
      <path
         d="m 94.86865,87.862537 q -0.180622,-0.632178 -0.699912,-1.061156 -0.496711,-0.428979 -1.174045,-0.632179 -0.677334,-0.225778 -1.44498,-0.2032 -0.767645,0 -1.467557,0.293511 -0.677334,0.293512 -1.196623,0.880535 -0.51929,0.564445 -0.72249,1.444979 -0.158044,0.72249 -0.04516,1.467557 0.112889,0.745067 0.519289,1.354668 0.4064,0.587023 1.083735,0.970845 0.699911,0.383823 1.670757,0.383823 1.828802,0 2.844803,-1.33209 l 2.144891,1.557868 q -1.715913,2.415825 -4.944539,2.415825 -1.693335,0 -2.935114,-0.632179 -1.219201,-0.654756 -1.986846,-1.670757 -0.767645,-1.038579 -1.038579,-2.302936 -0.270934,-1.286934 -0.06773,-2.528713 0.225778,-1.264357 0.948267,-2.370669 0.72249,-1.12889 1.964269,-1.828802 0.92569,-0.51929 1.964269,-0.699912 1.061156,-0.2032 2.122313,-0.04516 1.399823,0.203201 2.167469,0.835379 0.790223,0.632178 1.038578,1.377246 0.248356,0.722489 0.02258,1.399824 -0.2032,0.654756 -0.767645,0.925689 z"
         id="path4816" />
      <path
         d="m 101.03237,79.41844 v 5.712183 q 0.18062,-0.383822 0.54187,-0.677334 0.36124,-0.293511 0.79022,-0.474133 0.45156,-0.203201 0.90311,-0.31609 0.47414,-0.112889 0.88054,-0.135466 0.83537,-0.04516 1.64818,0.225778 0.8128,0.270933 1.49013,0.970845 0.99342,1.038579 0.99342,2.98027 V 95.2229 h -2.82222 q 0,-0.361244 0,-0.993423 0.0226,-0.654756 0.0226,-1.399823 0,-0.767646 0,-1.580447 0,-0.835378 -0.0226,-1.557868 -0.0226,-0.745067 -0.0677,-1.309512 -0.0452,-0.564445 -0.11289,-0.835379 -0.18063,-0.677334 -0.65476,-1.038579 -0.47413,-0.361245 -1.06116,-0.361245 -0.76764,0 -1.19662,0.406401 -0.4064,0.4064 -0.4064,1.061157 -0.24836,-0.06773 -0.54187,-0.338667 -0.27093,-0.270934 -0.38382,-0.587023 V 95.2229 H 98.187567 V 81.721376 q 0,-1.083735 0.767645,-1.693336 0.767645,-0.632178 2.077158,-0.6096 z"
         id="path4818" />
      <path
         d="m 113.45014,84.882268 q 0.18062,-0.406401 0.54187,-0.699912 0.38382,-0.293512 0.83538,-0.496712 0.45155,-0.2032 0.92569,-0.316089 0.47413,-0.112889 0.88053,-0.135467 0.85796,-0.04515 1.69333,0.248356 0.83538,0.270934 1.5353,0.970845 1.016,1.061157 1.016,3.048004 V 95.2229 h -2.88996 q 0,-0.383822 0,-1.038578 0.0226,-0.654757 0.0226,-1.422402 0,-0.790223 0,-1.625602 0,-0.835378 -0.0226,-1.580446 -0.0226,-0.745067 -0.0677,-1.33209 -0.0452,-0.587023 -0.11288,-0.857956 -0.18063,-0.72249 -0.69992,-1.083735 -0.49671,-0.361245 -1.08373,-0.361245 -0.76765,0 -1.19662,0.428979 -0.42898,0.4064 -0.42898,1.083734 -0.27094,-0.09031 -0.54187,-0.361245 -0.27093,-0.293511 -0.4064,-0.6096 v 0.6096 8.150586 H 110.5376 V 83.5276 h 2.91254 z"
         id="path4820" />
      <path
         d="m 128.80301,83.256666 q 1.78365,0 3.16089,0.857956 1.39983,0.857957 2.19005,2.190047 0.79022,1.33209 0.83538,2.957692 0.0677,1.625602 -0.8128,3.18347 -0.74507,1.286935 -1.94169,2.05458 -1.19663,0.767645 -2.55129,0.948267 -1.35467,0.203201 -2.73192,-0.225778 -1.35467,-0.4064 -2.4384,-1.490134 -1.2192,-1.24178 -1.6256,-2.867381 -0.4064,-1.625602 0.0677,-3.251203 0.2032,-0.654757 0.65476,-1.083735 0.47413,-0.428978 1.06115,-0.632178 0.58703,-0.203201 1.21921,-0.180623 0.63217,0.02258 1.17404,0.270934 0.54187,0.225778 0.90311,0.677334 0.38383,0.428978 0.45156,1.061157 -0.33867,-0.248356 -0.8128,-0.248356 -0.47413,-0.02258 -0.92569,0.2032 -0.42898,0.2032 -0.74507,0.654756 -0.29351,0.428978 -0.29351,1.083735 0,1.12889 0.47413,1.873957 0.47414,0.745067 1.17405,1.12889 0.72249,0.361245 1.53529,0.361245 0.83538,0 1.53529,-0.383823 0.72249,-0.383822 1.19662,-1.12889 0.47414,-0.767645 0.47414,-1.896535 0,-0.880534 -0.31609,-1.557868 -0.31609,-0.677334 -0.85796,-1.106312 -0.51929,-0.451557 -1.2192,-0.609601 -0.69991,-0.180623 -1.49013,-0.02258 -0.33867,-0.4064 -0.83538,-0.632178 -0.47414,-0.248356 -1.03858,-0.31609 -0.56445,-0.09031 -1.12889,0.02258 -0.56445,0.09031 -1.06116,0.383823 0.90311,-1.083735 2.09974,-1.670757 1.19662,-0.609601 2.61902,-0.609601 z"
         id="path4822" />
      <path
         d="M 139.66291,79.41844 V 95.2229 h -2.8448 V 81.721376 q 0,-1.083735 0.76764,-1.693336 0.76765,-0.632178 2.07716,-0.6096 z"
         id="path4824" />
      <path
         d="m 147.58772,83.256666 q 1.78364,0 3.16089,0.857956 1.39982,0.857957 2.19005,2.190047 0.79022,1.33209 0.83538,2.957692 0.0677,1.625602 -0.8128,3.18347 -0.74507,1.286935 -1.9417,2.05458 -1.19662,0.767645 -2.55129,0.948267 -1.35467,0.203201 -2.73191,-0.225778 -1.35467,-0.4064 -2.4384,-1.490134 -1.2192,-1.24178 -1.62561,-2.867381 -0.4064,-1.625602 0.0677,-3.251203 0.2032,-0.654757 0.65475,-1.083735 0.47414,-0.428978 1.06116,-0.632178 0.58702,-0.203201 1.2192,-0.180623 0.63218,0.02258 1.17405,0.270934 0.54187,0.225778 0.90311,0.677334 0.38382,0.428978 0.45156,1.061157 -0.33867,-0.248356 -0.8128,-0.248356 -0.47414,-0.02258 -0.92569,0.2032 -0.42898,0.2032 -0.74507,0.654756 -0.29351,0.428978 -0.29351,1.083735 0,1.12889 0.47413,1.873957 0.47413,0.745067 1.17405,1.12889 0.72249,0.361245 1.53529,0.361245 0.83537,0 1.53529,-0.383823 0.72249,-0.383822 1.19662,-1.12889 0.47413,-0.767645 0.47413,-1.896535 0,-0.880534 -0.31609,-1.557868 -0.31608,-0.677334 -0.85795,-1.106312 -0.51929,-0.451557 -1.2192,-0.609601 -0.69991,-0.180623 -1.49014,-0.02258 -0.33866,-0.4064 -0.83538,-0.632178 -0.47413,-0.248356 -1.03858,-0.31609 -0.56444,-0.09031 -1.12889,0.02258 -0.56444,0.09031 -1.06115,0.383823 0.90311,-1.083735 2.09973,-1.670757 1.19663,-0.609601 2.61903,-0.609601 z"
         id="path4826" />
      <path
         d="m 161.26984,99.761038 q -1.12889,0 -2.19005,-0.270933 -1.03858,-0.270934 -1.78364,-0.835379 -0.74507,-0.541867 -1.06116,-1.399824 -0.31609,-0.835378 0.0226,-2.009424 0.36124,0.406401 0.92569,0.745068 0.58702,0.338667 1.2192,0.564445 0.65476,0.248355 1.30951,0.383822 0.67734,0.135467 1.24178,0.112889 1.03858,-0.04516 1.69334,-0.338667 0.65475,-0.293511 1.016,-0.767645 0.38382,-0.451556 0.51929,-1.038579 0.13546,-0.587023 0.13546,-1.219201 -0.85795,0.857956 -1.87395,1.241779 -0.99343,0.361245 -2.00943,0.316089 -1.016,-0.02258 -1.98685,-0.451556 -0.94826,-0.451556 -1.69333,-1.241779 -0.72249,-0.790223 -1.17405,-1.919113 -0.42897,-1.12889 -0.42897,-2.528714 0,-1.354668 0.47413,-2.46098 0.47413,-1.106312 1.26436,-1.873957 0.8128,-0.767646 1.8288,-1.174046 1.03858,-0.4064 2.14489,-0.361245 1.08373,0.04516 1.73849,0.496712 0.65476,0.428978 0.94827,1.016001 0.31609,0.564445 0.31609,1.174045 0.0226,0.609601 -0.18063,0.970846 -0.2032,-0.270934 -0.49671,-0.451556 -0.27093,-0.2032 -0.6096,-0.316089 -0.31609,-0.112889 -0.67733,-0.158045 -0.33867,-0.04516 -0.65476,-0.04516 -1.03858,0 -1.73849,0.496712 -0.69991,0.496712 -1.06116,1.241779 -0.36124,0.72249 -0.38382,1.580446 0,0.857957 0.33867,1.603024 0.36124,0.72249 1.06116,1.219201 0.72249,0.496712 1.78364,0.496712 0.90311,0 1.49014,-0.361245 0.58702,-0.361245 0.92569,-0.948268 0.36124,-0.6096 0.49671,-1.354668 0.15804,-0.767645 0.15804,-1.557868 V 84.769379 83.5276 h 2.93512 v 10.385788 q 0,1.33209 -0.38383,2.415825 -0.38382,1.083734 -1.15146,1.851379 -0.74507,0.767646 -1.87396,1.174046 -1.10631,0.4064 -2.57387,0.4064 z"
         id="path4828" />
      <path
         d="m 169.96228,85.898269 q 0.0452,-0.677334 0.27093,-1.12889 0.24836,-0.451556 0.63218,-0.72249 0.38383,-0.270934 0.88054,-0.383823 0.51929,-0.135466 1.12889,-0.135466 v 11.6953 h -2.91254 z m 1.46756,-7.179741 q 0.76764,0 1.30951,0.564445 0.56445,0.541867 0.56445,1.33209 0,0.790223 -0.54187,1.354668 -0.31609,0.31609 -0.74507,0.451556 -0.4064,0.112889 -0.83538,0.248356 -0.4064,0.112889 -0.76764,0.293512 -0.33867,0.158044 -0.47414,0.541867 -0.11289,-0.361245 -0.24835,-0.92569 -0.11289,-0.564445 -0.15805,-1.174046 -0.0226,-0.6096 0.0677,-1.174045 0.11289,-0.587023 0.49671,-0.970846 0.54187,-0.541867 1.33209,-0.541867 z"
         id="path4830" />
      <path
         d="m 183.53153,90.70734 q -1.2192,0.316089 -2.2352,0.225778 -0.99342,-0.09031 -1.64818,-0.474134 -0.63218,-0.4064 -0.85796,-1.061156 -0.2032,-0.677334 0.13547,-1.512713 0.69991,0.587023 1.6256,0.654756 0.92569,0.04516 1.78365,-0.04516 0.72249,-0.06773 1.08373,-0.316089 0.38382,-0.248356 0.47414,-0.564445 0.0903,-0.338667 -0.0677,-0.699912 -0.15804,-0.361245 -0.51929,-0.654757 -0.33866,-0.293511 -0.85795,-0.474133 -0.49672,-0.180623 -1.10632,-0.158045 -0.65475,0.04516 -1.24177,0.316089 -0.58703,0.270934 -1.03858,0.745068 -0.45156,0.474134 -0.72249,1.106312 -0.27094,0.632178 -0.29351,1.399824 -0.0226,0.632178 0.13546,1.241779 0.18062,0.6096 0.51929,1.12889 0.33867,0.496711 0.8128,0.857956 0.47414,0.338667 1.08374,0.428978 0.85795,0.158045 1.76107,-0.112889 0.90311,-0.270933 1.60302,-0.993423 l 2.37067,1.151468 q -0.92569,1.377246 -2.19005,1.986846 -1.26436,0.587023 -2.88996,0.587023 -1.51271,0 -2.66418,-0.519289 -1.12889,-0.541867 -1.89653,-1.422402 -0.74507,-0.880534 -1.12889,-1.986846 -0.36125,-1.12889 -0.33867,-2.280358 0.0226,-1.174046 0.45156,-2.280358 0.42897,-1.12889 1.24178,-1.986846 0.90311,-0.970846 2.09973,-1.377246 1.2192,-0.406401 2.48356,-0.406401 1.39982,0 2.41582,0.474134 1.016,0.474134 1.64818,1.219201 0.63218,0.72249 0.83538,1.625602 0.2032,0.880534 -0.0452,1.715913 -0.22578,0.835379 -0.92569,1.512713 -0.69992,0.654756 -1.89654,0.948267 z"
         id="path4832" />
      <path
         d="m 194.2334,87.11747 q -0.18062,-0.428978 -0.49671,-0.677334 -0.31609,-0.270934 -0.69991,-0.406401 -0.36125,-0.135466 -0.72249,-0.135466 -0.33867,-0.02258 -0.56445,0.06773 -0.4064,0.135467 -0.54186,0.474134 -0.11289,0.316089 0.13546,0.609601 0.2032,0.225778 0.63218,0.451556 0.45156,0.2032 0.99342,0.474133 0.54187,0.248356 1.10632,0.587023 0.58702,0.316089 1.06115,0.767645 0.47414,0.451556 0.76765,1.061157 0.31609,0.609601 0.31609,1.444979 0,0.970846 -0.42898,1.715913 -0.42898,0.72249 -1.15147,1.174046 -0.69991,0.451556 -1.60302,0.6096 -0.88054,0.180623 -1.80623,0.04516 -0.90311,-0.135467 -1.76106,-0.609601 -0.85796,-0.496711 -1.49014,-1.33209 l 1.80622,-1.941691 q 0.56445,0.677334 1.17405,0.970846 0.63218,0.293511 1.15147,0.338667 0.54187,0.02258 0.90311,-0.158045 0.36124,-0.2032 0.42898,-0.519289 0.0903,-0.338667 -0.18062,-0.72249 -0.27094,-0.4064 -1.03858,-0.790223 -0.72249,-0.361245 -1.4224,-0.745067 -0.67734,-0.383823 -1.21921,-0.857957 -0.51929,-0.474134 -0.85795,-1.061156 -0.31609,-0.587023 -0.31609,-1.377246 0,-0.812801 0.33867,-1.44498 0.33866,-0.632178 0.90311,-1.061156 0.56444,-0.428978 1.28693,-0.632179 0.72249,-0.2032 1.49014,-0.180622 1.30951,0.06773 1.98684,0.587023 0.69992,0.496711 0.85796,1.151468 0.18062,0.632178 -0.11289,1.241779 -0.27093,0.6096 -0.92569,0.880533 z"
         id="path4834" />
    </g>
  </g>
</svg>
